<?xml version="1.0" encoding="utf-8" standalone="no"?>
<!DOCTYPE svg PUBLIC "-//W3C//DTD SVG 1.1//EN"
  "http://www.w3.org/Graphics/SVG/1.1/DTD/svg11.dtd">
<svg xmlns:xlink="http://www.w3.org/1999/xlink" width="936pt" height="360pt" viewBox="0 0 936 360" xmlns="http://www.w3.org/2000/svg" version="1.1">
 <metadata>
  <rdf:RDF xmlns:dc="http://purl.org/dc/elements/1.1/" xmlns:cc="http://creativecommons.org/ns#" xmlns:rdf="http://www.w3.org/1999/02/22-rdf-syntax-ns#">
   <cc:Work>
    <dc:type rdf:resource="http://purl.org/dc/dcmitype/StillImage"/>
    <dc:date>2026-05-04T01:11:18.427205</dc:date>
    <dc:format>image/svg+xml</dc:format>
    <dc:creator>
     <cc:Agent>
      <dc:title>Matplotlib v3.10.0, https://matplotlib.org/</dc:title>
     </cc:Agent>
    </dc:creator>
   </cc:Work>
  </rdf:RDF>
 </metadata>
 <defs>
  <style type="text/css">*{stroke-linejoin: round; stroke-linecap: butt}</style>
 </defs>
 <g id="figure_1">
  <g id="patch_1">
   <path d="M 0 360 
L 936 360 
L 936 0 
L 0 0 
z
" style="fill: #ffffff"/>
  </g>
  <g id="axes_1">
   <g id="patch_2">
    <path d="M 84.641268 291.4 
L 456.542603 291.4 
L 456.542603 42 
L 84.641268 42 
z
" style="fill: #ffffff"/>
   </g>
   <g id="matplotlib.axis_1">
    <g id="xtick_1">
     <g id="line2d_1">
      <path d="M 99.846919 291.4 
L 99.846919 42 
" clip-path="url(#p8cfd935f33)" style="fill: none; stroke-dasharray: 2.96,1.28; stroke-dashoffset: 0; stroke: #b0b0b0; stroke-opacity: 0.6; stroke-width: 0.8"/>
     </g>
     <g id="line2d_2">
      <defs>
       <path id="mff2a2de20e" d="M 0 0 
L 0 3.5 
" style="stroke: #000000; stroke-width: 0.8"/>
      </defs>
      <g>
       <use xlink:href="#mff2a2de20e" x="99.846919" y="291.4" style="stroke: #000000; stroke-width: 0.8"/>
      </g>
     </g>
     <g id="text_1">
      <!-- 0 -->
      <g transform="translate(94.846919 312.2875) scale(0.2 -0.2)">
       <defs>
        <path id="TimesNewRomanPSMT-30" d="M 231 2094 
Q 231 2819 450 3342 
Q 669 3866 1031 4122 
Q 1313 4325 1613 4325 
Q 2100 4325 2488 3828 
Q 2972 3213 2972 2159 
Q 2972 1422 2759 906 
Q 2547 391 2217 158 
Q 1888 -75 1581 -75 
Q 975 -75 572 641 
Q 231 1244 231 2094 
z
M 844 2016 
Q 844 1141 1059 588 
Q 1238 122 1591 122 
Q 1759 122 1940 273 
Q 2122 425 2216 781 
Q 2359 1319 2359 2297 
Q 2359 3022 2209 3506 
Q 2097 3866 1919 4016 
Q 1791 4119 1609 4119 
Q 1397 4119 1231 3928 
Q 1006 3669 925 3112 
Q 844 2556 844 2016 
z
" transform="scale(0.015625)"/>
       </defs>
       <use xlink:href="#TimesNewRomanPSMT-30"/>
      </g>
     </g>
    </g>
    <g id="xtick_2">
     <g id="line2d_3">
      <path d="M 184.794688 291.4 
L 184.794688 42 
" clip-path="url(#p8cfd935f33)" style="fill: none; stroke-dasharray: 2.96,1.28; stroke-dashoffset: 0; stroke: #b0b0b0; stroke-opacity: 0.6; stroke-width: 0.8"/>
     </g>
     <g id="line2d_4">
      <g>
       <use xlink:href="#mff2a2de20e" x="184.794688" y="291.4" style="stroke: #000000; stroke-width: 0.8"/>
      </g>
     </g>
     <g id="text_2">
      <!-- 50 -->
      <g transform="translate(174.794688 312.2875) scale(0.2 -0.2)">
       <defs>
        <path id="TimesNewRomanPSMT-35" d="M 2778 4238 
L 2534 3706 
L 1259 3706 
L 981 3138 
Q 1809 3016 2294 2522 
Q 2709 2097 2709 1522 
Q 2709 1188 2573 903 
Q 2438 619 2231 419 
Q 2025 219 1772 97 
Q 1413 -75 1034 -75 
Q 653 -75 479 54 
Q 306 184 306 341 
Q 306 428 378 495 
Q 450 563 559 563 
Q 641 563 702 538 
Q 763 513 909 409 
Q 1144 247 1384 247 
Q 1750 247 2026 523 
Q 2303 800 2303 1197 
Q 2303 1581 2056 1914 
Q 1809 2247 1375 2428 
Q 1034 2569 447 2591 
L 1259 4238 
L 2778 4238 
z
" transform="scale(0.015625)"/>
       </defs>
       <use xlink:href="#TimesNewRomanPSMT-35"/>
       <use xlink:href="#TimesNewRomanPSMT-30" transform="translate(50 0)"/>
      </g>
     </g>
    </g>
    <g id="xtick_3">
     <g id="line2d_5">
      <path d="M 269.742458 291.4 
L 269.742458 42 
" clip-path="url(#p8cfd935f33)" style="fill: none; stroke-dasharray: 2.96,1.28; stroke-dashoffset: 0; stroke: #b0b0b0; stroke-opacity: 0.6; stroke-width: 0.8"/>
     </g>
     <g id="line2d_6">
      <g>
       <use xlink:href="#mff2a2de20e" x="269.742458" y="291.4" style="stroke: #000000; stroke-width: 0.8"/>
      </g>
     </g>
     <g id="text_3">
      <!-- 100 -->
      <g transform="translate(254.742458 312.2875) scale(0.2 -0.2)">
       <defs>
        <path id="TimesNewRomanPSMT-31" d="M 750 3822 
L 1781 4325 
L 1884 4325 
L 1884 747 
Q 1884 391 1914 303 
Q 1944 216 2037 169 
Q 2131 122 2419 116 
L 2419 0 
L 825 0 
L 825 116 
Q 1125 122 1212 167 
Q 1300 213 1334 289 
Q 1369 366 1369 747 
L 1369 3034 
Q 1369 3497 1338 3628 
Q 1316 3728 1258 3775 
Q 1200 3822 1119 3822 
Q 1003 3822 797 3725 
L 750 3822 
z
" transform="scale(0.015625)"/>
       </defs>
       <use xlink:href="#TimesNewRomanPSMT-31"/>
       <use xlink:href="#TimesNewRomanPSMT-30" transform="translate(50 0)"/>
       <use xlink:href="#TimesNewRomanPSMT-30" transform="translate(100 0)"/>
      </g>
     </g>
    </g>
    <g id="xtick_4">
     <g id="line2d_7">
      <path d="M 354.690228 291.4 
L 354.690228 42 
" clip-path="url(#p8cfd935f33)" style="fill: none; stroke-dasharray: 2.96,1.28; stroke-dashoffset: 0; stroke: #b0b0b0; stroke-opacity: 0.6; stroke-width: 0.8"/>
     </g>
     <g id="line2d_8">
      <g>
       <use xlink:href="#mff2a2de20e" x="354.690228" y="291.4" style="stroke: #000000; stroke-width: 0.8"/>
      </g>
     </g>
     <g id="text_4">
      <!-- 150 -->
      <g transform="translate(339.690228 312.2875) scale(0.2 -0.2)">
       <use xlink:href="#TimesNewRomanPSMT-31"/>
       <use xlink:href="#TimesNewRomanPSMT-35" transform="translate(50 0)"/>
       <use xlink:href="#TimesNewRomanPSMT-30" transform="translate(100 0)"/>
      </g>
     </g>
    </g>
    <g id="xtick_5">
     <g id="line2d_9">
      <path d="M 439.637997 291.4 
L 439.637997 42 
" clip-path="url(#p8cfd935f33)" style="fill: none; stroke-dasharray: 2.96,1.28; stroke-dashoffset: 0; stroke: #b0b0b0; stroke-opacity: 0.6; stroke-width: 0.8"/>
     </g>
     <g id="line2d_10">
      <g>
       <use xlink:href="#mff2a2de20e" x="439.637997" y="291.4" style="stroke: #000000; stroke-width: 0.8"/>
      </g>
     </g>
     <g id="text_5">
      <!-- 200 -->
      <g transform="translate(424.637997 312.2875) scale(0.2 -0.2)">
       <defs>
        <path id="TimesNewRomanPSMT-32" d="M 2934 816 
L 2638 0 
L 138 0 
L 138 116 
Q 1241 1122 1691 1759 
Q 2141 2397 2141 2925 
Q 2141 3328 1894 3587 
Q 1647 3847 1303 3847 
Q 991 3847 742 3664 
Q 494 3481 375 3128 
L 259 3128 
Q 338 3706 661 4015 
Q 984 4325 1469 4325 
Q 1984 4325 2329 3994 
Q 2675 3663 2675 3213 
Q 2675 2891 2525 2569 
Q 2294 2063 1775 1497 
Q 997 647 803 472 
L 1909 472 
Q 2247 472 2383 497 
Q 2519 522 2628 598 
Q 2738 675 2819 816 
L 2934 816 
z
" transform="scale(0.015625)"/>
       </defs>
       <use xlink:href="#TimesNewRomanPSMT-32"/>
       <use xlink:href="#TimesNewRomanPSMT-30" transform="translate(50 0)"/>
       <use xlink:href="#TimesNewRomanPSMT-30" transform="translate(100 0)"/>
      </g>
     </g>
    </g>
    <g id="text_6">
     <!-- Epoch -->
     <g transform="translate(245.045061 334.453125) scale(0.2 -0.2)">
      <defs>
       <path id="TimesNewRomanPSMT-45" d="M 1338 4006 
L 1338 2331 
L 2269 2331 
Q 2631 2331 2753 2441 
Q 2916 2584 2934 2947 
L 3050 2947 
L 3050 1472 
L 2934 1472 
Q 2891 1781 2847 1869 
Q 2791 1978 2662 2040 
Q 2534 2103 2269 2103 
L 1338 2103 
L 1338 706 
Q 1338 425 1363 364 
Q 1388 303 1450 267 
Q 1513 231 1688 231 
L 2406 231 
Q 2766 231 2928 281 
Q 3091 331 3241 478 
Q 3434 672 3638 1063 
L 3763 1063 
L 3397 0 
L 131 0 
L 131 116 
L 281 116 
Q 431 116 566 188 
Q 666 238 702 338 
Q 738 438 738 747 
L 738 3500 
Q 738 3903 656 3997 
Q 544 4122 281 4122 
L 131 4122 
L 131 4238 
L 3397 4238 
L 3444 3309 
L 3322 3309 
Q 3256 3644 3176 3769 
Q 3097 3894 2941 3959 
Q 2816 4006 2500 4006 
L 1338 4006 
z
" transform="scale(0.015625)"/>
       <path id="TimesNewRomanPSMT-70" d="M -6 2578 
L 875 2934 
L 994 2934 
L 994 2266 
Q 1216 2644 1439 2795 
Q 1663 2947 1909 2947 
Q 2341 2947 2628 2609 
Q 2981 2197 2981 1534 
Q 2981 794 2556 309 
Q 2206 -88 1675 -88 
Q 1444 -88 1275 -22 
Q 1150 25 994 166 
L 994 -706 
Q 994 -1000 1030 -1079 
Q 1066 -1159 1155 -1206 
Q 1244 -1253 1478 -1253 
L 1478 -1369 
L -22 -1369 
L -22 -1253 
L 56 -1253 
Q 228 -1256 350 -1188 
Q 409 -1153 442 -1076 
Q 475 -1000 475 -688 
L 475 2019 
Q 475 2297 450 2372 
Q 425 2447 370 2484 
Q 316 2522 222 2522 
Q 147 2522 31 2478 
L -6 2578 
z
M 994 2081 
L 994 1013 
Q 994 666 1022 556 
Q 1066 375 1236 237 
Q 1406 100 1666 100 
Q 1978 100 2172 344 
Q 2425 663 2425 1241 
Q 2425 1897 2138 2250 
Q 1938 2494 1663 2494 
Q 1513 2494 1366 2419 
Q 1253 2363 994 2081 
z
" transform="scale(0.015625)"/>
       <path id="TimesNewRomanPSMT-6f" d="M 1600 2947 
Q 2250 2947 2644 2453 
Q 2978 2031 2978 1484 
Q 2978 1100 2793 706 
Q 2609 313 2286 112 
Q 1963 -88 1566 -88 
Q 919 -88 538 428 
Q 216 863 216 1403 
Q 216 1797 411 2186 
Q 606 2575 925 2761 
Q 1244 2947 1600 2947 
z
M 1503 2744 
Q 1338 2744 1170 2645 
Q 1003 2547 900 2300 
Q 797 2053 797 1666 
Q 797 1041 1045 587 
Q 1294 134 1700 134 
Q 2003 134 2200 384 
Q 2397 634 2397 1244 
Q 2397 2006 2069 2444 
Q 1847 2744 1503 2744 
z
" transform="scale(0.015625)"/>
       <path id="TimesNewRomanPSMT-63" d="M 2631 1088 
Q 2516 522 2178 217 
Q 1841 -88 1431 -88 
Q 944 -88 581 321 
Q 219 731 219 1428 
Q 219 2103 620 2525 
Q 1022 2947 1584 2947 
Q 2006 2947 2278 2723 
Q 2550 2500 2550 2259 
Q 2550 2141 2473 2067 
Q 2397 1994 2259 1994 
Q 2075 1994 1981 2113 
Q 1928 2178 1911 2362 
Q 1894 2547 1784 2644 
Q 1675 2738 1481 2738 
Q 1169 2738 978 2506 
Q 725 2200 725 1697 
Q 725 1184 976 792 
Q 1228 400 1656 400 
Q 1963 400 2206 609 
Q 2378 753 2541 1131 
L 2631 1088 
z
" transform="scale(0.015625)"/>
       <path id="TimesNewRomanPSMT-68" d="M 1041 4444 
L 1041 2350 
Q 1388 2731 1591 2839 
Q 1794 2947 1997 2947 
Q 2241 2947 2416 2812 
Q 2591 2678 2675 2391 
Q 2734 2191 2734 1659 
L 2734 647 
Q 2734 375 2778 275 
Q 2809 200 2884 156 
Q 2959 113 3159 113 
L 3159 0 
L 1753 0 
L 1753 113 
L 1819 113 
Q 2019 113 2097 173 
Q 2175 234 2206 353 
Q 2216 403 2216 647 
L 2216 1659 
Q 2216 2128 2167 2275 
Q 2119 2422 2012 2495 
Q 1906 2569 1756 2569 
Q 1603 2569 1437 2487 
Q 1272 2406 1041 2159 
L 1041 647 
Q 1041 353 1073 281 
Q 1106 209 1195 161 
Q 1284 113 1503 113 
L 1503 0 
L 84 0 
L 84 113 
Q 275 113 384 172 
Q 447 203 484 290 
Q 522 378 522 647 
L 522 3238 
Q 522 3728 498 3840 
Q 475 3953 426 3993 
Q 378 4034 297 4034 
Q 231 4034 84 3984 
L 41 4094 
L 897 4444 
L 1041 4444 
z
" transform="scale(0.015625)"/>
      </defs>
      <use xlink:href="#TimesNewRomanPSMT-45"/>
      <use xlink:href="#TimesNewRomanPSMT-70" transform="translate(61.083984 0)"/>
      <use xlink:href="#TimesNewRomanPSMT-6f" transform="translate(111.083984 0)"/>
      <use xlink:href="#TimesNewRomanPSMT-63" transform="translate(161.083984 0)"/>
      <use xlink:href="#TimesNewRomanPSMT-68" transform="translate(205.46875 0)"/>
     </g>
    </g>
   </g>
   <g id="matplotlib.axis_2">
    <g id="ytick_1">
     <g id="line2d_11">
      <path d="M 84.641268 227.603885 
L 456.542603 227.603885 
" clip-path="url(#p8cfd935f33)" style="fill: none; stroke-dasharray: 2.96,1.28; stroke-dashoffset: 0; stroke: #b0b0b0; stroke-opacity: 0.6; stroke-width: 0.8"/>
     </g>
     <g id="line2d_12">
      <defs>
       <path id="me99069ee5b" d="M 0 0 
L -3.5 0 
" style="stroke: #000000; stroke-width: 0.8"/>
      </defs>
      <g>
       <use xlink:href="#me99069ee5b" x="84.641268" y="227.603885" style="stroke: #000000; stroke-width: 0.8"/>
      </g>
     </g>
     <g id="text_7">
      <!-- $\mathdefault{10^{-1}}$ -->
      <g transform="translate(41.441268 236.464823) scale(0.2 -0.2)">
       <defs>
        <path id="TimesNewRomanPSMT-2212" d="M 3484 2000 
L 116 2000 
L 116 2256 
L 3484 2256 
L 3484 2000 
z
" transform="scale(0.015625)"/>
       </defs>
       <use xlink:href="#TimesNewRomanPSMT-31" transform="translate(0 0.582813)"/>
       <use xlink:href="#TimesNewRomanPSMT-30" transform="translate(50 0.582813)"/>
       <use xlink:href="#TimesNewRomanPSMT-2212" transform="translate(101.502813 60.695312) scale(0.7)"/>
       <use xlink:href="#TimesNewRomanPSMT-31" transform="translate(140.980352 60.695312) scale(0.7)"/>
      </g>
     </g>
    </g>
    <g id="ytick_2">
     <g id="line2d_13">
      <path d="M 84.641268 53.336364 
L 456.542603 53.336364 
" clip-path="url(#p8cfd935f33)" style="fill: none; stroke-dasharray: 2.96,1.28; stroke-dashoffset: 0; stroke: #b0b0b0; stroke-opacity: 0.6; stroke-width: 0.8"/>
     </g>
     <g id="line2d_14">
      <g>
       <use xlink:href="#me99069ee5b" x="84.641268" y="53.336364" style="stroke: #000000; stroke-width: 0.8"/>
      </g>
     </g>
     <g id="text_8">
      <!-- $\mathdefault{10^{0}}$ -->
      <g transform="translate(49.441268 62.197301) scale(0.2 -0.2)">
       <use xlink:href="#TimesNewRomanPSMT-31" transform="translate(0 0.582813)"/>
       <use xlink:href="#TimesNewRomanPSMT-30" transform="translate(50 0.582813)"/>
       <use xlink:href="#TimesNewRomanPSMT-30" transform="translate(101.502813 60.695312) scale(0.7)"/>
      </g>
     </g>
    </g>
    <g id="text_9">
     <!-- Weight Value (SymLog Scale) -->
     <g transform="translate(33.125643 288.1875) rotate(-90) scale(0.2 -0.2)">
      <defs>
       <path id="TimesNewRomanPSMT-57" d="M 5991 4238 
L 5991 4122 
Q 5825 4122 5722 4062 
Q 5619 4003 5525 3841 
Q 5463 3731 5328 3319 
L 4147 -97 
L 4022 -97 
L 3056 2613 
L 2097 -97 
L 1984 -97 
L 725 3422 
Q 584 3816 547 3888 
Q 484 4006 376 4064 
Q 269 4122 84 4122 
L 84 4238 
L 1653 4238 
L 1653 4122 
L 1578 4122 
Q 1413 4122 1325 4047 
Q 1238 3972 1238 3866 
Q 1238 3756 1375 3363 
L 2209 984 
L 2913 3006 
L 2788 3363 
L 2688 3647 
Q 2622 3803 2541 3922 
Q 2500 3981 2441 4022 
Q 2363 4078 2284 4103 
Q 2225 4122 2097 4122 
L 2097 4238 
L 3747 4238 
L 3747 4122 
L 3634 4122 
Q 3459 4122 3378 4047 
Q 3297 3972 3297 3844 
Q 3297 3684 3438 3288 
L 4250 984 
L 5056 3319 
Q 5194 3706 5194 3856 
Q 5194 3928 5148 3990 
Q 5103 4053 5034 4078 
Q 4916 4122 4725 4122 
L 4725 4238 
L 5991 4238 
z
" transform="scale(0.015625)"/>
       <path id="TimesNewRomanPSMT-65" d="M 681 1784 
Q 678 1147 991 784 
Q 1303 422 1725 422 
Q 2006 422 2214 576 
Q 2422 731 2563 1106 
L 2659 1044 
Q 2594 616 2278 264 
Q 1963 -88 1488 -88 
Q 972 -88 605 314 
Q 238 716 238 1394 
Q 238 2128 614 2539 
Q 991 2950 1559 2950 
Q 2041 2950 2350 2633 
Q 2659 2316 2659 1784 
L 681 1784 
z
M 681 1966 
L 2006 1966 
Q 1991 2241 1941 2353 
Q 1863 2528 1708 2628 
Q 1553 2728 1384 2728 
Q 1125 2728 920 2526 
Q 716 2325 681 1966 
z
" transform="scale(0.015625)"/>
       <path id="TimesNewRomanPSMT-69" d="M 928 4444 
Q 1059 4444 1151 4351 
Q 1244 4259 1244 4128 
Q 1244 3997 1151 3903 
Q 1059 3809 928 3809 
Q 797 3809 703 3903 
Q 609 3997 609 4128 
Q 609 4259 701 4351 
Q 794 4444 928 4444 
z
M 1188 2947 
L 1188 647 
Q 1188 378 1227 289 
Q 1266 200 1342 156 
Q 1419 113 1622 113 
L 1622 0 
L 231 0 
L 231 113 
Q 441 113 512 153 
Q 584 194 626 287 
Q 669 381 669 647 
L 669 1750 
Q 669 2216 641 2353 
Q 619 2453 572 2492 
Q 525 2531 444 2531 
Q 356 2531 231 2484 
L 188 2597 
L 1050 2947 
L 1188 2947 
z
" transform="scale(0.015625)"/>
       <path id="TimesNewRomanPSMT-67" d="M 966 1044 
Q 703 1172 562 1401 
Q 422 1631 422 1909 
Q 422 2334 742 2640 
Q 1063 2947 1563 2947 
Q 1972 2947 2272 2747 
L 2878 2747 
Q 3013 2747 3034 2739 
Q 3056 2731 3066 2713 
Q 3084 2684 3084 2613 
Q 3084 2531 3069 2500 
Q 3059 2484 3036 2475 
Q 3013 2466 2878 2466 
L 2506 2466 
Q 2681 2241 2681 1891 
Q 2681 1491 2375 1206 
Q 2069 922 1553 922 
Q 1341 922 1119 984 
Q 981 866 932 777 
Q 884 688 884 625 
Q 884 572 936 522 
Q 988 472 1138 450 
Q 1225 438 1575 428 
Q 2219 413 2409 384 
Q 2700 344 2873 169 
Q 3047 -6 3047 -263 
Q 3047 -616 2716 -925 
Q 2228 -1381 1444 -1381 
Q 841 -1381 425 -1109 
Q 191 -953 191 -784 
Q 191 -709 225 -634 
Q 278 -519 444 -313 
Q 466 -284 763 25 
Q 600 122 533 198 
Q 466 275 466 372 
Q 466 481 555 628 
Q 644 775 966 1044 
z
M 1509 2797 
Q 1278 2797 1122 2612 
Q 966 2428 966 2047 
Q 966 1553 1178 1281 
Q 1341 1075 1591 1075 
Q 1828 1075 1981 1253 
Q 2134 1431 2134 1813 
Q 2134 2309 1919 2591 
Q 1759 2797 1509 2797 
z
M 934 0 
Q 788 -159 713 -296 
Q 638 -434 638 -550 
Q 638 -700 819 -813 
Q 1131 -1006 1722 -1006 
Q 2284 -1006 2551 -807 
Q 2819 -609 2819 -384 
Q 2819 -222 2659 -153 
Q 2497 -84 2016 -72 
Q 1313 -53 934 0 
z
" transform="scale(0.015625)"/>
       <path id="TimesNewRomanPSMT-74" d="M 1031 3803 
L 1031 2863 
L 1700 2863 
L 1700 2644 
L 1031 2644 
L 1031 788 
Q 1031 509 1111 412 
Q 1191 316 1316 316 
Q 1419 316 1516 380 
Q 1613 444 1666 569 
L 1788 569 
Q 1678 263 1478 108 
Q 1278 -47 1066 -47 
Q 922 -47 784 33 
Q 647 113 581 261 
Q 516 409 516 719 
L 516 2644 
L 63 2644 
L 63 2747 
Q 234 2816 414 2980 
Q 594 3144 734 3369 
Q 806 3488 934 3803 
L 1031 3803 
z
" transform="scale(0.015625)"/>
       <path id="TimesNewRomanPSMT-20" transform="scale(0.015625)"/>
       <path id="TimesNewRomanPSMT-56" d="M 4544 4238 
L 4544 4122 
Q 4319 4081 4203 3978 
Q 4038 3825 3909 3509 
L 2431 -97 
L 2316 -97 
L 728 3556 
Q 606 3838 556 3900 
Q 478 3997 364 4051 
Q 250 4106 56 4122 
L 56 4238 
L 1788 4238 
L 1788 4122 
Q 1494 4094 1406 4022 
Q 1319 3950 1319 3838 
Q 1319 3681 1463 3350 
L 2541 866 
L 3541 3319 
Q 3688 3681 3688 3822 
Q 3688 3913 3597 3995 
Q 3506 4078 3291 4113 
Q 3275 4116 3238 4122 
L 3238 4238 
L 4544 4238 
z
" transform="scale(0.015625)"/>
       <path id="TimesNewRomanPSMT-61" d="M 1822 413 
Q 1381 72 1269 19 
Q 1100 -59 909 -59 
Q 613 -59 420 144 
Q 228 347 228 678 
Q 228 888 322 1041 
Q 450 1253 767 1440 
Q 1084 1628 1822 1897 
L 1822 2009 
Q 1822 2438 1686 2597 
Q 1550 2756 1291 2756 
Q 1094 2756 978 2650 
Q 859 2544 859 2406 
L 866 2225 
Q 866 2081 792 2003 
Q 719 1925 600 1925 
Q 484 1925 411 2006 
Q 338 2088 338 2228 
Q 338 2497 613 2722 
Q 888 2947 1384 2947 
Q 1766 2947 2009 2819 
Q 2194 2722 2281 2516 
Q 2338 2381 2338 1966 
L 2338 994 
Q 2338 584 2353 492 
Q 2369 400 2405 369 
Q 2441 338 2488 338 
Q 2538 338 2575 359 
Q 2641 400 2828 588 
L 2828 413 
Q 2478 -56 2159 -56 
Q 2006 -56 1915 50 
Q 1825 156 1822 413 
z
M 1822 616 
L 1822 1706 
Q 1350 1519 1213 1441 
Q 966 1303 859 1153 
Q 753 1003 753 825 
Q 753 600 887 451 
Q 1022 303 1197 303 
Q 1434 303 1822 616 
z
" transform="scale(0.015625)"/>
       <path id="TimesNewRomanPSMT-6c" d="M 1184 4444 
L 1184 647 
Q 1184 378 1223 290 
Q 1263 203 1344 158 
Q 1425 113 1647 113 
L 1647 0 
L 244 0 
L 244 113 
Q 441 113 512 153 
Q 584 194 625 287 
Q 666 381 666 647 
L 666 3247 
Q 666 3731 644 3842 
Q 622 3953 573 3993 
Q 525 4034 450 4034 
Q 369 4034 244 3984 
L 191 4094 
L 1044 4444 
L 1184 4444 
z
" transform="scale(0.015625)"/>
       <path id="TimesNewRomanPSMT-75" d="M 2709 2863 
L 2709 1128 
Q 2709 631 2732 520 
Q 2756 409 2807 365 
Q 2859 322 2928 322 
Q 3025 322 3147 375 
L 3191 266 
L 2334 -88 
L 2194 -88 
L 2194 519 
Q 1825 119 1631 15 
Q 1438 -88 1222 -88 
Q 981 -88 804 51 
Q 628 191 559 409 
Q 491 628 491 1028 
L 491 2306 
Q 491 2509 447 2587 
Q 403 2666 317 2708 
Q 231 2750 6 2747 
L 6 2863 
L 1009 2863 
L 1009 947 
Q 1009 547 1148 422 
Q 1288 297 1484 297 
Q 1619 297 1789 381 
Q 1959 466 2194 703 
L 2194 2325 
Q 2194 2569 2105 2655 
Q 2016 2741 1734 2747 
L 1734 2863 
L 2709 2863 
z
" transform="scale(0.015625)"/>
       <path id="TimesNewRomanPSMT-28" d="M 1988 -1253 
L 1988 -1369 
Q 1516 -1131 1200 -813 
Q 750 -359 506 256 
Q 263 872 263 1534 
Q 263 2503 741 3301 
Q 1219 4100 1988 4444 
L 1988 4313 
Q 1603 4100 1356 3731 
Q 1109 3363 987 2797 
Q 866 2231 866 1616 
Q 866 947 969 400 
Q 1050 -31 1165 -292 
Q 1281 -553 1476 -793 
Q 1672 -1034 1988 -1253 
z
" transform="scale(0.015625)"/>
       <path id="TimesNewRomanPSMT-53" d="M 2934 4334 
L 2934 2869 
L 2819 2869 
Q 2763 3291 2617 3541 
Q 2472 3791 2203 3937 
Q 1934 4084 1647 4084 
Q 1322 4084 1109 3886 
Q 897 3688 897 3434 
Q 897 3241 1031 3081 
Q 1225 2847 1953 2456 
Q 2547 2138 2764 1967 
Q 2981 1797 3098 1565 
Q 3216 1334 3216 1081 
Q 3216 600 2842 251 
Q 2469 -97 1881 -97 
Q 1697 -97 1534 -69 
Q 1438 -53 1133 45 
Q 828 144 747 144 
Q 669 144 623 97 
Q 578 50 556 -97 
L 441 -97 
L 441 1356 
L 556 1356 
Q 638 900 775 673 
Q 913 447 1195 297 
Q 1478 147 1816 147 
Q 2206 147 2432 353 
Q 2659 559 2659 841 
Q 2659 997 2573 1156 
Q 2488 1316 2306 1453 
Q 2184 1547 1640 1851 
Q 1097 2156 867 2337 
Q 638 2519 519 2737 
Q 400 2956 400 3219 
Q 400 3675 750 4004 
Q 1100 4334 1641 4334 
Q 1978 4334 2356 4169 
Q 2531 4091 2603 4091 
Q 2684 4091 2736 4139 
Q 2788 4188 2819 4334 
L 2934 4334 
z
" transform="scale(0.015625)"/>
       <path id="TimesNewRomanPSMT-79" d="M 38 2863 
L 1372 2863 
L 1372 2747 
L 1306 2747 
Q 1166 2747 1095 2686 
Q 1025 2625 1025 2534 
Q 1025 2413 1128 2197 
L 1825 753 
L 2466 2334 
Q 2519 2463 2519 2588 
Q 2519 2644 2497 2672 
Q 2472 2706 2419 2726 
Q 2366 2747 2231 2747 
L 2231 2863 
L 3163 2863 
L 3163 2747 
Q 3047 2734 2984 2696 
Q 2922 2659 2847 2556 
Q 2819 2513 2741 2316 
L 1575 -541 
Q 1406 -956 1132 -1168 
Q 859 -1381 606 -1381 
Q 422 -1381 303 -1275 
Q 184 -1169 184 -1031 
Q 184 -900 270 -820 
Q 356 -741 506 -741 
Q 609 -741 788 -809 
Q 913 -856 944 -856 
Q 1038 -856 1148 -759 
Q 1259 -663 1372 -384 
L 1575 113 
L 547 2272 
Q 500 2369 397 2513 
Q 319 2622 269 2659 
Q 197 2709 38 2747 
L 38 2863 
z
" transform="scale(0.015625)"/>
       <path id="TimesNewRomanPSMT-6d" d="M 1050 2338 
Q 1363 2650 1419 2697 
Q 1559 2816 1721 2881 
Q 1884 2947 2044 2947 
Q 2313 2947 2506 2790 
Q 2700 2634 2766 2338 
Q 3088 2713 3309 2830 
Q 3531 2947 3766 2947 
Q 3994 2947 4170 2830 
Q 4347 2713 4450 2447 
Q 4519 2266 4519 1878 
L 4519 647 
Q 4519 378 4559 278 
Q 4591 209 4675 161 
Q 4759 113 4950 113 
L 4950 0 
L 3538 0 
L 3538 113 
L 3597 113 
Q 3781 113 3884 184 
Q 3956 234 3988 344 
Q 4000 397 4000 647 
L 4000 1878 
Q 4000 2228 3916 2372 
Q 3794 2572 3525 2572 
Q 3359 2572 3192 2489 
Q 3025 2406 2788 2181 
L 2781 2147 
L 2788 2013 
L 2788 647 
Q 2788 353 2820 281 
Q 2853 209 2943 161 
Q 3034 113 3253 113 
L 3253 0 
L 1806 0 
L 1806 113 
Q 2044 113 2133 169 
Q 2222 225 2256 338 
Q 2272 391 2272 647 
L 2272 1878 
Q 2272 2228 2169 2381 
Q 2031 2581 1784 2581 
Q 1616 2581 1450 2491 
Q 1191 2353 1050 2181 
L 1050 647 
Q 1050 366 1089 281 
Q 1128 197 1204 155 
Q 1281 113 1516 113 
L 1516 0 
L 100 0 
L 100 113 
Q 297 113 375 155 
Q 453 197 493 289 
Q 534 381 534 647 
L 534 1741 
Q 534 2213 506 2350 
Q 484 2453 437 2492 
Q 391 2531 309 2531 
Q 222 2531 100 2484 
L 53 2597 
L 916 2947 
L 1050 2947 
L 1050 2338 
z
" transform="scale(0.015625)"/>
       <path id="TimesNewRomanPSMT-4c" d="M 3669 1172 
L 3772 1150 
L 3409 0 
L 128 0 
L 128 116 
L 288 116 
Q 556 116 672 291 
Q 738 391 738 753 
L 738 3488 
Q 738 3884 650 3984 
Q 528 4122 288 4122 
L 128 4122 
L 128 4238 
L 2047 4238 
L 2047 4122 
Q 1709 4125 1573 4059 
Q 1438 3994 1388 3894 
Q 1338 3794 1338 3416 
L 1338 753 
Q 1338 494 1388 397 
Q 1425 331 1503 300 
Q 1581 269 1991 269 
L 2300 269 
Q 2788 269 2984 341 
Q 3181 413 3343 595 
Q 3506 778 3669 1172 
z
" transform="scale(0.015625)"/>
       <path id="TimesNewRomanPSMT-29" d="M 144 4313 
L 144 4444 
Q 619 4209 934 3891 
Q 1381 3434 1625 2820 
Q 1869 2206 1869 1541 
Q 1869 572 1392 -226 
Q 916 -1025 144 -1369 
L 144 -1253 
Q 528 -1038 776 -670 
Q 1025 -303 1145 264 
Q 1266 831 1266 1447 
Q 1266 2113 1163 2663 
Q 1084 3094 967 3353 
Q 850 3613 656 3853 
Q 463 4094 144 4313 
z
" transform="scale(0.015625)"/>
      </defs>
      <use xlink:href="#TimesNewRomanPSMT-57"/>
      <use xlink:href="#TimesNewRomanPSMT-65" transform="translate(86.384766 0)"/>
      <use xlink:href="#TimesNewRomanPSMT-69" transform="translate(130.769531 0)"/>
      <use xlink:href="#TimesNewRomanPSMT-67" transform="translate(158.552734 0)"/>
      <use xlink:href="#TimesNewRomanPSMT-68" transform="translate(208.552734 0)"/>
      <use xlink:href="#TimesNewRomanPSMT-74" transform="translate(258.552734 0)"/>
      <use xlink:href="#TimesNewRomanPSMT-20" transform="translate(286.335938 0)"/>
      <use xlink:href="#TimesNewRomanPSMT-56" transform="translate(309.585938 0)"/>
      <use xlink:href="#TimesNewRomanPSMT-61" transform="translate(370.677734 0)"/>
      <use xlink:href="#TimesNewRomanPSMT-6c" transform="translate(415.0625 0)"/>
      <use xlink:href="#TimesNewRomanPSMT-75" transform="translate(442.845703 0)"/>
      <use xlink:href="#TimesNewRomanPSMT-65" transform="translate(492.845703 0)"/>
      <use xlink:href="#TimesNewRomanPSMT-20" transform="translate(537.230469 0)"/>
      <use xlink:href="#TimesNewRomanPSMT-28" transform="translate(562.230469 0)"/>
      <use xlink:href="#TimesNewRomanPSMT-53" transform="translate(595.53125 0)"/>
      <use xlink:href="#TimesNewRomanPSMT-79" transform="translate(651.146484 0)"/>
      <use xlink:href="#TimesNewRomanPSMT-6d" transform="translate(701.146484 0)"/>
      <use xlink:href="#TimesNewRomanPSMT-4c" transform="translate(778.929688 0)"/>
      <use xlink:href="#TimesNewRomanPSMT-6f" transform="translate(840.013672 0)"/>
      <use xlink:href="#TimesNewRomanPSMT-67" transform="translate(890.013672 0)"/>
      <use xlink:href="#TimesNewRomanPSMT-20" transform="translate(940.013672 0)"/>
      <use xlink:href="#TimesNewRomanPSMT-53" transform="translate(965.013672 0)"/>
      <use xlink:href="#TimesNewRomanPSMT-63" transform="translate(1020.628906 0)"/>
      <use xlink:href="#TimesNewRomanPSMT-61" transform="translate(1065.013672 0)"/>
      <use xlink:href="#TimesNewRomanPSMT-6c" transform="translate(1109.398438 0)"/>
      <use xlink:href="#TimesNewRomanPSMT-65" transform="translate(1137.181641 0)"/>
      <use xlink:href="#TimesNewRomanPSMT-29" transform="translate(1181.566406 0)"/>
     </g>
    </g>
   </g>
   <g id="line2d_15">
    <path d="M 101.545874 53.336364 
L 439.637997 53.336364 
L 439.637997 53.336364 
" clip-path="url(#p8cfd935f33)" style="fill: none; stroke: #1f77b4; stroke-opacity: 0.85; stroke-width: 1.5; stroke-linecap: square"/>
   </g>
   <g id="line2d_16">
    <path d="M 101.545874 280.063636 
L 439.637997 280.063636 
L 439.637997 280.063636 
" clip-path="url(#p8cfd935f33)" style="fill: none; stroke: #ff7f0e; stroke-opacity: 0.85; stroke-width: 1.5; stroke-linecap: square"/>
   </g>
   <g id="line2d_17">
    <path d="M 101.545874 280.063636 
L 439.637997 280.063636 
L 439.637997 280.063636 
" clip-path="url(#p8cfd935f33)" style="fill: none; stroke: #2ca02c; stroke-opacity: 0.85; stroke-width: 1.5; stroke-linecap: square"/>
   </g>
   <g id="line2d_18">
    <path d="M 101.545874 280.063636 
L 439.637997 280.063636 
L 439.637997 280.063636 
" clip-path="url(#p8cfd935f33)" style="fill: none; stroke: #d62728; stroke-opacity: 0.85; stroke-width: 1.5; stroke-linecap: square"/>
   </g>
   <g id="patch_3">
    <path d="M 84.641268 291.4 
L 84.641268 42 
" style="fill: none; stroke: #000000; stroke-linejoin: miter; stroke-linecap: square"/>
   </g>
   <g id="patch_4">
    <path d="M 456.542603 291.4 
L 456.542603 42 
" style="fill: none; stroke: #000000; stroke-linejoin: miter; stroke-linecap: square"/>
   </g>
   <g id="patch_5">
    <path d="M 84.641268 291.4 
L 456.542603 291.4 
" style="fill: none; stroke: #000000; stroke-linejoin: miter; stroke-linecap: square"/>
   </g>
   <g id="patch_6">
    <path d="M 84.641268 42 
L 456.542603 42 
" style="fill: none; stroke: #000000; stroke-linejoin: miter; stroke-linecap: square"/>
   </g>
   <g id="text_10">
    <!-- [PINN_Net6_4_Bz128_Ep200_W0.05] Loss Weights Evolution -->
    <g transform="translate(13.816936 36) scale(0.2 -0.2)">
     <defs>
      <path id="TimesNewRomanPSMT-5b" d="M 1900 -1269 
L 525 -1269 
L 525 4334 
L 1900 4334 
L 1900 4088 
L 994 4088 
L 994 -1025 
L 1900 -1025 
L 1900 -1269 
z
" transform="scale(0.015625)"/>
      <path id="TimesNewRomanPSMT-50" d="M 1313 1984 
L 1313 750 
Q 1313 350 1400 253 
Q 1519 116 1759 116 
L 1922 116 
L 1922 0 
L 106 0 
L 106 116 
L 266 116 
Q 534 116 650 291 
Q 713 388 713 750 
L 713 3488 
Q 713 3888 628 3984 
Q 506 4122 266 4122 
L 106 4122 
L 106 4238 
L 1659 4238 
Q 2228 4238 2556 4120 
Q 2884 4003 3109 3725 
Q 3334 3447 3334 3066 
Q 3334 2547 2992 2222 
Q 2650 1897 2025 1897 
Q 1872 1897 1694 1919 
Q 1516 1941 1313 1984 
z
M 1313 2163 
Q 1478 2131 1606 2115 
Q 1734 2100 1825 2100 
Q 2150 2100 2386 2351 
Q 2622 2603 2622 3003 
Q 2622 3278 2509 3514 
Q 2397 3750 2190 3867 
Q 1984 3984 1722 3984 
Q 1563 3984 1313 3925 
L 1313 2163 
z
" transform="scale(0.015625)"/>
      <path id="TimesNewRomanPSMT-49" d="M 1975 116 
L 1975 0 
L 159 0 
L 159 116 
L 309 116 
Q 572 116 691 269 
Q 766 369 766 750 
L 766 3488 
Q 766 3809 725 3913 
Q 694 3991 597 4047 
Q 459 4122 309 4122 
L 159 4122 
L 159 4238 
L 1975 4238 
L 1975 4122 
L 1822 4122 
Q 1563 4122 1444 3969 
Q 1366 3869 1366 3488 
L 1366 750 
Q 1366 428 1406 325 
Q 1438 247 1538 191 
Q 1672 116 1822 116 
L 1975 116 
z
" transform="scale(0.015625)"/>
      <path id="TimesNewRomanPSMT-4e" d="M -84 4238 
L 1066 4238 
L 3656 1059 
L 3656 3503 
Q 3656 3894 3569 3991 
Q 3453 4122 3203 4122 
L 3056 4122 
L 3056 4238 
L 4531 4238 
L 4531 4122 
L 4381 4122 
Q 4113 4122 4000 3959 
Q 3931 3859 3931 3503 
L 3931 -69 
L 3819 -69 
L 1025 3344 
L 1025 734 
Q 1025 344 1109 247 
Q 1228 116 1475 116 
L 1625 116 
L 1625 0 
L 150 0 
L 150 116 
L 297 116 
Q 569 116 681 278 
Q 750 378 750 734 
L 750 3681 
Q 566 3897 470 3965 
Q 375 4034 191 4094 
Q 100 4122 -84 4122 
L -84 4238 
z
" transform="scale(0.015625)"/>
      <path id="TimesNewRomanPSMT-5f" d="M 3256 -1381 
L -53 -1381 
L -53 -1119 
L 3256 -1119 
L 3256 -1381 
z
" transform="scale(0.015625)"/>
      <path id="TimesNewRomanPSMT-36" d="M 2869 4325 
L 2869 4209 
Q 2456 4169 2195 4045 
Q 1934 3922 1679 3669 
Q 1425 3416 1258 3105 
Q 1091 2794 978 2366 
Q 1428 2675 1881 2675 
Q 2316 2675 2634 2325 
Q 2953 1975 2953 1425 
Q 2953 894 2631 456 
Q 2244 -75 1606 -75 
Q 1172 -75 869 213 
Q 275 772 275 1663 
Q 275 2231 503 2743 
Q 731 3256 1154 3653 
Q 1578 4050 1965 4187 
Q 2353 4325 2688 4325 
L 2869 4325 
z
M 925 2138 
Q 869 1716 869 1456 
Q 869 1156 980 804 
Q 1091 453 1309 247 
Q 1469 100 1697 100 
Q 1969 100 2183 356 
Q 2397 613 2397 1088 
Q 2397 1622 2184 2012 
Q 1972 2403 1581 2403 
Q 1463 2403 1327 2353 
Q 1191 2303 925 2138 
z
" transform="scale(0.015625)"/>
      <path id="TimesNewRomanPSMT-34" d="M 2978 1563 
L 2978 1119 
L 2409 1119 
L 2409 0 
L 1894 0 
L 1894 1119 
L 100 1119 
L 100 1519 
L 2066 4325 
L 2409 4325 
L 2409 1563 
L 2978 1563 
z
M 1894 1563 
L 1894 3666 
L 406 1563 
L 1894 1563 
z
" transform="scale(0.015625)"/>
      <path id="TimesNewRomanPSMT-42" d="M 2956 2163 
Q 3397 2069 3616 1863 
Q 3919 1575 3919 1159 
Q 3919 844 3719 555 
Q 3519 266 3170 133 
Q 2822 0 2106 0 
L 106 0 
L 106 116 
L 266 116 
Q 531 116 647 284 
Q 719 394 719 750 
L 719 3488 
Q 719 3881 628 3984 
Q 506 4122 266 4122 
L 106 4122 
L 106 4238 
L 1938 4238 
Q 2450 4238 2759 4163 
Q 3228 4050 3475 3764 
Q 3722 3478 3722 3106 
Q 3722 2788 3528 2536 
Q 3334 2284 2956 2163 
z
M 1319 2331 
Q 1434 2309 1582 2298 
Q 1731 2288 1909 2288 
Q 2366 2288 2595 2386 
Q 2825 2484 2947 2687 
Q 3069 2891 3069 3131 
Q 3069 3503 2766 3765 
Q 2463 4028 1881 4028 
Q 1569 4028 1319 3959 
L 1319 2331 
z
M 1319 306 
Q 1681 222 2034 222 
Q 2600 222 2897 476 
Q 3194 731 3194 1106 
Q 3194 1353 3059 1581 
Q 2925 1809 2622 1940 
Q 2319 2072 1872 2072 
Q 1678 2072 1540 2065 
Q 1403 2059 1319 2044 
L 1319 306 
z
" transform="scale(0.015625)"/>
      <path id="TimesNewRomanPSMT-7a" d="M 2688 878 
L 2653 0 
L 128 0 
L 128 113 
L 2028 2644 
L 1091 2644 
Q 788 2644 694 2605 
Q 600 2566 541 2456 
Q 456 2300 444 2069 
L 319 2069 
L 338 2863 
L 2738 2863 
L 2738 2747 
L 819 209 
L 1863 209 
Q 2191 209 2308 264 
Q 2425 319 2497 456 
Q 2547 556 2581 878 
L 2688 878 
z
" transform="scale(0.015625)"/>
      <path id="TimesNewRomanPSMT-38" d="M 1228 2134 
Q 725 2547 579 2797 
Q 434 3047 434 3316 
Q 434 3728 753 4026 
Q 1072 4325 1600 4325 
Q 2113 4325 2425 4047 
Q 2738 3769 2738 3413 
Q 2738 3175 2569 2928 
Q 2400 2681 1866 2347 
Q 2416 1922 2594 1678 
Q 2831 1359 2831 1006 
Q 2831 559 2490 242 
Q 2150 -75 1597 -75 
Q 994 -75 656 303 
Q 388 606 388 966 
Q 388 1247 577 1523 
Q 766 1800 1228 2134 
z
M 1719 2469 
Q 2094 2806 2194 3001 
Q 2294 3197 2294 3444 
Q 2294 3772 2109 3958 
Q 1925 4144 1606 4144 
Q 1288 4144 1088 3959 
Q 888 3775 888 3528 
Q 888 3366 970 3203 
Q 1053 3041 1206 2894 
L 1719 2469 
z
M 1375 2016 
Q 1116 1797 991 1539 
Q 866 1281 866 981 
Q 866 578 1086 336 
Q 1306 94 1647 94 
Q 1984 94 2187 284 
Q 2391 475 2391 747 
Q 2391 972 2272 1150 
Q 2050 1481 1375 2016 
z
" transform="scale(0.015625)"/>
      <path id="TimesNewRomanPSMT-2e" d="M 800 606 
Q 947 606 1047 504 
Q 1147 403 1147 259 
Q 1147 116 1045 14 
Q 944 -88 800 -88 
Q 656 -88 554 14 
Q 453 116 453 259 
Q 453 406 554 506 
Q 656 606 800 606 
z
" transform="scale(0.015625)"/>
      <path id="TimesNewRomanPSMT-5d" d="M 234 4334 
L 1609 4334 
L 1609 -1272 
L 234 -1272 
L 234 -1025 
L 1141 -1025 
L 1141 4088 
L 234 4088 
L 234 4334 
z
" transform="scale(0.015625)"/>
      <path id="TimesNewRomanPSMT-73" d="M 2050 2947 
L 2050 1972 
L 1947 1972 
Q 1828 2431 1642 2597 
Q 1456 2763 1169 2763 
Q 950 2763 815 2647 
Q 681 2531 681 2391 
Q 681 2216 781 2091 
Q 878 1963 1175 1819 
L 1631 1597 
Q 2266 1288 2266 781 
Q 2266 391 1970 151 
Q 1675 -88 1309 -88 
Q 1047 -88 709 6 
Q 606 38 541 38 
Q 469 38 428 -44 
L 325 -44 
L 325 978 
L 428 978 
Q 516 541 762 319 
Q 1009 97 1316 97 
Q 1531 97 1667 223 
Q 1803 350 1803 528 
Q 1803 744 1651 891 
Q 1500 1038 1047 1263 
Q 594 1488 453 1669 
Q 313 1847 313 2119 
Q 313 2472 555 2709 
Q 797 2947 1181 2947 
Q 1350 2947 1591 2875 
Q 1750 2828 1803 2828 
Q 1853 2828 1881 2850 
Q 1909 2872 1947 2947 
L 2050 2947 
z
" transform="scale(0.015625)"/>
      <path id="TimesNewRomanPSMT-76" d="M 53 2863 
L 1400 2863 
L 1400 2747 
L 1313 2747 
Q 1191 2747 1127 2687 
Q 1063 2628 1063 2528 
Q 1063 2419 1128 2269 
L 1794 688 
L 2463 2328 
Q 2534 2503 2534 2594 
Q 2534 2638 2509 2666 
Q 2475 2713 2422 2730 
Q 2369 2747 2206 2747 
L 2206 2863 
L 3141 2863 
L 3141 2747 
Q 2978 2734 2916 2681 
Q 2806 2588 2719 2369 
L 1703 -88 
L 1575 -88 
L 553 2328 
Q 484 2497 421 2570 
Q 359 2644 263 2694 
Q 209 2722 53 2747 
L 53 2863 
z
" transform="scale(0.015625)"/>
      <path id="TimesNewRomanPSMT-6e" d="M 1034 2341 
Q 1538 2947 1994 2947 
Q 2228 2947 2397 2830 
Q 2566 2713 2666 2444 
Q 2734 2256 2734 1869 
L 2734 647 
Q 2734 375 2778 278 
Q 2813 200 2889 156 
Q 2966 113 3172 113 
L 3172 0 
L 1756 0 
L 1756 113 
L 1816 113 
Q 2016 113 2095 173 
Q 2175 234 2206 353 
Q 2219 400 2219 647 
L 2219 1819 
Q 2219 2209 2117 2386 
Q 2016 2563 1775 2563 
Q 1403 2563 1034 2156 
L 1034 647 
Q 1034 356 1069 288 
Q 1113 197 1189 155 
Q 1266 113 1500 113 
L 1500 0 
L 84 0 
L 84 113 
L 147 113 
Q 366 113 442 223 
Q 519 334 519 647 
L 519 1709 
Q 519 2225 495 2337 
Q 472 2450 423 2490 
Q 375 2531 294 2531 
Q 206 2531 84 2484 
L 38 2597 
L 900 2947 
L 1034 2947 
L 1034 2341 
z
" transform="scale(0.015625)"/>
     </defs>
     <use xlink:href="#TimesNewRomanPSMT-5b"/>
     <use xlink:href="#TimesNewRomanPSMT-50" transform="translate(33.300781 0)"/>
     <use xlink:href="#TimesNewRomanPSMT-49" transform="translate(88.916016 0)"/>
     <use xlink:href="#TimesNewRomanPSMT-4e" transform="translate(122.216797 0)"/>
     <use xlink:href="#TimesNewRomanPSMT-4e" transform="translate(194.433594 0)"/>
     <use xlink:href="#TimesNewRomanPSMT-5f" transform="translate(266.650391 0)"/>
     <use xlink:href="#TimesNewRomanPSMT-4e" transform="translate(316.650391 0)"/>
     <use xlink:href="#TimesNewRomanPSMT-65" transform="translate(388.867188 0)"/>
     <use xlink:href="#TimesNewRomanPSMT-74" transform="translate(433.251953 0)"/>
     <use xlink:href="#TimesNewRomanPSMT-36" transform="translate(461.035156 0)"/>
     <use xlink:href="#TimesNewRomanPSMT-5f" transform="translate(511.035156 0)"/>
     <use xlink:href="#TimesNewRomanPSMT-34" transform="translate(561.035156 0)"/>
     <use xlink:href="#TimesNewRomanPSMT-5f" transform="translate(611.035156 0)"/>
     <use xlink:href="#TimesNewRomanPSMT-42" transform="translate(661.035156 0)"/>
     <use xlink:href="#TimesNewRomanPSMT-7a" transform="translate(727.734375 0)"/>
     <use xlink:href="#TimesNewRomanPSMT-31" transform="translate(772.119141 0)"/>
     <use xlink:href="#TimesNewRomanPSMT-32" transform="translate(822.119141 0)"/>
     <use xlink:href="#TimesNewRomanPSMT-38" transform="translate(872.119141 0)"/>
     <use xlink:href="#TimesNewRomanPSMT-5f" transform="translate(922.119141 0)"/>
     <use xlink:href="#TimesNewRomanPSMT-45" transform="translate(972.119141 0)"/>
     <use xlink:href="#TimesNewRomanPSMT-70" transform="translate(1033.203125 0)"/>
     <use xlink:href="#TimesNewRomanPSMT-32" transform="translate(1083.203125 0)"/>
     <use xlink:href="#TimesNewRomanPSMT-30" transform="translate(1133.203125 0)"/>
     <use xlink:href="#TimesNewRomanPSMT-30" transform="translate(1183.203125 0)"/>
     <use xlink:href="#TimesNewRomanPSMT-5f" transform="translate(1233.203125 0)"/>
     <use xlink:href="#TimesNewRomanPSMT-57" transform="translate(1283.203125 0)"/>
     <use xlink:href="#TimesNewRomanPSMT-30" transform="translate(1377.587891 0)"/>
     <use xlink:href="#TimesNewRomanPSMT-2e" transform="translate(1427.587891 0)"/>
     <use xlink:href="#TimesNewRomanPSMT-30" transform="translate(1452.587891 0)"/>
     <use xlink:href="#TimesNewRomanPSMT-35" transform="translate(1502.587891 0)"/>
     <use xlink:href="#TimesNewRomanPSMT-5d" transform="translate(1552.587891 0)"/>
     <use xlink:href="#TimesNewRomanPSMT-20" transform="translate(1585.888672 0)"/>
     <use xlink:href="#TimesNewRomanPSMT-4c" transform="translate(1610.888672 0)"/>
     <use xlink:href="#TimesNewRomanPSMT-6f" transform="translate(1671.972656 0)"/>
     <use xlink:href="#TimesNewRomanPSMT-73" transform="translate(1721.972656 0)"/>
     <use xlink:href="#TimesNewRomanPSMT-73" transform="translate(1760.888672 0)"/>
     <use xlink:href="#TimesNewRomanPSMT-20" transform="translate(1799.804688 0)"/>
     <use xlink:href="#TimesNewRomanPSMT-57" transform="translate(1823.054688 0)"/>
     <use xlink:href="#TimesNewRomanPSMT-65" transform="translate(1909.439453 0)"/>
     <use xlink:href="#TimesNewRomanPSMT-69" transform="translate(1953.824219 0)"/>
     <use xlink:href="#TimesNewRomanPSMT-67" transform="translate(1981.607422 0)"/>
     <use xlink:href="#TimesNewRomanPSMT-68" transform="translate(2031.607422 0)"/>
     <use xlink:href="#TimesNewRomanPSMT-74" transform="translate(2081.607422 0)"/>
     <use xlink:href="#TimesNewRomanPSMT-73" transform="translate(2109.390625 0)"/>
     <use xlink:href="#TimesNewRomanPSMT-20" transform="translate(2148.306641 0)"/>
     <use xlink:href="#TimesNewRomanPSMT-45" transform="translate(2173.306641 0)"/>
     <use xlink:href="#TimesNewRomanPSMT-76" transform="translate(2234.390625 0)"/>
     <use xlink:href="#TimesNewRomanPSMT-6f" transform="translate(2284.390625 0)"/>
     <use xlink:href="#TimesNewRomanPSMT-6c" transform="translate(2334.390625 0)"/>
     <use xlink:href="#TimesNewRomanPSMT-75" transform="translate(2362.173828 0)"/>
     <use xlink:href="#TimesNewRomanPSMT-74" transform="translate(2412.173828 0)"/>
     <use xlink:href="#TimesNewRomanPSMT-69" transform="translate(2439.957031 0)"/>
     <use xlink:href="#TimesNewRomanPSMT-6f" transform="translate(2467.740234 0)"/>
     <use xlink:href="#TimesNewRomanPSMT-6e" transform="translate(2517.740234 0)"/>
    </g>
   </g>
   <g id="legend_1">
    <g id="patch_7">
     <path d="M 392.94776 193.534063 
L 450.242603 193.534063 
Q 452.042603 193.534063 452.042603 191.734062 
L 452.042603 141.665938 
Q 452.042603 139.865938 450.242603 139.865938 
L 392.94776 139.865938 
Q 391.14776 139.865938 391.14776 141.665938 
L 391.14776 191.734062 
Q 391.14776 193.534063 392.94776 193.534063 
z
" style="fill: #ffffff; opacity: 0.8; stroke: #cccccc; stroke-linejoin: miter"/>
    </g>
    <g id="line2d_19">
     <path d="M 394.74776 146.615938 
L 403.74776 146.615938 
L 412.74776 146.615938 
" style="fill: none; stroke: #1f77b4; stroke-opacity: 0.85; stroke-width: 1.5; stroke-linecap: square"/>
    </g>
    <g id="text_11">
     <!-- w_mse -->
     <g transform="translate(419.94776 149.765938) scale(0.09 -0.09)">
      <defs>
       <path id="TimesNewRomanPSMT-77" d="M 41 2863 
L 1241 2863 
L 1241 2747 
Q 1075 2734 1023 2687 
Q 972 2641 972 2553 
Q 972 2456 1025 2319 
L 1638 672 
L 2253 2013 
L 2091 2434 
Q 2016 2622 1894 2694 
Q 1825 2738 1638 2747 
L 1638 2863 
L 3000 2863 
L 3000 2747 
Q 2775 2738 2681 2666 
Q 2619 2616 2619 2506 
Q 2619 2444 2644 2378 
L 3294 734 
L 3897 2319 
Q 3959 2488 3959 2588 
Q 3959 2647 3898 2694 
Q 3838 2741 3659 2747 
L 3659 2863 
L 4563 2863 
L 4563 2747 
Q 4291 2706 4163 2378 
L 3206 -88 
L 3078 -88 
L 2363 1741 
L 1528 -88 
L 1413 -88 
L 494 2319 
Q 403 2547 315 2626 
Q 228 2706 41 2747 
L 41 2863 
z
" transform="scale(0.015625)"/>
      </defs>
      <use xlink:href="#TimesNewRomanPSMT-77"/>
      <use xlink:href="#TimesNewRomanPSMT-5f" transform="translate(72.216797 0)"/>
      <use xlink:href="#TimesNewRomanPSMT-6d" transform="translate(122.216797 0)"/>
      <use xlink:href="#TimesNewRomanPSMT-73" transform="translate(200 0)"/>
      <use xlink:href="#TimesNewRomanPSMT-65" transform="translate(238.916016 0)"/>
     </g>
    </g>
    <g id="line2d_20">
     <path d="M 394.74776 159.357969 
L 403.74776 159.357969 
L 412.74776 159.357969 
" style="fill: none; stroke: #ff7f0e; stroke-opacity: 0.85; stroke-width: 1.5; stroke-linecap: square"/>
    </g>
    <g id="text_12">
     <!-- w_pde1 -->
     <g transform="translate(419.94776 162.507969) scale(0.09 -0.09)">
      <defs>
       <path id="TimesNewRomanPSMT-64" d="M 2222 322 
Q 2013 103 1813 7 
Q 1613 -88 1381 -88 
Q 913 -88 563 304 
Q 213 697 213 1313 
Q 213 1928 600 2439 
Q 988 2950 1597 2950 
Q 1975 2950 2222 2709 
L 2222 3238 
Q 2222 3728 2198 3840 
Q 2175 3953 2125 3993 
Q 2075 4034 2000 4034 
Q 1919 4034 1784 3984 
L 1744 4094 
L 2597 4444 
L 2738 4444 
L 2738 1134 
Q 2738 631 2761 520 
Q 2784 409 2836 365 
Q 2888 322 2956 322 
Q 3041 322 3181 375 
L 3216 266 
L 2366 -88 
L 2222 -88 
L 2222 322 
z
M 2222 541 
L 2222 2016 
Q 2203 2228 2109 2403 
Q 2016 2578 1861 2667 
Q 1706 2756 1559 2756 
Q 1284 2756 1069 2509 
Q 784 2184 784 1559 
Q 784 928 1059 592 
Q 1334 256 1672 256 
Q 1956 256 2222 541 
z
" transform="scale(0.015625)"/>
      </defs>
      <use xlink:href="#TimesNewRomanPSMT-77"/>
      <use xlink:href="#TimesNewRomanPSMT-5f" transform="translate(72.216797 0)"/>
      <use xlink:href="#TimesNewRomanPSMT-70" transform="translate(122.216797 0)"/>
      <use xlink:href="#TimesNewRomanPSMT-64" transform="translate(172.216797 0)"/>
      <use xlink:href="#TimesNewRomanPSMT-65" transform="translate(222.216797 0)"/>
      <use xlink:href="#TimesNewRomanPSMT-31" transform="translate(266.601562 0)"/>
     </g>
    </g>
    <g id="line2d_21">
     <path d="M 394.74776 172.1 
L 403.74776 172.1 
L 412.74776 172.1 
" style="fill: none; stroke: #2ca02c; stroke-opacity: 0.85; stroke-width: 1.5; stroke-linecap: square"/>
    </g>
    <g id="text_13">
     <!-- w_pde2 -->
     <g transform="translate(419.94776 175.25) scale(0.09 -0.09)">
      <use xlink:href="#TimesNewRomanPSMT-77"/>
      <use xlink:href="#TimesNewRomanPSMT-5f" transform="translate(72.216797 0)"/>
      <use xlink:href="#TimesNewRomanPSMT-70" transform="translate(122.216797 0)"/>
      <use xlink:href="#TimesNewRomanPSMT-64" transform="translate(172.216797 0)"/>
      <use xlink:href="#TimesNewRomanPSMT-65" transform="translate(222.216797 0)"/>
      <use xlink:href="#TimesNewRomanPSMT-32" transform="translate(266.601562 0)"/>
     </g>
    </g>
    <g id="line2d_22">
     <path d="M 394.74776 184.842031 
L 403.74776 184.842031 
L 412.74776 184.842031 
" style="fill: none; stroke: #d62728; stroke-opacity: 0.85; stroke-width: 1.5; stroke-linecap: square"/>
    </g>
    <g id="text_14">
     <!-- w_sym -->
     <g transform="translate(419.94776 187.992031) scale(0.09 -0.09)">
      <use xlink:href="#TimesNewRomanPSMT-77"/>
      <use xlink:href="#TimesNewRomanPSMT-5f" transform="translate(72.216797 0)"/>
      <use xlink:href="#TimesNewRomanPSMT-73" transform="translate(122.216797 0)"/>
      <use xlink:href="#TimesNewRomanPSMT-79" transform="translate(161.132812 0)"/>
      <use xlink:href="#TimesNewRomanPSMT-6d" transform="translate(211.132812 0)"/>
     </g>
    </g>
   </g>
  </g>
  <g id="axes_2">
   <g id="patch_8">
    <path d="M 542.456268 291.4 
L 914.357603 291.4 
L 914.357603 42 
L 542.456268 42 
z
" style="fill: #ffffff"/>
   </g>
   <g id="matplotlib.axis_3">
    <g id="xtick_6">
     <g id="line2d_23">
      <path d="M 557.661919 291.4 
L 557.661919 42 
" clip-path="url(#p2b6c1f6e21)" style="fill: none; stroke-dasharray: 2.96,1.28; stroke-dashoffset: 0; stroke: #b0b0b0; stroke-opacity: 0.6; stroke-width: 0.8"/>
     </g>
     <g id="line2d_24">
      <g>
       <use xlink:href="#mff2a2de20e" x="557.661919" y="291.4" style="stroke: #000000; stroke-width: 0.8"/>
      </g>
     </g>
     <g id="text_15">
      <!-- 0 -->
      <g transform="translate(552.661919 312.2875) scale(0.2 -0.2)">
       <use xlink:href="#TimesNewRomanPSMT-30"/>
      </g>
     </g>
    </g>
    <g id="xtick_7">
     <g id="line2d_25">
      <path d="M 642.609688 291.4 
L 642.609688 42 
" clip-path="url(#p2b6c1f6e21)" style="fill: none; stroke-dasharray: 2.96,1.28; stroke-dashoffset: 0; stroke: #b0b0b0; stroke-opacity: 0.6; stroke-width: 0.8"/>
     </g>
     <g id="line2d_26">
      <g>
       <use xlink:href="#mff2a2de20e" x="642.609688" y="291.4" style="stroke: #000000; stroke-width: 0.8"/>
      </g>
     </g>
     <g id="text_16">
      <!-- 50 -->
      <g transform="translate(632.609688 312.2875) scale(0.2 -0.2)">
       <use xlink:href="#TimesNewRomanPSMT-35"/>
       <use xlink:href="#TimesNewRomanPSMT-30" transform="translate(50 0)"/>
      </g>
     </g>
    </g>
    <g id="xtick_8">
     <g id="line2d_27">
      <path d="M 727.557458 291.4 
L 727.557458 42 
" clip-path="url(#p2b6c1f6e21)" style="fill: none; stroke-dasharray: 2.96,1.28; stroke-dashoffset: 0; stroke: #b0b0b0; stroke-opacity: 0.6; stroke-width: 0.8"/>
     </g>
     <g id="line2d_28">
      <g>
       <use xlink:href="#mff2a2de20e" x="727.557458" y="291.4" style="stroke: #000000; stroke-width: 0.8"/>
      </g>
     </g>
     <g id="text_17">
      <!-- 100 -->
      <g transform="translate(712.557458 312.2875) scale(0.2 -0.2)">
       <use xlink:href="#TimesNewRomanPSMT-31"/>
       <use xlink:href="#TimesNewRomanPSMT-30" transform="translate(50 0)"/>
       <use xlink:href="#TimesNewRomanPSMT-30" transform="translate(100 0)"/>
      </g>
     </g>
    </g>
    <g id="xtick_9">
     <g id="line2d_29">
      <path d="M 812.505228 291.4 
L 812.505228 42 
" clip-path="url(#p2b6c1f6e21)" style="fill: none; stroke-dasharray: 2.96,1.28; stroke-dashoffset: 0; stroke: #b0b0b0; stroke-opacity: 0.6; stroke-width: 0.8"/>
     </g>
     <g id="line2d_30">
      <g>
       <use xlink:href="#mff2a2de20e" x="812.505228" y="291.4" style="stroke: #000000; stroke-width: 0.8"/>
      </g>
     </g>
     <g id="text_18">
      <!-- 150 -->
      <g transform="translate(797.505228 312.2875) scale(0.2 -0.2)">
       <use xlink:href="#TimesNewRomanPSMT-31"/>
       <use xlink:href="#TimesNewRomanPSMT-35" transform="translate(50 0)"/>
       <use xlink:href="#TimesNewRomanPSMT-30" transform="translate(100 0)"/>
      </g>
     </g>
    </g>
    <g id="xtick_10">
     <g id="line2d_31">
      <path d="M 897.452997 291.4 
L 897.452997 42 
" clip-path="url(#p2b6c1f6e21)" style="fill: none; stroke-dasharray: 2.96,1.28; stroke-dashoffset: 0; stroke: #b0b0b0; stroke-opacity: 0.6; stroke-width: 0.8"/>
     </g>
     <g id="line2d_32">
      <g>
       <use xlink:href="#mff2a2de20e" x="897.452997" y="291.4" style="stroke: #000000; stroke-width: 0.8"/>
      </g>
     </g>
     <g id="text_19">
      <!-- 200 -->
      <g transform="translate(882.452997 312.2875) scale(0.2 -0.2)">
       <use xlink:href="#TimesNewRomanPSMT-32"/>
       <use xlink:href="#TimesNewRomanPSMT-30" transform="translate(50 0)"/>
       <use xlink:href="#TimesNewRomanPSMT-30" transform="translate(100 0)"/>
      </g>
     </g>
    </g>
    <g id="text_20">
     <!-- Epoch -->
     <g transform="translate(702.860061 334.453125) scale(0.2 -0.2)">
      <use xlink:href="#TimesNewRomanPSMT-45"/>
      <use xlink:href="#TimesNewRomanPSMT-70" transform="translate(61.083984 0)"/>
      <use xlink:href="#TimesNewRomanPSMT-6f" transform="translate(111.083984 0)"/>
      <use xlink:href="#TimesNewRomanPSMT-63" transform="translate(161.083984 0)"/>
      <use xlink:href="#TimesNewRomanPSMT-68" transform="translate(205.46875 0)"/>
     </g>
    </g>
   </g>
   <g id="matplotlib.axis_4">
    <g id="ytick_3">
     <g id="line2d_33">
      <path d="M 542.456268 288.385791 
L 914.357603 288.385791 
" clip-path="url(#p2b6c1f6e21)" style="fill: none; stroke-dasharray: 2.96,1.28; stroke-dashoffset: 0; stroke: #b0b0b0; stroke-opacity: 0.6; stroke-width: 0.8"/>
     </g>
     <g id="line2d_34">
      <g>
       <use xlink:href="#me99069ee5b" x="542.456268" y="288.385791" style="stroke: #000000; stroke-width: 0.8"/>
      </g>
     </g>
     <g id="text_21">
      <!-- $\mathdefault{10^{-6}}$ -->
      <g transform="translate(499.256268 297.246729) scale(0.2 -0.2)">
       <use xlink:href="#TimesNewRomanPSMT-31" transform="translate(0 0.582813)"/>
       <use xlink:href="#TimesNewRomanPSMT-30" transform="translate(50 0.582813)"/>
       <use xlink:href="#TimesNewRomanPSMT-2212" transform="translate(101.502813 60.695312) scale(0.7)"/>
       <use xlink:href="#TimesNewRomanPSMT-36" transform="translate(140.980352 60.695312) scale(0.7)"/>
      </g>
     </g>
    </g>
    <g id="ytick_4">
     <g id="line2d_35">
      <path d="M 542.456268 243.624184 
L 914.357603 243.624184 
" clip-path="url(#p2b6c1f6e21)" style="fill: none; stroke-dasharray: 2.96,1.28; stroke-dashoffset: 0; stroke: #b0b0b0; stroke-opacity: 0.6; stroke-width: 0.8"/>
     </g>
     <g id="line2d_36">
      <g>
       <use xlink:href="#me99069ee5b" x="542.456268" y="243.624184" style="stroke: #000000; stroke-width: 0.8"/>
      </g>
     </g>
     <g id="text_22">
      <!-- $\mathdefault{10^{-5}}$ -->
      <g transform="translate(499.256268 252.385121) scale(0.2 -0.2)">
       <use xlink:href="#TimesNewRomanPSMT-31" transform="translate(0 0.534375)"/>
       <use xlink:href="#TimesNewRomanPSMT-30" transform="translate(50 0.534375)"/>
       <use xlink:href="#TimesNewRomanPSMT-2212" transform="translate(101.502813 60.646875) scale(0.7)"/>
       <use xlink:href="#TimesNewRomanPSMT-35" transform="translate(140.980352 60.646875) scale(0.7)"/>
      </g>
     </g>
    </g>
    <g id="ytick_5">
     <g id="line2d_37">
      <path d="M 542.456268 198.862577 
L 914.357603 198.862577 
" clip-path="url(#p2b6c1f6e21)" style="fill: none; stroke-dasharray: 2.96,1.28; stroke-dashoffset: 0; stroke: #b0b0b0; stroke-opacity: 0.6; stroke-width: 0.8"/>
     </g>
     <g id="line2d_38">
      <g>
       <use xlink:href="#me99069ee5b" x="542.456268" y="198.862577" style="stroke: #000000; stroke-width: 0.8"/>
      </g>
     </g>
     <g id="text_23">
      <!-- $\mathdefault{10^{-4}}$ -->
      <g transform="translate(499.256268 207.723514) scale(0.2 -0.2)">
       <use xlink:href="#TimesNewRomanPSMT-31" transform="translate(0 0.582813)"/>
       <use xlink:href="#TimesNewRomanPSMT-30" transform="translate(50 0.582813)"/>
       <use xlink:href="#TimesNewRomanPSMT-2212" transform="translate(101.502813 60.695312) scale(0.7)"/>
       <use xlink:href="#TimesNewRomanPSMT-34" transform="translate(140.980352 60.695312) scale(0.7)"/>
      </g>
     </g>
    </g>
    <g id="ytick_6">
     <g id="line2d_39">
      <path d="M 542.456268 154.100969 
L 914.357603 154.100969 
" clip-path="url(#p2b6c1f6e21)" style="fill: none; stroke-dasharray: 2.96,1.28; stroke-dashoffset: 0; stroke: #b0b0b0; stroke-opacity: 0.6; stroke-width: 0.8"/>
     </g>
     <g id="line2d_40">
      <g>
       <use xlink:href="#me99069ee5b" x="542.456268" y="154.100969" style="stroke: #000000; stroke-width: 0.8"/>
      </g>
     </g>
     <g id="text_24">
      <!-- $\mathdefault{10^{-3}}$ -->
      <g transform="translate(499.256268 162.961907) scale(0.2 -0.2)">
       <defs>
        <path id="TimesNewRomanPSMT-33" d="M 325 3431 
Q 506 3859 782 4092 
Q 1059 4325 1472 4325 
Q 1981 4325 2253 3994 
Q 2459 3747 2459 3466 
Q 2459 3003 1878 2509 
Q 2269 2356 2469 2072 
Q 2669 1788 2669 1403 
Q 2669 853 2319 450 
Q 1863 -75 997 -75 
Q 569 -75 414 31 
Q 259 138 259 259 
Q 259 350 332 419 
Q 406 488 509 488 
Q 588 488 669 463 
Q 722 447 909 348 
Q 1097 250 1169 231 
Q 1284 197 1416 197 
Q 1734 197 1970 444 
Q 2206 691 2206 1028 
Q 2206 1275 2097 1509 
Q 2016 1684 1919 1775 
Q 1784 1900 1550 2001 
Q 1316 2103 1072 2103 
L 972 2103 
L 972 2197 
Q 1219 2228 1467 2375 
Q 1716 2522 1828 2728 
Q 1941 2934 1941 3181 
Q 1941 3503 1739 3701 
Q 1538 3900 1238 3900 
Q 753 3900 428 3381 
L 325 3431 
z
" transform="scale(0.015625)"/>
       </defs>
       <use xlink:href="#TimesNewRomanPSMT-31" transform="translate(0 0.582813)"/>
       <use xlink:href="#TimesNewRomanPSMT-30" transform="translate(50 0.582813)"/>
       <use xlink:href="#TimesNewRomanPSMT-2212" transform="translate(101.502813 60.695312) scale(0.7)"/>
       <use xlink:href="#TimesNewRomanPSMT-33" transform="translate(140.980352 60.695312) scale(0.7)"/>
      </g>
     </g>
    </g>
    <g id="ytick_7">
     <g id="line2d_41">
      <path d="M 542.456268 109.339362 
L 914.357603 109.339362 
" clip-path="url(#p2b6c1f6e21)" style="fill: none; stroke-dasharray: 2.96,1.28; stroke-dashoffset: 0; stroke: #b0b0b0; stroke-opacity: 0.6; stroke-width: 0.8"/>
     </g>
     <g id="line2d_42">
      <g>
       <use xlink:href="#me99069ee5b" x="542.456268" y="109.339362" style="stroke: #000000; stroke-width: 0.8"/>
      </g>
     </g>
     <g id="text_25">
      <!-- $\mathdefault{10^{-2}}$ -->
      <g transform="translate(499.256268 118.2003) scale(0.2 -0.2)">
       <use xlink:href="#TimesNewRomanPSMT-31" transform="translate(0 0.582813)"/>
       <use xlink:href="#TimesNewRomanPSMT-30" transform="translate(50 0.582813)"/>
       <use xlink:href="#TimesNewRomanPSMT-2212" transform="translate(101.502813 60.695312) scale(0.7)"/>
       <use xlink:href="#TimesNewRomanPSMT-32" transform="translate(140.980352 60.695312) scale(0.7)"/>
      </g>
     </g>
    </g>
    <g id="ytick_8">
     <g id="line2d_43">
      <path d="M 542.456268 64.577755 
L 914.357603 64.577755 
" clip-path="url(#p2b6c1f6e21)" style="fill: none; stroke-dasharray: 2.96,1.28; stroke-dashoffset: 0; stroke: #b0b0b0; stroke-opacity: 0.6; stroke-width: 0.8"/>
     </g>
     <g id="line2d_44">
      <g>
       <use xlink:href="#me99069ee5b" x="542.456268" y="64.577755" style="stroke: #000000; stroke-width: 0.8"/>
      </g>
     </g>
     <g id="text_26">
      <!-- $\mathdefault{10^{-1}}$ -->
      <g transform="translate(499.256268 73.438692) scale(0.2 -0.2)">
       <use xlink:href="#TimesNewRomanPSMT-31" transform="translate(0 0.582813)"/>
       <use xlink:href="#TimesNewRomanPSMT-30" transform="translate(50 0.582813)"/>
       <use xlink:href="#TimesNewRomanPSMT-2212" transform="translate(101.502813 60.695312) scale(0.7)"/>
       <use xlink:href="#TimesNewRomanPSMT-31" transform="translate(140.980352 60.695312) scale(0.7)"/>
      </g>
     </g>
    </g>
    <g id="text_27">
     <!-- Effective Loss Magnitude (SymLog Scale) -->
     <g transform="translate(490.940643 338.146875) rotate(-90) scale(0.2 -0.2)">
      <defs>
       <path id="TimesNewRomanPSMT-66" d="M 1319 2638 
L 1319 756 
Q 1319 356 1406 250 
Q 1522 113 1716 113 
L 1975 113 
L 1975 0 
L 266 0 
L 266 113 
L 394 113 
Q 519 113 622 175 
Q 725 238 764 344 
Q 803 450 803 756 
L 803 2638 
L 247 2638 
L 247 2863 
L 803 2863 
L 803 3050 
Q 803 3478 940 3775 
Q 1078 4072 1361 4255 
Q 1644 4438 1997 4438 
Q 2325 4438 2600 4225 
Q 2781 4084 2781 3909 
Q 2781 3816 2700 3733 
Q 2619 3650 2525 3650 
Q 2453 3650 2373 3701 
Q 2294 3753 2178 3923 
Q 2063 4094 1966 4153 
Q 1869 4213 1750 4213 
Q 1606 4213 1506 4136 
Q 1406 4059 1362 3898 
Q 1319 3738 1319 3069 
L 1319 2863 
L 2056 2863 
L 2056 2638 
L 1319 2638 
z
" transform="scale(0.015625)"/>
       <path id="TimesNewRomanPSMT-4d" d="M 2619 0 
L 981 3566 
L 981 734 
Q 981 344 1066 247 
Q 1181 116 1431 116 
L 1581 116 
L 1581 0 
L 106 0 
L 106 116 
L 256 116 
Q 525 116 638 278 
Q 706 378 706 734 
L 706 3503 
Q 706 3784 644 3909 
Q 600 4000 483 4061 
Q 366 4122 106 4122 
L 106 4238 
L 1306 4238 
L 2844 922 
L 4356 4238 
L 5556 4238 
L 5556 4122 
L 5409 4122 
Q 5138 4122 5025 3959 
Q 4956 3859 4956 3503 
L 4956 734 
Q 4956 344 5044 247 
Q 5159 116 5409 116 
L 5556 116 
L 5556 0 
L 3756 0 
L 3756 116 
L 3906 116 
Q 4178 116 4288 278 
Q 4356 378 4356 734 
L 4356 3566 
L 2722 0 
L 2619 0 
z
" transform="scale(0.015625)"/>
      </defs>
      <use xlink:href="#TimesNewRomanPSMT-45"/>
      <use xlink:href="#TimesNewRomanPSMT-66" transform="translate(61.083984 0)"/>
      <use xlink:href="#TimesNewRomanPSMT-66" transform="translate(92.634766 0)"/>
      <use xlink:href="#TimesNewRomanPSMT-65" transform="translate(125.935547 0)"/>
      <use xlink:href="#TimesNewRomanPSMT-63" transform="translate(170.320312 0)"/>
      <use xlink:href="#TimesNewRomanPSMT-74" transform="translate(214.705078 0)"/>
      <use xlink:href="#TimesNewRomanPSMT-69" transform="translate(242.488281 0)"/>
      <use xlink:href="#TimesNewRomanPSMT-76" transform="translate(270.271484 0)"/>
      <use xlink:href="#TimesNewRomanPSMT-65" transform="translate(320.271484 0)"/>
      <use xlink:href="#TimesNewRomanPSMT-20" transform="translate(364.65625 0)"/>
      <use xlink:href="#TimesNewRomanPSMT-4c" transform="translate(389.65625 0)"/>
      <use xlink:href="#TimesNewRomanPSMT-6f" transform="translate(450.740234 0)"/>
      <use xlink:href="#TimesNewRomanPSMT-73" transform="translate(500.740234 0)"/>
      <use xlink:href="#TimesNewRomanPSMT-73" transform="translate(539.65625 0)"/>
      <use xlink:href="#TimesNewRomanPSMT-20" transform="translate(578.572266 0)"/>
      <use xlink:href="#TimesNewRomanPSMT-4d" transform="translate(603.572266 0)"/>
      <use xlink:href="#TimesNewRomanPSMT-61" transform="translate(692.488281 0)"/>
      <use xlink:href="#TimesNewRomanPSMT-67" transform="translate(736.873047 0)"/>
      <use xlink:href="#TimesNewRomanPSMT-6e" transform="translate(786.873047 0)"/>
      <use xlink:href="#TimesNewRomanPSMT-69" transform="translate(836.873047 0)"/>
      <use xlink:href="#TimesNewRomanPSMT-74" transform="translate(864.65625 0)"/>
      <use xlink:href="#TimesNewRomanPSMT-75" transform="translate(892.439453 0)"/>
      <use xlink:href="#TimesNewRomanPSMT-64" transform="translate(942.439453 0)"/>
      <use xlink:href="#TimesNewRomanPSMT-65" transform="translate(992.439453 0)"/>
      <use xlink:href="#TimesNewRomanPSMT-20" transform="translate(1036.824219 0)"/>
      <use xlink:href="#TimesNewRomanPSMT-28" transform="translate(1061.824219 0)"/>
      <use xlink:href="#TimesNewRomanPSMT-53" transform="translate(1095.125 0)"/>
      <use xlink:href="#TimesNewRomanPSMT-79" transform="translate(1150.740234 0)"/>
      <use xlink:href="#TimesNewRomanPSMT-6d" transform="translate(1200.740234 0)"/>
      <use xlink:href="#TimesNewRomanPSMT-4c" transform="translate(1278.523438 0)"/>
      <use xlink:href="#TimesNewRomanPSMT-6f" transform="translate(1339.607422 0)"/>
      <use xlink:href="#TimesNewRomanPSMT-67" transform="translate(1389.607422 0)"/>
      <use xlink:href="#TimesNewRomanPSMT-20" transform="translate(1439.607422 0)"/>
      <use xlink:href="#TimesNewRomanPSMT-53" transform="translate(1464.607422 0)"/>
      <use xlink:href="#TimesNewRomanPSMT-63" transform="translate(1520.222656 0)"/>
      <use xlink:href="#TimesNewRomanPSMT-61" transform="translate(1564.607422 0)"/>
      <use xlink:href="#TimesNewRomanPSMT-6c" transform="translate(1608.992188 0)"/>
      <use xlink:href="#TimesNewRomanPSMT-65" transform="translate(1636.775391 0)"/>
      <use xlink:href="#TimesNewRomanPSMT-29" transform="translate(1681.160156 0)"/>
     </g>
    </g>
   </g>
   <g id="line2d_45">
    <path d="M 559.360874 53.336364 
L 561.05983 73.02435 
L 562.758785 77.465168 
L 564.45774 81.162362 
L 566.156696 84.240891 
L 567.855651 88.357645 
L 569.554607 93.080139 
L 571.253562 100.325488 
L 574.651473 121.571513 
L 576.350428 125.374029 
L 579.748339 126.681532 
L 581.447294 127.731311 
L 588.243116 129.569216 
L 589.942071 129.362424 
L 591.641027 129.840794 
L 593.339982 130.078718 
L 595.038937 129.979183 
L 596.737893 130.161197 
L 600.135804 130.150254 
L 601.834759 130.44607 
L 605.23267 130.521298 
L 606.931625 130.737717 
L 608.630581 130.729891 
L 610.329536 130.945419 
L 613.727447 130.045699 
L 615.426402 131.286538 
L 617.125358 131.120793 
L 618.824313 131.161828 
L 620.523268 131.494313 
L 622.222224 131.39011 
L 623.921179 130.987312 
L 625.620134 131.55282 
L 627.31909 131.841523 
L 629.018045 131.854086 
L 630.717001 132.045065 
L 632.415956 132.051953 
L 634.114911 132.421992 
L 639.211778 132.772369 
L 640.910733 133.1282 
L 642.609688 132.718056 
L 644.308644 133.026211 
L 646.007599 133.185953 
L 647.706555 132.954799 
L 649.40551 133.089107 
L 651.104465 132.667583 
L 652.803421 133.288499 
L 654.502376 133.507137 
L 656.201332 133.891947 
L 657.900287 133.777795 
L 661.298198 133.923614 
L 662.997153 133.864416 
L 664.696108 134.565434 
L 666.395064 134.209962 
L 668.094019 133.969185 
L 671.49193 134.296624 
L 673.190885 134.588383 
L 674.889841 134.193025 
L 676.588796 134.180831 
L 678.287752 134.765891 
L 679.986707 134.599588 
L 681.685662 134.886816 
L 683.384618 135.059939 
L 686.782529 134.704287 
L 688.481484 134.372184 
L 690.180439 134.567127 
L 691.879395 135.037077 
L 693.57835 135.08311 
L 695.277306 135.35079 
L 696.976261 135.177917 
L 698.675216 135.376253 
L 702.073127 135.059197 
L 703.772083 135.472904 
L 705.471038 135.395898 
L 707.169993 134.629274 
L 708.868949 134.96717 
L 710.567904 135.550126 
L 712.266859 134.822684 
L 713.965815 134.745844 
L 715.66477 135.076576 
L 717.363726 135.1773 
L 719.062681 134.884319 
L 720.761636 135.337906 
L 722.460592 135.513652 
L 724.159547 135.910873 
L 725.858503 135.593696 
L 727.557458 135.721323 
L 732.654324 135.36772 
L 734.35328 135.799302 
L 736.052235 135.425625 
L 737.75119 135.84259 
L 739.450146 136.00653 
L 741.149101 135.969129 
L 742.848057 135.597717 
L 744.547012 135.935819 
L 747.944923 135.933187 
L 749.643878 135.695416 
L 751.342833 135.814664 
L 753.041789 135.69547 
L 754.740744 135.987393 
L 756.4397 135.60958 
L 758.138655 135.610251 
L 763.235521 136.047019 
L 764.934477 135.835689 
L 770.031343 135.906059 
L 771.730298 135.556004 
L 773.429254 136.086493 
L 775.128209 135.963284 
L 776.827164 135.5574 
L 778.52612 135.353981 
L 780.225075 135.565141 
L 781.924031 135.898525 
L 783.622986 135.768504 
L 785.321941 136.340906 
L 787.020897 136.35564 
L 790.418807 135.433885 
L 793.816718 135.231041 
L 795.515674 135.799086 
L 797.214629 136.656334 
L 798.913584 136.310391 
L 800.61254 136.568851 
L 804.010451 135.83843 
L 805.709406 136.021447 
L 809.107317 136.576911 
L 812.505228 135.486086 
L 814.204183 136.270319 
L 817.602094 135.939525 
L 819.301049 136.410485 
L 827.795826 136.007235 
L 829.494781 135.665017 
L 836.290603 136.653485 
L 841.387469 136.643016 
L 843.086425 136.492196 
L 844.78538 136.469751 
L 846.484335 136.713705 
L 848.183291 136.551447 
L 849.882246 136.179585 
L 851.581202 136.500681 
L 854.979112 136.76648 
L 858.377023 136.369868 
L 863.473889 136.683924 
L 865.172845 136.834765 
L 866.8718 136.780821 
L 868.570755 136.339079 
L 870.269711 135.776673 
L 871.968666 136.667522 
L 873.667622 136.430667 
L 875.366577 136.728188 
L 878.764488 136.53779 
L 880.463443 136.508045 
L 882.162399 136.021711 
L 883.861354 136.465873 
L 885.560309 136.469275 
L 888.95822 136.937924 
L 892.356131 136.506776 
L 895.754042 136.271121 
L 897.452997 136.619668 
L 897.452997 136.619668 
" clip-path="url(#p2b6c1f6e21)" style="fill: none; stroke: #1f77b4; stroke-opacity: 0.85; stroke-width: 1.5; stroke-linecap: square"/>
   </g>
   <g id="line2d_46">
    <path d="M 559.360874 237.4745 
L 561.05983 213.109294 
L 562.758785 218.470569 
L 564.45774 226.811913 
L 566.156696 227.352473 
L 567.855651 235.17338 
L 569.554607 240.457543 
L 571.253562 252.359849 
L 572.952517 265.539441 
L 574.651473 261.820532 
L 576.350428 252.693062 
L 578.049384 252.472536 
L 579.748339 253.602099 
L 581.447294 255.179028 
L 583.14625 255.593039 
L 584.845205 255.397646 
L 586.54416 254.415389 
L 588.243116 255.310071 
L 589.942071 257.603229 
L 591.641027 256.328915 
L 593.339982 257.042341 
L 595.038937 256.581771 
L 596.737893 257.393438 
L 598.436848 256.386553 
L 600.135804 256.747498 
L 601.834759 257.678769 
L 603.533714 256.773876 
L 605.23267 257.964094 
L 606.931625 258.184719 
L 608.630581 257.943968 
L 610.329536 258.89991 
L 612.028491 257.964454 
L 613.727447 258.980013 
L 615.426402 260.246299 
L 617.125358 259.486265 
L 618.824313 260.442674 
L 620.523268 259.939967 
L 622.222224 260.816157 
L 623.921179 260.107704 
L 625.620134 260.642041 
L 627.31909 262.068603 
L 629.018045 261.679845 
L 630.717001 261.733775 
L 632.415956 262.558144 
L 634.114911 263.113741 
L 635.813867 263.010403 
L 637.512822 264.001581 
L 639.211778 264.416105 
L 640.910733 265.347006 
L 644.308644 265.426025 
L 646.007599 265.687892 
L 647.706555 265.602823 
L 649.40551 267.619364 
L 651.104465 266.438877 
L 652.803421 266.663722 
L 654.502376 268.165388 
L 656.201332 268.602951 
L 657.900287 268.638454 
L 659.599242 268.796533 
L 661.298198 270.320968 
L 662.997153 269.571088 
L 664.696108 270.889165 
L 666.395064 270.681801 
L 668.094019 269.921979 
L 669.792975 272.322531 
L 671.49193 271.372912 
L 673.190885 272.326305 
L 674.889841 272.252506 
L 676.588796 271.886398 
L 678.287752 272.888648 
L 679.986707 273.140456 
L 683.384618 273.260981 
L 685.083573 274.061847 
L 686.782529 274.390892 
L 688.481484 273.890807 
L 690.180439 274.606307 
L 691.879395 274.494401 
L 693.57835 275.209932 
L 695.277306 274.701432 
L 696.976261 276.01867 
L 698.675216 275.685466 
L 700.374172 275.909498 
L 702.073127 275.528921 
L 703.772083 276.15703 
L 705.471038 276.556118 
L 707.169993 275.797096 
L 710.567904 277.11702 
L 712.266859 276.584646 
L 713.965815 276.967807 
L 717.363726 276.801354 
L 719.062681 277.063238 
L 720.761636 277.556051 
L 722.460592 277.000092 
L 724.159547 278.337149 
L 725.858503 277.573613 
L 729.256413 277.929476 
L 730.955369 277.709773 
L 732.654324 277.886884 
L 734.35328 277.837869 
L 739.450146 278.721572 
L 741.149101 278.466336 
L 742.848057 278.075216 
L 744.547012 278.187448 
L 746.245967 278.500557 
L 747.944923 278.27277 
L 749.643878 278.746674 
L 751.342833 279.633236 
L 753.041789 278.851166 
L 754.740744 278.811725 
L 756.4397 279.057991 
L 758.138655 278.6493 
L 759.83761 279.360535 
L 761.536566 278.935759 
L 763.235521 279.077609 
L 766.633432 278.777426 
L 770.031343 279.187139 
L 771.730298 279.13967 
L 773.429254 278.862229 
L 775.128209 278.703414 
L 776.827164 279.17007 
L 778.52612 278.532698 
L 780.225075 279.302271 
L 783.622986 278.918831 
L 787.020897 279.128991 
L 788.719852 278.988912 
L 790.418807 279.241608 
L 792.117763 278.985033 
L 793.816718 278.893201 
L 797.214629 279.476819 
L 798.913584 279.266095 
L 800.61254 279.273568 
L 804.010451 279.81221 
L 805.709406 279.241606 
L 807.408361 279.375658 
L 812.505228 279.145593 
L 814.204183 280.063636 
L 815.903138 279.925539 
L 817.602094 279.316439 
L 819.301049 279.481549 
L 821.000005 279.339699 
L 822.69896 279.608422 
L 824.397915 279.535388 
L 826.096871 279.244301 
L 827.795826 279.757839 
L 829.494781 279.867989 
L 831.193737 279.123697 
L 836.290603 279.426007 
L 837.989558 279.701051 
L 839.688514 279.707533 
L 841.387469 279.288181 
L 843.086425 279.645965 
L 844.78538 279.628507 
L 846.484335 279.249912 
L 849.882246 279.621648 
L 851.581202 279.299626 
L 853.280157 279.640424 
L 854.979112 279.588744 
L 856.678068 279.789076 
L 858.377023 279.665047 
L 860.075979 279.679107 
L 863.473889 279.348704 
L 865.172845 279.779224 
L 866.8718 279.95886 
L 868.570755 279.601486 
L 873.667622 279.409712 
L 875.366577 279.61466 
L 877.065532 279.44123 
L 878.764488 279.769687 
L 880.463443 279.366378 
L 882.162399 279.173771 
L 883.861354 279.31773 
L 885.560309 279.607201 
L 887.259265 279.371159 
L 888.95822 279.46398 
L 890.657176 279.792697 
L 892.356131 279.508318 
L 895.754042 279.200103 
L 897.452997 279.771429 
L 897.452997 279.771429 
" clip-path="url(#p2b6c1f6e21)" style="fill: none; stroke: #ff7f0e; stroke-opacity: 0.85; stroke-width: 1.5; stroke-linecap: square"/>
   </g>
   <g id="line2d_47">
    <path d="M 559.360874 211.279905 
L 561.05983 222.614984 
L 562.758785 223.479318 
L 564.45774 230.292417 
L 566.156696 232.512012 
L 567.855651 237.650172 
L 569.554607 242.30893 
L 572.952517 255.026629 
L 574.651473 259.18557 
L 576.350428 262.347048 
L 578.049384 262.768267 
L 579.748339 263.520315 
L 581.447294 263.641892 
L 583.14625 263.333414 
L 584.845205 263.381496 
L 588.243116 262.642321 
L 589.942071 262.495235 
L 591.641027 261.939025 
L 593.339982 262.057316 
L 595.038937 261.593747 
L 598.436848 261.122471 
L 600.135804 260.997696 
L 601.834759 260.591032 
L 603.533714 260.510945 
L 605.23267 260.105356 
L 606.931625 259.885286 
L 610.329536 260.244935 
L 612.028491 260.333829 
L 613.727447 260.7125 
L 615.426402 260.317969 
L 617.125358 260.098032 
L 618.824313 260.002724 
L 620.523268 260.167025 
L 622.222224 260.03258 
L 623.921179 260.117138 
L 625.620134 259.801193 
L 627.31909 260.10224 
L 632.415956 260.261582 
L 634.114911 259.910874 
L 637.512822 260.870375 
L 639.211778 260.588597 
L 640.910733 260.797872 
L 642.609688 260.218262 
L 644.308644 260.601411 
L 646.007599 260.067057 
L 647.706555 260.002032 
L 649.40551 260.62943 
L 651.104465 260.838887 
L 652.803421 260.699601 
L 654.502376 260.850622 
L 659.599242 260.476291 
L 661.298198 261.025013 
L 662.997153 260.973664 
L 664.696108 260.627381 
L 666.395064 260.982815 
L 668.094019 260.968538 
L 669.792975 260.799315 
L 671.49193 261.504505 
L 674.889841 261.155869 
L 676.588796 261.239976 
L 678.287752 260.989935 
L 679.986707 261.397901 
L 681.685662 261.482204 
L 683.384618 261.997983 
L 685.083573 261.225344 
L 686.782529 261.675279 
L 688.481484 261.685449 
L 691.879395 262.045804 
L 695.277306 261.654177 
L 696.976261 261.708486 
L 698.675216 262.115878 
L 700.374172 262.011788 
L 703.772083 261.456731 
L 705.471038 262.069609 
L 707.169993 261.888828 
L 708.868949 261.84259 
L 710.567904 262.468257 
L 712.266859 261.640291 
L 713.965815 262.531412 
L 717.363726 261.801821 
L 720.761636 262.635508 
L 722.460592 262.265141 
L 724.159547 262.426126 
L 725.858503 262.169261 
L 727.557458 262.751229 
L 729.256413 262.563775 
L 730.955369 262.773679 
L 732.654324 262.61897 
L 734.35328 263.150866 
L 736.052235 262.731405 
L 737.75119 263.340362 
L 739.450146 263.275953 
L 741.149101 263.601556 
L 742.848057 263.062602 
L 744.547012 262.993407 
L 746.245967 262.812886 
L 747.944923 262.989764 
L 749.643878 263.340915 
L 751.342833 263.402065 
L 753.041789 263.068231 
L 754.740744 263.315316 
L 756.4397 263.331542 
L 758.138655 263.542468 
L 759.83761 263.392591 
L 761.536566 263.559527 
L 764.934477 263.281336 
L 766.633432 263.889369 
L 768.332387 263.841545 
L 770.031343 264.303881 
L 771.730298 263.431833 
L 775.128209 263.89369 
L 776.827164 263.936118 
L 778.52612 263.289264 
L 780.225075 263.985237 
L 783.622986 263.817008 
L 785.321941 264.193979 
L 787.020897 263.86214 
L 790.418807 263.720887 
L 792.117763 263.85809 
L 793.816718 263.590618 
L 795.515674 263.914145 
L 797.214629 265.072488 
L 798.913584 264.05049 
L 800.61254 264.443756 
L 802.311495 264.349607 
L 805.709406 263.830085 
L 809.107317 264.285447 
L 812.505228 263.537891 
L 815.903138 264.439534 
L 817.602094 264.183402 
L 821.000005 264.567217 
L 822.69896 264.184252 
L 827.795826 264.610906 
L 829.494781 264.070263 
L 831.193737 264.457641 
L 832.892692 264.667055 
L 834.591648 264.763728 
L 836.290603 264.549032 
L 839.688514 264.910208 
L 841.387469 265.078483 
L 843.086425 264.417655 
L 844.78538 264.843147 
L 846.484335 265.56007 
L 848.183291 264.920528 
L 849.882246 264.510713 
L 851.581202 265.275485 
L 853.280157 264.747296 
L 854.979112 265.044563 
L 856.678068 265.034265 
L 858.377023 264.490286 
L 860.075979 265.077758 
L 861.774934 264.732267 
L 865.172845 264.922915 
L 866.8718 264.671985 
L 868.570755 264.897739 
L 871.968666 265.149329 
L 873.667622 264.784792 
L 878.764488 265.061969 
L 882.162399 264.51283 
L 883.861354 264.552937 
L 885.560309 265.074829 
L 887.259265 265.156998 
L 888.95822 264.930963 
L 892.356131 264.686573 
L 894.055086 264.765778 
L 895.754042 265.105229 
L 897.452997 265.327245 
L 897.452997 265.327245 
" clip-path="url(#p2b6c1f6e21)" style="fill: none; stroke: #2ca02c; stroke-opacity: 0.85; stroke-width: 1.5; stroke-linecap: square"/>
   </g>
   <g id="line2d_48">
    <path d="M 559.360874 207.908493 
L 561.05983 202.889841 
L 562.758785 227.790569 
L 564.45774 242.693769 
L 566.156696 241.423528 
L 567.855651 242.21118 
L 569.554607 247.74798 
L 571.253562 253.702241 
L 572.952517 253.568521 
L 574.651473 247.78205 
L 576.350428 241.306802 
L 578.049384 239.202455 
L 579.748339 242.3793 
L 581.447294 244.894308 
L 583.14625 247.016863 
L 584.845205 247.471313 
L 586.54416 248.452374 
L 588.243116 247.987362 
L 589.942071 251.060837 
L 591.641027 252.245448 
L 593.339982 251.097268 
L 595.038937 254.869588 
L 596.737893 256.324204 
L 598.436848 251.84365 
L 600.135804 255.206987 
L 601.834759 254.512743 
L 603.533714 256.593558 
L 605.23267 254.658622 
L 606.931625 254.595808 
L 608.630581 252.542951 
L 610.329536 252.485175 
L 612.028491 256.215631 
L 613.727447 255.924397 
L 615.426402 254.165004 
L 617.125358 252.650067 
L 618.824313 253.946704 
L 620.523268 253.9988 
L 622.222224 251.754162 
L 623.921179 255.008933 
L 625.620134 251.613054 
L 627.31909 252.664699 
L 629.018045 251.658435 
L 630.717001 254.360718 
L 632.415956 253.542768 
L 634.114911 249.938745 
L 635.813867 250.659975 
L 637.512822 255.278014 
L 639.211778 253.583304 
L 640.910733 253.338274 
L 642.609688 252.701245 
L 644.308644 250.205938 
L 646.007599 251.542233 
L 647.706555 254.81159 
L 649.40551 253.04351 
L 651.104465 256.194215 
L 652.803421 254.035863 
L 654.502376 253.68306 
L 656.201332 254.030434 
L 657.900287 252.536185 
L 659.599242 252.613004 
L 661.298198 253.307857 
L 662.997153 255.022233 
L 664.696108 250.052493 
L 666.395064 251.732165 
L 668.094019 254.368802 
L 669.792975 252.992354 
L 671.49193 253.101334 
L 673.190885 253.674242 
L 674.889841 254.722002 
L 676.588796 254.118804 
L 678.287752 252.876836 
L 679.986707 252.441403 
L 681.685662 250.434854 
L 683.384618 252.652622 
L 685.083573 251.511493 
L 686.782529 252.013398 
L 688.481484 254.149537 
L 690.180439 252.796308 
L 691.879395 251.237049 
L 693.57835 252.58939 
L 695.277306 251.798901 
L 696.976261 250.650638 
L 698.675216 251.6823 
L 700.374172 251.732187 
L 702.073127 249.494334 
L 703.772083 249.403774 
L 705.471038 250.075304 
L 707.169993 252.206685 
L 708.868949 252.650065 
L 710.567904 250.049696 
L 712.266859 251.163957 
L 713.965815 251.202057 
L 715.66477 252.252798 
L 717.363726 250.37643 
L 719.062681 250.24992 
L 720.761636 252.865369 
L 722.460592 251.126171 
L 724.159547 250.22409 
L 725.858503 251.149273 
L 727.557458 249.361223 
L 729.256413 252.077304 
L 730.955369 250.252784 
L 732.654324 252.069355 
L 734.35328 251.962827 
L 736.052235 251.607387 
L 737.75119 251.90845 
L 739.450146 251.187921 
L 741.149101 251.64606 
L 742.848057 253.057007 
L 744.547012 249.153951 
L 746.245967 251.605398 
L 747.944923 252.66364 
L 749.643878 251.756376 
L 751.342833 251.616243 
L 753.041789 251.219617 
L 754.740744 251.957165 
L 756.4397 250.353503 
L 758.138655 249.737458 
L 759.83761 250.362669 
L 761.536566 251.309795 
L 763.235521 250.438546 
L 764.934477 250.24203 
L 766.633432 252.911097 
L 768.332387 251.624127 
L 770.031343 251.141961 
L 771.730298 252.893854 
L 773.429254 250.94446 
L 775.128209 252.242314 
L 776.827164 250.628126 
L 778.52612 251.878608 
L 780.225075 252.177734 
L 781.924031 254.047216 
L 783.622986 255.135243 
L 785.321941 252.490048 
L 787.020897 254.708914 
L 788.719852 252.047084 
L 790.418807 253.305476 
L 792.117763 253.766825 
L 793.816718 251.602807 
L 795.515674 254.382742 
L 797.214629 252.252087 
L 798.913584 250.711509 
L 800.61254 252.240594 
L 802.311495 251.019141 
L 804.010451 250.368382 
L 805.709406 251.696435 
L 807.408361 249.77245 
L 809.107317 250.164069 
L 810.806272 251.467208 
L 812.505228 253.413249 
L 814.204183 250.418197 
L 815.903138 252.855035 
L 817.602094 252.578887 
L 819.301049 251.695931 
L 821.000005 250.522506 
L 822.69896 253.105279 
L 824.397915 248.953267 
L 826.096871 253.741943 
L 827.795826 251.179717 
L 829.494781 250.547649 
L 831.193737 251.335613 
L 832.892692 251.521157 
L 834.591648 250.878083 
L 836.290603 252.568466 
L 837.989558 250.983187 
L 839.688514 253.091544 
L 841.387469 249.972769 
L 843.086425 252.606474 
L 844.78538 249.947111 
L 846.484335 250.302659 
L 848.183291 251.554527 
L 849.882246 250.955195 
L 851.581202 251.902512 
L 853.280157 250.307253 
L 854.979112 249.937254 
L 856.678068 251.01386 
L 858.377023 252.575318 
L 860.075979 249.885815 
L 861.774934 250.341145 
L 863.473889 251.15748 
L 865.172845 249.570105 
L 866.8718 249.421069 
L 868.570755 250.541242 
L 870.269711 251.337946 
L 871.968666 251.886612 
L 873.667622 251.156728 
L 875.366577 251.02024 
L 877.065532 252.214524 
L 878.764488 250.872416 
L 880.463443 251.219278 
L 882.162399 250.136341 
L 883.861354 250.432482 
L 885.560309 250.22722 
L 887.259265 251.942037 
L 888.95822 250.134939 
L 890.657176 250.57357 
L 892.356131 248.937084 
L 894.055086 250.635381 
L 895.754042 250.379959 
L 897.452997 249.661018 
L 897.452997 249.661018 
" clip-path="url(#p2b6c1f6e21)" style="fill: none; stroke: #d62728; stroke-opacity: 0.85; stroke-width: 1.5; stroke-linecap: square"/>
   </g>
   <g id="patch_9">
    <path d="M 542.456268 291.4 
L 542.456268 42 
" style="fill: none; stroke: #000000; stroke-linejoin: miter; stroke-linecap: square"/>
   </g>
   <g id="patch_10">
    <path d="M 914.357603 291.4 
L 914.357603 42 
" style="fill: none; stroke: #000000; stroke-linejoin: miter; stroke-linecap: square"/>
   </g>
   <g id="patch_11">
    <path d="M 542.456268 291.4 
L 914.357603 291.4 
" style="fill: none; stroke: #000000; stroke-linejoin: miter; stroke-linecap: square"/>
   </g>
   <g id="patch_12">
    <path d="M 542.456268 42 
L 914.357603 42 
" style="fill: none; stroke: #000000; stroke-linejoin: miter; stroke-linecap: square"/>
   </g>
   <g id="text_28">
    <!-- Effective Loss Contributions (Weight $\times$ Loss) -->
    <g transform="translate(543.906936 36) scale(0.2 -0.2)">
     <defs>
      <path id="TimesNewRomanPSMT-43" d="M 3853 4334 
L 3950 2894 
L 3853 2894 
Q 3659 3541 3300 3825 
Q 2941 4109 2438 4109 
Q 2016 4109 1675 3895 
Q 1334 3681 1139 3212 
Q 944 2744 944 2047 
Q 944 1472 1128 1050 
Q 1313 628 1683 403 
Q 2053 178 2528 178 
Q 2941 178 3256 354 
Q 3572 531 3950 1056 
L 4047 994 
Q 3728 428 3303 165 
Q 2878 -97 2294 -97 
Q 1241 -97 663 684 
Q 231 1266 231 2053 
Q 231 2688 515 3219 
Q 800 3750 1298 4042 
Q 1797 4334 2388 4334 
Q 2847 4334 3294 4109 
Q 3425 4041 3481 4041 
Q 3566 4041 3628 4100 
Q 3709 4184 3744 4334 
L 3853 4334 
z
" transform="scale(0.015625)"/>
      <path id="TimesNewRomanPSMT-72" d="M 1038 2947 
L 1038 2303 
Q 1397 2947 1775 2947 
Q 1947 2947 2059 2842 
Q 2172 2738 2172 2600 
Q 2172 2478 2090 2393 
Q 2009 2309 1897 2309 
Q 1788 2309 1652 2417 
Q 1516 2525 1450 2525 
Q 1394 2525 1328 2463 
Q 1188 2334 1038 2041 
L 1038 669 
Q 1038 431 1097 309 
Q 1138 225 1241 169 
Q 1344 113 1538 113 
L 1538 0 
L 72 0 
L 72 113 
Q 291 113 397 181 
Q 475 231 506 341 
Q 522 394 522 644 
L 522 1753 
Q 522 2253 501 2348 
Q 481 2444 426 2487 
Q 372 2531 291 2531 
Q 194 2531 72 2484 
L 41 2597 
L 906 2947 
L 1038 2947 
z
" transform="scale(0.015625)"/>
      <path id="TimesNewRomanPSMT-62" d="M 984 2369 
Q 1400 2947 1881 2947 
Q 2322 2947 2650 2570 
Q 2978 2194 2978 1541 
Q 2978 778 2472 313 
Q 2038 -88 1503 -88 
Q 1253 -88 995 3 
Q 738 94 469 275 
L 469 3241 
Q 469 3728 445 3840 
Q 422 3953 372 3993 
Q 322 4034 247 4034 
Q 159 4034 28 3984 
L -16 4094 
L 844 4444 
L 984 4444 
L 984 2369 
z
M 984 2169 
L 984 456 
Q 1144 300 1314 220 
Q 1484 141 1663 141 
Q 1947 141 2192 453 
Q 2438 766 2438 1363 
Q 2438 1913 2192 2208 
Q 1947 2503 1634 2503 
Q 1469 2503 1303 2419 
Q 1178 2356 984 2169 
z
" transform="scale(0.015625)"/>
      <path id="STIXGeneral-Regular-d7" d="M 3821 141 
L 3526 -160 
L 2048 1312 
L 570 -160 
L 275 134 
L 1747 1613 
L 275 3091 
L 576 3386 
L 2048 1914 
L 3526 3386 
L 3821 3098 
L 2349 1613 
L 3821 141 
z
" transform="scale(0.015625)"/>
     </defs>
     <use xlink:href="#TimesNewRomanPSMT-45" transform="translate(0 0.5625)"/>
     <use xlink:href="#TimesNewRomanPSMT-66" transform="translate(61.083984 0.5625)"/>
     <use xlink:href="#TimesNewRomanPSMT-66" transform="translate(94.384766 0.5625)"/>
     <use xlink:href="#TimesNewRomanPSMT-65" transform="translate(127.685547 0.5625)"/>
     <use xlink:href="#TimesNewRomanPSMT-63" transform="translate(172.070312 0.5625)"/>
     <use xlink:href="#TimesNewRomanPSMT-74" transform="translate(216.455078 0.5625)"/>
     <use xlink:href="#TimesNewRomanPSMT-69" transform="translate(244.238281 0.5625)"/>
     <use xlink:href="#TimesNewRomanPSMT-76" transform="translate(272.021484 0.5625)"/>
     <use xlink:href="#TimesNewRomanPSMT-65" transform="translate(322.021484 0.5625)"/>
     <use xlink:href="#TimesNewRomanPSMT-20" transform="translate(366.40625 0.5625)"/>
     <use xlink:href="#TimesNewRomanPSMT-4c" transform="translate(391.40625 0.5625)"/>
     <use xlink:href="#TimesNewRomanPSMT-6f" transform="translate(452.490234 0.5625)"/>
     <use xlink:href="#TimesNewRomanPSMT-73" transform="translate(502.490234 0.5625)"/>
     <use xlink:href="#TimesNewRomanPSMT-73" transform="translate(541.40625 0.5625)"/>
     <use xlink:href="#TimesNewRomanPSMT-20" transform="translate(580.322266 0.5625)"/>
     <use xlink:href="#TimesNewRomanPSMT-43" transform="translate(605.322266 0.5625)"/>
     <use xlink:href="#TimesNewRomanPSMT-6f" transform="translate(672.021484 0.5625)"/>
     <use xlink:href="#TimesNewRomanPSMT-6e" transform="translate(722.021484 0.5625)"/>
     <use xlink:href="#TimesNewRomanPSMT-74" transform="translate(772.021484 0.5625)"/>
     <use xlink:href="#TimesNewRomanPSMT-72" transform="translate(799.804688 0.5625)"/>
     <use xlink:href="#TimesNewRomanPSMT-69" transform="translate(833.105469 0.5625)"/>
     <use xlink:href="#TimesNewRomanPSMT-62" transform="translate(860.888672 0.5625)"/>
     <use xlink:href="#TimesNewRomanPSMT-75" transform="translate(910.888672 0.5625)"/>
     <use xlink:href="#TimesNewRomanPSMT-74" transform="translate(960.888672 0.5625)"/>
     <use xlink:href="#TimesNewRomanPSMT-69" transform="translate(988.671875 0.5625)"/>
     <use xlink:href="#TimesNewRomanPSMT-6f" transform="translate(1016.455078 0.5625)"/>
     <use xlink:href="#TimesNewRomanPSMT-6e" transform="translate(1066.455078 0.5625)"/>
     <use xlink:href="#TimesNewRomanPSMT-73" transform="translate(1116.455078 0.5625)"/>
     <use xlink:href="#TimesNewRomanPSMT-20" transform="translate(1155.371094 0.5625)"/>
     <use xlink:href="#TimesNewRomanPSMT-28" transform="translate(1180.371094 0.5625)"/>
     <use xlink:href="#TimesNewRomanPSMT-57" transform="translate(1213.671875 0.5625)"/>
     <use xlink:href="#TimesNewRomanPSMT-65" transform="translate(1308.056641 0.5625)"/>
     <use xlink:href="#TimesNewRomanPSMT-69" transform="translate(1352.441406 0.5625)"/>
     <use xlink:href="#TimesNewRomanPSMT-67" transform="translate(1380.224609 0.5625)"/>
     <use xlink:href="#TimesNewRomanPSMT-68" transform="translate(1430.224609 0.5625)"/>
     <use xlink:href="#TimesNewRomanPSMT-74" transform="translate(1480.224609 0.5625)"/>
     <use xlink:href="#TimesNewRomanPSMT-20" transform="translate(1508.007812 0.5625)"/>
     <use xlink:href="#STIXGeneral-Regular-d7" transform="translate(1533.007812 0.5625)"/>
     <use xlink:href="#TimesNewRomanPSMT-20" transform="translate(1597.007797 0.5625)"/>
     <use xlink:href="#TimesNewRomanPSMT-4c" transform="translate(1622.007797 0.5625)"/>
     <use xlink:href="#TimesNewRomanPSMT-6f" transform="translate(1683.091782 0.5625)"/>
     <use xlink:href="#TimesNewRomanPSMT-73" transform="translate(1733.091782 0.5625)"/>
     <use xlink:href="#TimesNewRomanPSMT-73" transform="translate(1772.007797 0.5625)"/>
     <use xlink:href="#TimesNewRomanPSMT-29" transform="translate(1810.923813 0.5625)"/>
    </g>
   </g>
   <g id="legend_2">
    <g id="patch_13">
     <path d="M 804.467603 100.32 
L 908.057603 100.32 
Q 909.857603 100.32 909.857603 98.52 
L 909.857603 48.3 
Q 909.857603 46.5 908.057603 46.5 
L 804.467603 46.5 
Q 802.667603 46.5 802.667603 48.3 
L 802.667603 98.52 
Q 802.667603 100.32 804.467603 100.32 
z
" style="fill: #ffffff; opacity: 0.8; stroke: #cccccc; stroke-linejoin: miter"/>
    </g>
    <g id="line2d_49">
     <path d="M 806.267603 53.25 
L 815.267603 53.25 
L 824.267603 53.25 
" style="fill: none; stroke: #1f77b4; stroke-opacity: 0.85; stroke-width: 1.5; stroke-linecap: square"/>
    </g>
    <g id="text_29">
     <!-- w_mse $\times$ loss_mse -->
     <g transform="translate(831.467603 56.4) scale(0.09 -0.09)">
      <use xlink:href="#TimesNewRomanPSMT-77" transform="translate(0 0.5625)"/>
      <use xlink:href="#TimesNewRomanPSMT-5f" transform="translate(72.216797 0.5625)"/>
      <use xlink:href="#TimesNewRomanPSMT-6d" transform="translate(122.216797 0.5625)"/>
      <use xlink:href="#TimesNewRomanPSMT-73" transform="translate(200 0.5625)"/>
      <use xlink:href="#TimesNewRomanPSMT-65" transform="translate(238.916016 0.5625)"/>
      <use xlink:href="#TimesNewRomanPSMT-20" transform="translate(283.300781 0.5625)"/>
      <use xlink:href="#STIXGeneral-Regular-d7" transform="translate(308.300781 0.5625)"/>
      <use xlink:href="#TimesNewRomanPSMT-20" transform="translate(372.300766 0.5625)"/>
      <use xlink:href="#TimesNewRomanPSMT-6c" transform="translate(397.300766 0.5625)"/>
      <use xlink:href="#TimesNewRomanPSMT-6f" transform="translate(425.083969 0.5625)"/>
      <use xlink:href="#TimesNewRomanPSMT-73" transform="translate(475.083969 0.5625)"/>
      <use xlink:href="#TimesNewRomanPSMT-73" transform="translate(513.999985 0.5625)"/>
      <use xlink:href="#TimesNewRomanPSMT-5f" transform="translate(552.916 0.5625)"/>
      <use xlink:href="#TimesNewRomanPSMT-6d" transform="translate(602.916 0.5625)"/>
      <use xlink:href="#TimesNewRomanPSMT-73" transform="translate(680.699203 0.5625)"/>
      <use xlink:href="#TimesNewRomanPSMT-65" transform="translate(719.615219 0.5625)"/>
     </g>
    </g>
    <g id="line2d_50">
     <path d="M 806.267603 66.03 
L 815.267603 66.03 
L 824.267603 66.03 
" style="fill: none; stroke: #ff7f0e; stroke-opacity: 0.85; stroke-width: 1.5; stroke-linecap: square"/>
    </g>
    <g id="text_30">
     <!-- w_pde1 $\times$ loss_pde1 -->
     <g transform="translate(831.467603 69.18) scale(0.09 -0.09)">
      <use xlink:href="#TimesNewRomanPSMT-77" transform="translate(0 0.5625)"/>
      <use xlink:href="#TimesNewRomanPSMT-5f" transform="translate(72.216797 0.5625)"/>
      <use xlink:href="#TimesNewRomanPSMT-70" transform="translate(122.216797 0.5625)"/>
      <use xlink:href="#TimesNewRomanPSMT-64" transform="translate(172.216797 0.5625)"/>
      <use xlink:href="#TimesNewRomanPSMT-65" transform="translate(222.216797 0.5625)"/>
      <use xlink:href="#TimesNewRomanPSMT-31" transform="translate(266.601562 0.5625)"/>
      <use xlink:href="#TimesNewRomanPSMT-20" transform="translate(316.601562 0.5625)"/>
      <use xlink:href="#STIXGeneral-Regular-d7" transform="translate(341.601562 0.5625)"/>
      <use xlink:href="#TimesNewRomanPSMT-20" transform="translate(405.601547 0.5625)"/>
      <use xlink:href="#TimesNewRomanPSMT-6c" transform="translate(430.601547 0.5625)"/>
      <use xlink:href="#TimesNewRomanPSMT-6f" transform="translate(458.38475 0.5625)"/>
      <use xlink:href="#TimesNewRomanPSMT-73" transform="translate(508.38475 0.5625)"/>
      <use xlink:href="#TimesNewRomanPSMT-73" transform="translate(547.300766 0.5625)"/>
      <use xlink:href="#TimesNewRomanPSMT-5f" transform="translate(586.216782 0.5625)"/>
      <use xlink:href="#TimesNewRomanPSMT-70" transform="translate(636.216782 0.5625)"/>
      <use xlink:href="#TimesNewRomanPSMT-64" transform="translate(686.216782 0.5625)"/>
      <use xlink:href="#TimesNewRomanPSMT-65" transform="translate(736.216782 0.5625)"/>
      <use xlink:href="#TimesNewRomanPSMT-31" transform="translate(780.601547 0.5625)"/>
     </g>
    </g>
    <g id="line2d_51">
     <path d="M 806.267603 78.81 
L 815.267603 78.81 
L 824.267603 78.81 
" style="fill: none; stroke: #2ca02c; stroke-opacity: 0.85; stroke-width: 1.5; stroke-linecap: square"/>
    </g>
    <g id="text_31">
     <!-- w_pde2 $\times$ loss_pde2 -->
     <g transform="translate(831.467603 81.96) scale(0.09 -0.09)">
      <use xlink:href="#TimesNewRomanPSMT-77" transform="translate(0 0.5625)"/>
      <use xlink:href="#TimesNewRomanPSMT-5f" transform="translate(72.216797 0.5625)"/>
      <use xlink:href="#TimesNewRomanPSMT-70" transform="translate(122.216797 0.5625)"/>
      <use xlink:href="#TimesNewRomanPSMT-64" transform="translate(172.216797 0.5625)"/>
      <use xlink:href="#TimesNewRomanPSMT-65" transform="translate(222.216797 0.5625)"/>
      <use xlink:href="#TimesNewRomanPSMT-32" transform="translate(266.601562 0.5625)"/>
      <use xlink:href="#TimesNewRomanPSMT-20" transform="translate(316.601562 0.5625)"/>
      <use xlink:href="#STIXGeneral-Regular-d7" transform="translate(341.601562 0.5625)"/>
      <use xlink:href="#TimesNewRomanPSMT-20" transform="translate(405.601547 0.5625)"/>
      <use xlink:href="#TimesNewRomanPSMT-6c" transform="translate(430.601547 0.5625)"/>
      <use xlink:href="#TimesNewRomanPSMT-6f" transform="translate(458.38475 0.5625)"/>
      <use xlink:href="#TimesNewRomanPSMT-73" transform="translate(508.38475 0.5625)"/>
      <use xlink:href="#TimesNewRomanPSMT-73" transform="translate(547.300766 0.5625)"/>
      <use xlink:href="#TimesNewRomanPSMT-5f" transform="translate(586.216782 0.5625)"/>
      <use xlink:href="#TimesNewRomanPSMT-70" transform="translate(636.216782 0.5625)"/>
      <use xlink:href="#TimesNewRomanPSMT-64" transform="translate(686.216782 0.5625)"/>
      <use xlink:href="#TimesNewRomanPSMT-65" transform="translate(736.216782 0.5625)"/>
      <use xlink:href="#TimesNewRomanPSMT-32" transform="translate(780.601547 0.5625)"/>
     </g>
    </g>
    <g id="line2d_52">
     <path d="M 806.267603 91.59 
L 815.267603 91.59 
L 824.267603 91.59 
" style="fill: none; stroke: #d62728; stroke-opacity: 0.85; stroke-width: 1.5; stroke-linecap: square"/>
    </g>
    <g id="text_32">
     <!-- w_sym $\times$ loss_sym -->
     <g transform="translate(831.467603 94.74) scale(0.09 -0.09)">
      <use xlink:href="#TimesNewRomanPSMT-77" transform="translate(0 0.5625)"/>
      <use xlink:href="#TimesNewRomanPSMT-5f" transform="translate(72.216797 0.5625)"/>
      <use xlink:href="#TimesNewRomanPSMT-73" transform="translate(122.216797 0.5625)"/>
      <use xlink:href="#TimesNewRomanPSMT-79" transform="translate(161.132812 0.5625)"/>
      <use xlink:href="#TimesNewRomanPSMT-6d" transform="translate(211.132812 0.5625)"/>
      <use xlink:href="#TimesNewRomanPSMT-20" transform="translate(288.916016 0.5625)"/>
      <use xlink:href="#STIXGeneral-Regular-d7" transform="translate(313.916016 0.5625)"/>
      <use xlink:href="#TimesNewRomanPSMT-20" transform="translate(377.916 0.5625)"/>
      <use xlink:href="#TimesNewRomanPSMT-6c" transform="translate(402.916 0.5625)"/>
      <use xlink:href="#TimesNewRomanPSMT-6f" transform="translate(430.699203 0.5625)"/>
      <use xlink:href="#TimesNewRomanPSMT-73" transform="translate(480.699203 0.5625)"/>
      <use xlink:href="#TimesNewRomanPSMT-73" transform="translate(519.615219 0.5625)"/>
      <use xlink:href="#TimesNewRomanPSMT-5f" transform="translate(558.531235 0.5625)"/>
      <use xlink:href="#TimesNewRomanPSMT-73" transform="translate(608.531235 0.5625)"/>
      <use xlink:href="#TimesNewRomanPSMT-79" transform="translate(647.44725 0.5625)"/>
      <use xlink:href="#TimesNewRomanPSMT-6d" transform="translate(697.44725 0.5625)"/>
     </g>
    </g>
   </g>
  </g>
 </g>
 <defs>
  <clipPath id="p8cfd935f33">
   <rect x="84.641268" y="42" width="371.901335" height="249.4"/>
  </clipPath>
  <clipPath id="p2b6c1f6e21">
   <rect x="542.456268" y="42" width="371.901335" height="249.4"/>
  </clipPath>
 </defs>
</svg>
