<?xml version="1.0" encoding="utf-8" standalone="no"?>
<!DOCTYPE svg PUBLIC "-//W3C//DTD SVG 1.1//EN"
  "http://www.w3.org/Graphics/SVG/1.1/DTD/svg11.dtd">
<svg xmlns:xlink="http://www.w3.org/1999/xlink" width="504pt" height="360pt" viewBox="0 0 504 360" xmlns="http://www.w3.org/2000/svg" version="1.1">
 <metadata>
  <rdf:RDF xmlns:dc="http://purl.org/dc/elements/1.1/" xmlns:cc="http://creativecommons.org/ns#" xmlns:rdf="http://www.w3.org/1999/02/22-rdf-syntax-ns#">
   <cc:Work>
    <dc:type rdf:resource="http://purl.org/dc/dcmitype/StillImage"/>
    <dc:date>2026-04-12T01:38:28.657981</dc:date>
    <dc:format>image/svg+xml</dc:format>
    <dc:creator>
     <cc:Agent>
      <dc:title>Matplotlib v3.10.0, https://matplotlib.org/</dc:title>
     </cc:Agent>
    </dc:creator>
   </cc:Work>
  </rdf:RDF>
 </metadata>
 <defs>
  <style type="text/css">*{stroke-linejoin: round; stroke-linecap: butt}</style>
 </defs>
 <g id="figure_1">
  <g id="patch_1">
   <path d="M 0 360 
L 504 360 
L 504 0 
L 0 0 
z
" style="fill: #ffffff"/>
  </g>
  <g id="axes_1">
   <g id="patch_2">
    <path d="M 29.11 156.153901 
L 457.691414 156.153901 
L 457.691414 23.292 
L 29.11 23.292 
z
" style="fill: #ffffff"/>
   </g>
   <g id="line2d_1">
    <path d="M 29.11 89.722951 
L 457.691414 89.722951 
" clip-path="url(#p810ead709c)" style="fill: none; stroke: #808080; stroke-width: 1.2; stroke-linecap: square"/>
   </g>
   <g id="matplotlib.axis_1">
    <g id="xtick_1">
     <g id="line2d_2">
      <path d="M 29.11 156.153901 
L 29.11 23.292 
" clip-path="url(#p810ead709c)" style="fill: none; stroke: #b0b0b0; stroke-width: 0.8; stroke-linecap: square"/>
     </g>
     <g id="line2d_3">
      <defs>
       <path id="mb18bf2a4f8" d="M 0 0 
L 0 3.5 
" style="stroke: #000000; stroke-width: 0.8"/>
      </defs>
      <g>
       <use xlink:href="#mb18bf2a4f8" x="29.11" y="156.153901" style="stroke: #000000; stroke-width: 0.8"/>
      </g>
     </g>
    </g>
    <g id="xtick_2">
     <g id="line2d_4">
      <path d="M 114.826283 156.153901 
L 114.826283 23.292 
" clip-path="url(#p810ead709c)" style="fill: none; stroke: #b0b0b0; stroke-width: 0.8; stroke-linecap: square"/>
     </g>
     <g id="line2d_5">
      <g>
       <use xlink:href="#mb18bf2a4f8" x="114.826283" y="156.153901" style="stroke: #000000; stroke-width: 0.8"/>
      </g>
     </g>
    </g>
    <g id="xtick_3">
     <g id="line2d_6">
      <path d="M 200.542566 156.153901 
L 200.542566 23.292 
" clip-path="url(#p810ead709c)" style="fill: none; stroke: #b0b0b0; stroke-width: 0.8; stroke-linecap: square"/>
     </g>
     <g id="line2d_7">
      <g>
       <use xlink:href="#mb18bf2a4f8" x="200.542566" y="156.153901" style="stroke: #000000; stroke-width: 0.8"/>
      </g>
     </g>
    </g>
    <g id="xtick_4">
     <g id="line2d_8">
      <path d="M 286.258848 156.153901 
L 286.258848 23.292 
" clip-path="url(#p810ead709c)" style="fill: none; stroke: #b0b0b0; stroke-width: 0.8; stroke-linecap: square"/>
     </g>
     <g id="line2d_9">
      <g>
       <use xlink:href="#mb18bf2a4f8" x="286.258848" y="156.153901" style="stroke: #000000; stroke-width: 0.8"/>
      </g>
     </g>
    </g>
    <g id="xtick_5">
     <g id="line2d_10">
      <path d="M 371.975131 156.153901 
L 371.975131 23.292 
" clip-path="url(#p810ead709c)" style="fill: none; stroke: #b0b0b0; stroke-width: 0.8; stroke-linecap: square"/>
     </g>
     <g id="line2d_11">
      <g>
       <use xlink:href="#mb18bf2a4f8" x="371.975131" y="156.153901" style="stroke: #000000; stroke-width: 0.8"/>
      </g>
     </g>
    </g>
    <g id="xtick_6">
     <g id="line2d_12">
      <path d="M 457.691414 156.153901 
L 457.691414 23.292 
" clip-path="url(#p810ead709c)" style="fill: none; stroke: #b0b0b0; stroke-width: 0.8; stroke-linecap: square"/>
     </g>
     <g id="line2d_13">
      <g>
       <use xlink:href="#mb18bf2a4f8" x="457.691414" y="156.153901" style="stroke: #000000; stroke-width: 0.8"/>
      </g>
     </g>
    </g>
   </g>
   <g id="matplotlib.axis_2">
    <g id="ytick_1">
     <g id="line2d_14">
      <path d="M 29.11 146.663766 
L 457.691414 146.663766 
" clip-path="url(#p810ead709c)" style="fill: none; stroke: #b0b0b0; stroke-width: 0.8; stroke-linecap: square"/>
     </g>
     <g id="line2d_15">
      <defs>
       <path id="m99c0c03d38" d="M 0 0 
L -3.5 0 
" style="stroke: #000000; stroke-width: 0.8"/>
      </defs>
      <g>
       <use xlink:href="#m99c0c03d38" x="29.11" y="146.663766" style="stroke: #000000; stroke-width: 0.8"/>
      </g>
     </g>
    </g>
    <g id="ytick_2">
     <g id="line2d_16">
      <path d="M 29.11 127.683494 
L 457.691414 127.683494 
" clip-path="url(#p810ead709c)" style="fill: none; stroke: #b0b0b0; stroke-width: 0.8; stroke-linecap: square"/>
     </g>
     <g id="line2d_17">
      <g>
       <use xlink:href="#m99c0c03d38" x="29.11" y="127.683494" style="stroke: #000000; stroke-width: 0.8"/>
      </g>
     </g>
    </g>
    <g id="ytick_3">
     <g id="line2d_18">
      <path d="M 29.11 108.703222 
L 457.691414 108.703222 
" clip-path="url(#p810ead709c)" style="fill: none; stroke: #b0b0b0; stroke-width: 0.8; stroke-linecap: square"/>
     </g>
     <g id="line2d_19">
      <g>
       <use xlink:href="#m99c0c03d38" x="29.11" y="108.703222" style="stroke: #000000; stroke-width: 0.8"/>
      </g>
     </g>
    </g>
    <g id="ytick_4">
     <g id="line2d_20">
      <path d="M 29.11 89.722951 
L 457.691414 89.722951 
" clip-path="url(#p810ead709c)" style="fill: none; stroke: #b0b0b0; stroke-width: 0.8; stroke-linecap: square"/>
     </g>
     <g id="line2d_21">
      <g>
       <use xlink:href="#m99c0c03d38" x="29.11" y="89.722951" style="stroke: #000000; stroke-width: 0.8"/>
      </g>
     </g>
     <g id="text_1">
      <!-- 0 -->
      <g transform="translate(15.11 94.583576) scale(0.14 -0.14)">
       <defs>
        <path id="TimesNewRomanPSMT-30" d="M 231 2094 
Q 231 2819 450 3342 
Q 669 3866 1031 4122 
Q 1313 4325 1613 4325 
Q 2100 4325 2488 3828 
Q 2972 3213 2972 2159 
Q 2972 1422 2759 906 
Q 2547 391 2217 158 
Q 1888 -75 1581 -75 
Q 975 -75 572 641 
Q 231 1244 231 2094 
z
M 844 2016 
Q 844 1141 1059 588 
Q 1238 122 1591 122 
Q 1759 122 1940 273 
Q 2122 425 2216 781 
Q 2359 1319 2359 2297 
Q 2359 3022 2209 3506 
Q 2097 3866 1919 4016 
Q 1791 4119 1609 4119 
Q 1397 4119 1231 3928 
Q 1006 3669 925 3112 
Q 844 2556 844 2016 
z
" transform="scale(0.015625)"/>
       </defs>
       <use xlink:href="#TimesNewRomanPSMT-30"/>
      </g>
     </g>
    </g>
    <g id="ytick_5">
     <g id="line2d_22">
      <path d="M 29.11 70.742679 
L 457.691414 70.742679 
" clip-path="url(#p810ead709c)" style="fill: none; stroke: #b0b0b0; stroke-width: 0.8; stroke-linecap: square"/>
     </g>
     <g id="line2d_23">
      <g>
       <use xlink:href="#m99c0c03d38" x="29.11" y="70.742679" style="stroke: #000000; stroke-width: 0.8"/>
      </g>
     </g>
    </g>
    <g id="ytick_6">
     <g id="line2d_24">
      <path d="M 29.11 51.762407 
L 457.691414 51.762407 
" clip-path="url(#p810ead709c)" style="fill: none; stroke: #b0b0b0; stroke-width: 0.8; stroke-linecap: square"/>
     </g>
     <g id="line2d_25">
      <g>
       <use xlink:href="#m99c0c03d38" x="29.11" y="51.762407" style="stroke: #000000; stroke-width: 0.8"/>
      </g>
     </g>
    </g>
    <g id="ytick_7">
     <g id="line2d_26">
      <path d="M 29.11 32.782136 
L 457.691414 32.782136 
" clip-path="url(#p810ead709c)" style="fill: none; stroke: #b0b0b0; stroke-width: 0.8; stroke-linecap: square"/>
     </g>
     <g id="line2d_27">
      <g>
       <use xlink:href="#m99c0c03d38" x="29.11" y="32.782136" style="stroke: #000000; stroke-width: 0.8"/>
      </g>
     </g>
    </g>
   </g>
   <g id="line2d_28">
    <path d="M 29.11 89.722951 
L 457.691414 89.722951 
L 457.691414 89.722951 
" clip-path="url(#p810ead709c)" style="fill: none; stroke: #0d8ec5; stroke-width: 1.8; stroke-linecap: square"/>
   </g>
   <g id="patch_3">
    <path d="M 29.11 156.153901 
L 29.11 23.292 
" style="fill: none; stroke: #a0a0a0; stroke-width: 0.8; stroke-linejoin: miter; stroke-linecap: square"/>
   </g>
   <g id="patch_4">
    <path d="M 29.11 156.153901 
L 457.691414 156.153901 
" style="fill: none; stroke: #a0a0a0; stroke-width: 0.8; stroke-linejoin: miter; stroke-linecap: square"/>
   </g>
   <g id="line2d_29">
    <path d="M 29.11 42.272272 
L 81.396933 42.272272 
L 81.825514 137.17363 
L 177.827751 137.17363 
L 178.256332 42.272272 
L 273.829987 42.272272 
L 274.258569 137.17363 
L 370.260806 137.17363 
L 370.689387 42.272272 
L 457.691414 42.272272 
L 457.691414 42.272272 
" clip-path="url(#p810ead709c)" style="fill: none; stroke: #ff7f0e; stroke-width: 1.8; stroke-linecap: square"/>
   </g>
   <g id="patch_5">
    <path d="M 57.364825 34.297119 
Q 44.201429 38.012594 32.329225 41.363619 
" style="fill: none; stroke: #ff7f0e; stroke-width: 1.2; stroke-linecap: round"/>
    <path d="M 39.357833 42.704767 
L 32.329225 41.363619 
L 37.619308 36.545422 
" style="fill: none; stroke: #ff7f0e; stroke-width: 1.2; stroke-linecap: round"/>
   </g>
   <g id="text_2">
    <!-- $V_{d,ref}$ [52 V/div.] -->
    <g style="fill: #ff7f0e" transform="translate(39.11 27.272272) scale(0.16 -0.16)">
     <defs>
      <path id="STIXGeneral-Italic-56" d="M 4403 4179 
L 4403 4077 
Q 4198 4070 4045 3821 
L 1658 -115 
L 1536 -115 
L 1011 3104 
Q 902 3776 828 3910 
Q 755 4045 486 4077 
L 486 4179 
L 2022 4179 
L 2022 4077 
Q 1722 4045 1629 3981 
Q 1536 3917 1536 3750 
Q 1536 3686 1542 3654 
L 1958 819 
L 3302 3123 
Q 3616 3661 3616 3859 
Q 3616 4032 3219 4077 
L 3219 4179 
L 4403 4179 
z
" transform="scale(0.015625)"/>
      <path id="STIXGeneral-Italic-64" d="M 3334 4371 
L 3373 4333 
L 3123 3360 
L 2739 1958 
Q 2323 429 2323 384 
Q 2323 256 2438 256 
Q 2522 256 2614 336 
Q 2707 416 2963 710 
L 3040 646 
Q 2547 -83 2099 -83 
Q 1978 -83 1907 -6 
Q 1837 70 1837 205 
Q 1837 397 1920 774 
Q 1645 307 1379 118 
Q 1114 -70 781 -70 
Q 461 -70 278 125 
Q 96 320 96 678 
Q 96 1440 713 2131 
Q 1331 2822 1965 2822 
Q 2163 2822 2256 2732 
Q 2349 2643 2381 2451 
L 2387 2451 
L 2675 3494 
Q 2765 3808 2765 3949 
Q 2765 4051 2694 4076 
Q 2624 4102 2355 4115 
L 2355 4224 
Q 2848 4269 3334 4371 
z
M 2278 2310 
Q 2278 2477 2185 2576 
Q 2093 2675 1978 2675 
Q 1677 2675 1395 2381 
Q 1075 2042 864 1571 
Q 653 1101 653 704 
Q 653 486 752 361 
Q 851 237 1024 237 
Q 1312 237 1606 550 
Q 1901 864 2089 1350 
Q 2278 1837 2278 2310 
z
" transform="scale(0.015625)"/>
      <path id="STIXGeneral-Regular-2c" d="M 531 -902 
L 467 -781 
Q 998 -422 998 -96 
Q 998 -13 909 -13 
Q 883 -13 822 -25 
Q 762 -38 723 -38 
Q 352 -38 352 288 
Q 352 454 457 553 
Q 563 653 736 653 
Q 954 653 1101 496 
Q 1248 339 1248 96 
Q 1248 -198 1053 -473 
Q 858 -749 531 -902 
z
" transform="scale(0.015625)"/>
      <path id="STIXGeneral-Italic-72" d="M 1126 1427 
L 1229 1651 
Q 1446 2131 1830 2534 
Q 2106 2822 2336 2822 
Q 2470 2822 2553 2732 
Q 2637 2643 2637 2496 
Q 2637 2349 2557 2249 
Q 2477 2150 2336 2150 
Q 2214 2150 2112 2317 
Q 2061 2406 2010 2406 
Q 1837 2406 1485 1805 
Q 1267 1434 1136 1104 
Q 1005 774 774 0 
L 288 0 
L 806 1869 
Q 909 2246 909 2394 
Q 909 2560 666 2560 
Q 614 2560 467 2541 
L 467 2650 
L 1459 2822 
L 1478 2810 
L 1126 1427 
z
" transform="scale(0.015625)"/>
      <path id="STIXGeneral-Italic-65" d="M 2291 698 
L 2368 621 
Q 1805 -70 1062 -70 
Q 672 -70 435 170 
Q 198 410 198 806 
Q 198 1555 796 2188 
Q 1395 2822 2112 2822 
Q 2362 2822 2499 2707 
Q 2637 2592 2637 2387 
Q 2637 1965 2147 1632 
Q 1658 1299 819 1190 
Q 755 1062 755 800 
Q 755 538 918 378 
Q 1082 218 1350 218 
Q 1562 218 1754 317 
Q 1946 416 2291 698 
z
M 973 1613 
L 864 1331 
Q 1581 1504 1894 1805 
Q 2214 2112 2214 2426 
Q 2214 2675 1990 2675 
Q 1722 2675 1430 2364 
Q 1139 2054 973 1613 
z
" transform="scale(0.015625)"/>
      <path id="STIXGeneral-Italic-66" d="M 262 2739 
L 858 2739 
Q 1107 3546 1318 3846 
Q 1664 4339 2163 4339 
Q 2400 4339 2557 4227 
Q 2714 4115 2714 3942 
Q 2714 3834 2634 3750 
Q 2554 3667 2445 3667 
Q 2355 3667 2281 3737 
Q 2208 3808 2208 3917 
Q 2208 3981 2240 4038 
Q 2272 4096 2272 4115 
Q 2272 4198 2131 4198 
Q 1862 4198 1676 3849 
Q 1491 3501 1350 2739 
L 2035 2739 
L 1997 2534 
L 1306 2534 
L 845 486 
Q 435 -1325 -435 -1325 
Q -653 -1325 -797 -1213 
Q -941 -1101 -941 -934 
Q -941 -826 -870 -746 
Q -800 -666 -698 -666 
Q -589 -666 -521 -733 
Q -454 -800 -454 -902 
Q -454 -947 -483 -1001 
Q -512 -1056 -512 -1088 
Q -512 -1190 -384 -1190 
Q 13 -1190 237 -154 
L 800 2534 
L 218 2534 
L 262 2739 
z
" transform="scale(0.015625)"/>
      <path id="TimesNewRomanPS-BoldMT-20" transform="scale(0.015625)"/>
      <path id="TimesNewRomanPS-BoldMT-5b" d="M 669 -1169 
L 669 4238 
L 1925 4238 
L 1925 4106 
L 1784 4106 
Q 1578 4106 1508 4064 
Q 1438 4022 1402 3939 
Q 1366 3856 1366 3541 
L 1366 -494 
Q 1366 -794 1378 -838 
Q 1406 -950 1482 -1003 
Q 1559 -1056 1784 -1056 
L 1925 -1056 
L 1925 -1169 
L 669 -1169 
z
" transform="scale(0.015625)"/>
      <path id="TimesNewRomanPS-BoldMT-35" d="M 975 4238 
L 2959 4238 
L 2644 3431 
L 975 3431 
L 816 3009 
Q 1894 2969 2475 2472 
Q 2953 2063 2953 1453 
Q 2953 1063 2731 689 
Q 2509 316 2106 114 
Q 1703 -88 1222 -88 
Q 703 -88 425 106 
Q 231 244 231 419 
Q 231 553 332 656 
Q 434 759 569 759 
Q 691 759 816 709 
Q 941 659 1244 447 
Q 1434 316 1572 266 
Q 1669 228 1791 228 
Q 2047 228 2226 415 
Q 2406 603 2406 866 
Q 2406 1416 1856 1759 
Q 1306 2103 469 2103 
Q 384 2103 216 2100 
L 975 4238 
z
" transform="scale(0.015625)"/>
      <path id="TimesNewRomanPS-BoldMT-32" d="M 2650 0 
L 156 0 
L 156 69 
Q 1303 1434 1548 1906 
Q 1794 2378 1794 2828 
Q 1794 3156 1591 3373 
Q 1388 3591 1094 3591 
Q 613 3591 347 3109 
L 231 3150 
Q 400 3750 744 4037 
Q 1088 4325 1538 4325 
Q 1859 4325 2125 4175 
Q 2391 4025 2541 3764 
Q 2691 3503 2691 3275 
Q 2691 2859 2459 2431 
Q 2144 1853 1081 819 
L 1997 819 
Q 2334 819 2436 847 
Q 2538 875 2603 942 
Q 2669 1009 2775 1225 
L 2888 1225 
L 2650 0 
z
" transform="scale(0.015625)"/>
      <path id="TimesNewRomanPS-BoldMT-56" d="M 4556 4238 
L 4556 4122 
Q 4325 4084 4144 3875 
Q 4013 3719 3753 3141 
L 2294 -97 
L 2191 -97 
L 738 3272 
Q 475 3881 386 3987 
Q 297 4094 50 4122 
L 50 4238 
L 2081 4238 
L 2081 4122 
L 2013 4122 
Q 1738 4122 1638 4053 
Q 1566 4006 1566 3916 
Q 1566 3859 1591 3782 
Q 1616 3706 1759 3372 
L 2663 1263 
L 3500 3141 
Q 3650 3481 3684 3597 
Q 3719 3713 3719 3794 
Q 3719 3888 3669 3959 
Q 3619 4031 3522 4069 
Q 3388 4122 3166 4122 
L 3166 4238 
L 4556 4238 
z
" transform="scale(0.015625)"/>
      <path id="TimesNewRomanPS-BoldMT-2f" d="M 1797 4334 
L 406 -97 
L 6 -97 
L 1403 4334 
L 1797 4334 
z
" transform="scale(0.015625)"/>
      <path id="TimesNewRomanPS-BoldMT-64" d="M 3056 4238 
L 3056 875 
Q 3056 534 3075 472 
Q 3100 369 3170 319 
Q 3241 269 3416 256 
L 3416 153 
L 2181 -88 
L 2181 375 
Q 1959 106 1786 9 
Q 1613 -88 1394 -88 
Q 834 -88 509 413 
Q 247 819 247 1409 
Q 247 1881 409 2254 
Q 572 2628 855 2818 
Q 1138 3009 1463 3009 
Q 1672 3009 1834 2928 
Q 1997 2847 2181 2644 
L 2181 3525 
Q 2181 3859 2153 3928 
Q 2116 4019 2041 4062 
Q 1966 4106 1759 4106 
L 1759 4238 
L 3056 4238 
z
M 2181 2256 
Q 1950 2700 1616 2700 
Q 1500 2700 1425 2638 
Q 1309 2541 1236 2297 
Q 1163 2053 1163 1550 
Q 1163 997 1244 731 
Q 1325 466 1466 347 
Q 1538 288 1663 288 
Q 1938 288 2181 719 
L 2181 2256 
z
" transform="scale(0.015625)"/>
      <path id="TimesNewRomanPS-BoldMT-69" d="M 919 4338 
Q 1122 4338 1262 4195 
Q 1403 4053 1403 3853 
Q 1403 3653 1261 3512 
Q 1119 3372 919 3372 
Q 719 3372 578 3512 
Q 438 3653 438 3853 
Q 438 4053 578 4195 
Q 719 4338 919 4338 
z
M 1356 2922 
L 1356 606 
Q 1356 297 1428 211 
Q 1500 125 1709 113 
L 1709 0 
L 131 0 
L 131 113 
Q 325 119 419 225 
Q 481 297 481 606 
L 481 2313 
Q 481 2622 409 2708 
Q 338 2794 131 2806 
L 131 2922 
L 1356 2922 
z
" transform="scale(0.015625)"/>
      <path id="TimesNewRomanPS-BoldMT-76" d="M 1534 -88 
L 550 2178 
Q 372 2588 272 2697 
Q 200 2778 59 2806 
L 59 2922 
L 1613 2922 
L 1613 2806 
Q 1466 2806 1413 2753 
Q 1338 2684 1338 2591 
Q 1338 2475 1475 2156 
L 1956 1059 
L 2341 2006 
Q 2506 2413 2506 2581 
Q 2506 2678 2436 2739 
Q 2366 2800 2188 2806 
L 2188 2922 
L 3144 2922 
L 3144 2806 
Q 3006 2788 2918 2703 
Q 2831 2619 2656 2206 
L 1681 -88 
L 1534 -88 
z
" transform="scale(0.015625)"/>
      <path id="TimesNewRomanPS-BoldMT-2e" d="M 800 963 
Q 1019 963 1170 809 
Q 1322 656 1322 441 
Q 1322 225 1169 73 
Q 1016 -78 800 -78 
Q 584 -78 432 73 
Q 281 225 281 441 
Q 281 656 432 809 
Q 584 963 800 963 
z
" transform="scale(0.015625)"/>
      <path id="TimesNewRomanPS-BoldMT-5d" d="M 1466 4238 
L 1466 -1169 
L 209 -1169 
L 209 -1050 
L 350 -1050 
Q 556 -1050 626 -1009 
Q 697 -969 733 -884 
Q 769 -800 769 -488 
L 769 3550 
Q 769 3850 756 3894 
Q 728 4003 651 4058 
Q 575 4113 350 4113 
L 209 4113 
L 209 4238 
L 1466 4238 
z
" transform="scale(0.015625)"/>
     </defs>
     <use xlink:href="#STIXGeneral-Italic-56" transform="translate(0 0.21875)"/>
     <use xlink:href="#STIXGeneral-Italic-64" transform="translate(61.099991 -13.009375) scale(0.7)"/>
     <use xlink:href="#STIXGeneral-Regular-2c" transform="translate(96.09998 -13.009375) scale(0.7)"/>
     <use xlink:href="#STIXGeneral-Italic-72" transform="translate(123.707967 -13.009375) scale(0.7)"/>
     <use xlink:href="#STIXGeneral-Italic-65" transform="translate(150.937963 -13.009375) scale(0.7)"/>
     <use xlink:href="#STIXGeneral-Italic-66" transform="translate(182.017958 -13.009375) scale(0.7)"/>
     <use xlink:href="#TimesNewRomanPS-BoldMT-20" transform="translate(205.887325 0.21875)"/>
     <use xlink:href="#TimesNewRomanPS-BoldMT-5b" transform="translate(230.887325 0.21875)"/>
     <use xlink:href="#TimesNewRomanPS-BoldMT-35" transform="translate(264.188106 0.21875)"/>
     <use xlink:href="#TimesNewRomanPS-BoldMT-32" transform="translate(314.188106 0.21875)"/>
     <use xlink:href="#TimesNewRomanPS-BoldMT-20" transform="translate(364.188106 0.21875)"/>
     <use xlink:href="#TimesNewRomanPS-BoldMT-56" transform="translate(389.188106 0.21875)"/>
     <use xlink:href="#TimesNewRomanPS-BoldMT-2f" transform="translate(461.404903 0.21875)"/>
     <use xlink:href="#TimesNewRomanPS-BoldMT-64" transform="translate(489.188106 0.21875)"/>
     <use xlink:href="#TimesNewRomanPS-BoldMT-69" transform="translate(544.80334 0.21875)"/>
     <use xlink:href="#TimesNewRomanPS-BoldMT-76" transform="translate(572.586544 0.21875)"/>
     <use xlink:href="#TimesNewRomanPS-BoldMT-2e" transform="translate(622.586544 0.21875)"/>
     <use xlink:href="#TimesNewRomanPS-BoldMT-5d" transform="translate(647.586544 0.21875)"/>
    </g>
   </g>
   <g id="patch_6">
    <path d="M 447.065015 96.097916 
Q 451.520787 93.42482 454.826069 91.441922 
" style="fill: none; stroke: #0d8ec5; stroke-width: 1.2; stroke-linecap: round"/>
    <path d="M 447.691695 91.990286 
L 454.826069 91.441922 
L 450.984136 97.47844 
" style="fill: none; stroke: #0d8ec5; stroke-width: 1.2; stroke-linecap: round"/>
   </g>
   <g id="text_3">
    <!-- $\theta_r$ [0.1 rad/div.] -->
    <g style="fill: #0d8ec5" transform="translate(377.691414 109.722951) scale(0.16 -0.16)">
     <defs>
      <path id="STIXGeneral-Italic-3b8" d="M 3162 3270 
Q 3162 2534 2925 1862 
Q 2688 1190 2304 678 
Q 1741 -70 992 -70 
Q 608 -70 390 224 
Q 173 518 173 1030 
Q 173 1997 592 2813 
Q 1011 3629 1594 4070 
Q 1952 4339 2374 4339 
Q 2733 4339 2947 4076 
Q 3162 3814 3162 3270 
z
M 941 2221 
L 2432 2221 
Q 2624 2874 2624 3533 
Q 2624 4205 2285 4205 
Q 2029 4205 1728 3814 
Q 1427 3424 1232 2992 
Q 1037 2560 941 2221 
z
M 2387 2016 
L 896 2016 
Q 710 1530 710 960 
Q 710 64 1069 64 
Q 1286 64 1510 275 
Q 1734 486 1904 806 
Q 2074 1126 2198 1440 
Q 2323 1754 2387 2016 
z
" transform="scale(0.015625)"/>
      <path id="TimesNewRomanPS-BoldMT-30" d="M 2966 2119 
Q 2966 1484 2788 934 
Q 2681 597 2501 381 
Q 2322 166 2094 39 
Q 1866 -88 1597 -88 
Q 1291 -88 1044 68 
Q 797 225 606 516 
Q 469 728 366 1081 
Q 231 1559 231 2069 
Q 231 2759 425 3338 
Q 584 3816 909 4070 
Q 1234 4325 1597 4325 
Q 1966 4325 2286 4073 
Q 2606 3822 2756 3397 
Q 2966 2813 2966 2119 
z
M 2003 2125 
Q 2003 3238 1991 3422 
Q 1959 3856 1841 4009 
Q 1763 4109 1588 4109 
Q 1453 4109 1375 4034 
Q 1259 3925 1218 3648 
Q 1178 3372 1178 1719 
Q 1178 819 1241 513 
Q 1288 291 1375 216 
Q 1463 141 1606 141 
Q 1763 141 1841 241 
Q 1972 416 1991 781 
L 2003 2125 
z
" transform="scale(0.015625)"/>
      <path id="TimesNewRomanPS-BoldMT-31" d="M 2084 4325 
L 2084 859 
Q 2084 469 2118 361 
Q 2153 253 2262 184 
Q 2372 116 2613 116 
L 2709 116 
L 2709 0 
L 478 0 
L 478 116 
L 591 116 
Q 863 116 978 178 
Q 1094 241 1134 350 
Q 1175 459 1175 859 
L 1175 3056 
Q 1175 3350 1147 3423 
Q 1119 3497 1042 3548 
Q 966 3600 866 3600 
Q 706 3600 478 3500 
L 422 3613 
L 1981 4325 
L 2084 4325 
z
" transform="scale(0.015625)"/>
      <path id="TimesNewRomanPS-BoldMT-72" d="M 1428 2922 
L 1428 2259 
Q 1719 2713 1937 2861 
Q 2156 3009 2359 3009 
Q 2534 3009 2639 2901 
Q 2744 2794 2744 2597 
Q 2744 2388 2642 2272 
Q 2541 2156 2397 2156 
Q 2231 2156 2109 2262 
Q 1988 2369 1966 2381 
Q 1934 2400 1894 2400 
Q 1803 2400 1722 2331 
Q 1594 2225 1528 2028 
Q 1428 1725 1428 1359 
L 1428 688 
L 1431 513 
Q 1431 334 1453 284 
Q 1491 200 1564 161 
Q 1638 122 1813 113 
L 1813 0 
L 234 0 
L 234 113 
Q 425 128 492 217 
Q 559 306 559 688 
L 559 2303 
Q 559 2553 534 2622 
Q 503 2709 443 2750 
Q 384 2791 234 2806 
L 234 2922 
L 1428 2922 
z
" transform="scale(0.015625)"/>
      <path id="TimesNewRomanPS-BoldMT-61" d="M 1828 431 
Q 1294 -41 869 -41 
Q 619 -41 453 123 
Q 288 288 288 534 
Q 288 869 575 1136 
Q 863 1403 1828 1847 
L 1828 2141 
Q 1828 2472 1792 2558 
Q 1756 2644 1656 2708 
Q 1556 2772 1431 2772 
Q 1228 2772 1097 2681 
Q 1016 2625 1016 2550 
Q 1016 2484 1103 2388 
Q 1222 2253 1222 2128 
Q 1222 1975 1108 1867 
Q 994 1759 809 1759 
Q 613 1759 480 1878 
Q 347 1997 347 2156 
Q 347 2381 525 2586 
Q 703 2791 1022 2900 
Q 1341 3009 1684 3009 
Q 2100 3009 2342 2832 
Q 2584 2656 2656 2450 
Q 2700 2319 2700 1847 
L 2700 713 
Q 2700 513 2715 461 
Q 2731 409 2762 384 
Q 2794 359 2834 359 
Q 2916 359 3000 475 
L 3094 400 
Q 2938 169 2770 64 
Q 2603 -41 2391 -41 
Q 2141 -41 2000 76 
Q 1859 194 1828 431 
z
M 1828 659 
L 1828 1638 
Q 1450 1416 1266 1163 
Q 1144 994 1144 822 
Q 1144 678 1247 569 
Q 1325 484 1466 484 
Q 1622 484 1828 659 
z
" transform="scale(0.015625)"/>
     </defs>
     <use xlink:href="#STIXGeneral-Italic-3b8" transform="translate(0 0.203125)"/>
     <use xlink:href="#STIXGeneral-Italic-72" transform="translate(47.999985 -13.025) scale(0.7)"/>
     <use xlink:href="#TimesNewRomanPS-BoldMT-20" transform="translate(79.639355 0.203125)"/>
     <use xlink:href="#TimesNewRomanPS-BoldMT-5b" transform="translate(104.639355 0.203125)"/>
     <use xlink:href="#TimesNewRomanPS-BoldMT-30" transform="translate(137.940137 0.203125)"/>
     <use xlink:href="#TimesNewRomanPS-BoldMT-2e" transform="translate(187.940137 0.203125)"/>
     <use xlink:href="#TimesNewRomanPS-BoldMT-31" transform="translate(212.940137 0.203125)"/>
     <use xlink:href="#TimesNewRomanPS-BoldMT-20" transform="translate(262.940137 0.203125)"/>
     <use xlink:href="#TimesNewRomanPS-BoldMT-72" transform="translate(287.940137 0.203125)"/>
     <use xlink:href="#TimesNewRomanPS-BoldMT-61" transform="translate(332.324902 0.203125)"/>
     <use xlink:href="#TimesNewRomanPS-BoldMT-64" transform="translate(382.324902 0.203125)"/>
     <use xlink:href="#TimesNewRomanPS-BoldMT-2f" transform="translate(437.940137 0.203125)"/>
     <use xlink:href="#TimesNewRomanPS-BoldMT-64" transform="translate(465.72334 0.203125)"/>
     <use xlink:href="#TimesNewRomanPS-BoldMT-69" transform="translate(521.338574 0.203125)"/>
     <use xlink:href="#TimesNewRomanPS-BoldMT-76" transform="translate(549.121777 0.203125)"/>
     <use xlink:href="#TimesNewRomanPS-BoldMT-2e" transform="translate(599.121777 0.203125)"/>
     <use xlink:href="#TimesNewRomanPS-BoldMT-5d" transform="translate(624.121777 0.203125)"/>
    </g>
   </g>
   <g id="line2d_30">
    <path d="M 29.11 89.722951 
" style="fill: none; stroke: #000000; stroke-width: 1.5; stroke-linecap: square"/>
    <defs>
     <path id="md850364127" d="M 3 0 
L -3 -3 
L -3 3 
z
" style="stroke: #000000; stroke-linejoin: miter"/>
    </defs>
    <g>
     <use xlink:href="#md850364127" x="29.11" y="89.722951" style="stroke: #000000; stroke-linejoin: miter"/>
    </g>
   </g>
  </g>
  <g id="axes_2">
   <g id="patch_7">
    <path d="M 29.11 308.32 
L 457.691414 308.32 
L 457.691414 175.458099 
L 29.11 175.458099 
z
" style="fill: #ffffff"/>
   </g>
   <g id="line2d_31">
    <path d="M 29.11 241.889049 
L 457.691414 241.889049 
" clip-path="url(#p03abc56f8f)" style="fill: none; stroke: #808080; stroke-width: 1.2; stroke-linecap: square"/>
   </g>
   <g id="matplotlib.axis_3">
    <g id="xtick_7">
     <g id="line2d_32">
      <path d="M 29.11 308.32 
L 29.11 175.458099 
" clip-path="url(#p03abc56f8f)" style="fill: none; stroke: #b0b0b0; stroke-width: 0.8; stroke-linecap: square"/>
     </g>
     <g id="line2d_33">
      <g>
       <use xlink:href="#mb18bf2a4f8" x="29.11" y="308.32" style="stroke: #000000; stroke-width: 0.8"/>
      </g>
     </g>
     <g id="text_4">
      <!-- 0.00 -->
      <g transform="translate(16.86 325.04125) scale(0.14 -0.14)">
       <defs>
        <path id="TimesNewRomanPSMT-2e" d="M 800 606 
Q 947 606 1047 504 
Q 1147 403 1147 259 
Q 1147 116 1045 14 
Q 944 -88 800 -88 
Q 656 -88 554 14 
Q 453 116 453 259 
Q 453 406 554 506 
Q 656 606 800 606 
z
" transform="scale(0.015625)"/>
       </defs>
       <use xlink:href="#TimesNewRomanPSMT-30"/>
       <use xlink:href="#TimesNewRomanPSMT-2e" transform="translate(50 0)"/>
       <use xlink:href="#TimesNewRomanPSMT-30" transform="translate(75 0)"/>
       <use xlink:href="#TimesNewRomanPSMT-30" transform="translate(125 0)"/>
      </g>
     </g>
    </g>
    <g id="xtick_8">
     <g id="line2d_34">
      <path d="M 114.826283 308.32 
L 114.826283 175.458099 
" clip-path="url(#p03abc56f8f)" style="fill: none; stroke: #b0b0b0; stroke-width: 0.8; stroke-linecap: square"/>
     </g>
     <g id="line2d_35">
      <g>
       <use xlink:href="#mb18bf2a4f8" x="114.826283" y="308.32" style="stroke: #000000; stroke-width: 0.8"/>
      </g>
     </g>
     <g id="text_5">
      <!-- 0.02 -->
      <g transform="translate(102.576283 325.04125) scale(0.14 -0.14)">
       <defs>
        <path id="TimesNewRomanPSMT-32" d="M 2934 816 
L 2638 0 
L 138 0 
L 138 116 
Q 1241 1122 1691 1759 
Q 2141 2397 2141 2925 
Q 2141 3328 1894 3587 
Q 1647 3847 1303 3847 
Q 991 3847 742 3664 
Q 494 3481 375 3128 
L 259 3128 
Q 338 3706 661 4015 
Q 984 4325 1469 4325 
Q 1984 4325 2329 3994 
Q 2675 3663 2675 3213 
Q 2675 2891 2525 2569 
Q 2294 2063 1775 1497 
Q 997 647 803 472 
L 1909 472 
Q 2247 472 2383 497 
Q 2519 522 2628 598 
Q 2738 675 2819 816 
L 2934 816 
z
" transform="scale(0.015625)"/>
       </defs>
       <use xlink:href="#TimesNewRomanPSMT-30"/>
       <use xlink:href="#TimesNewRomanPSMT-2e" transform="translate(50 0)"/>
       <use xlink:href="#TimesNewRomanPSMT-30" transform="translate(75 0)"/>
       <use xlink:href="#TimesNewRomanPSMT-32" transform="translate(125 0)"/>
      </g>
     </g>
    </g>
    <g id="xtick_9">
     <g id="line2d_36">
      <path d="M 200.542566 308.32 
L 200.542566 175.458099 
" clip-path="url(#p03abc56f8f)" style="fill: none; stroke: #b0b0b0; stroke-width: 0.8; stroke-linecap: square"/>
     </g>
     <g id="line2d_37">
      <g>
       <use xlink:href="#mb18bf2a4f8" x="200.542566" y="308.32" style="stroke: #000000; stroke-width: 0.8"/>
      </g>
     </g>
     <g id="text_6">
      <!-- 0.04 -->
      <g transform="translate(188.292566 325.04125) scale(0.14 -0.14)">
       <defs>
        <path id="TimesNewRomanPSMT-34" d="M 2978 1563 
L 2978 1119 
L 2409 1119 
L 2409 0 
L 1894 0 
L 1894 1119 
L 100 1119 
L 100 1519 
L 2066 4325 
L 2409 4325 
L 2409 1563 
L 2978 1563 
z
M 1894 1563 
L 1894 3666 
L 406 1563 
L 1894 1563 
z
" transform="scale(0.015625)"/>
       </defs>
       <use xlink:href="#TimesNewRomanPSMT-30"/>
       <use xlink:href="#TimesNewRomanPSMT-2e" transform="translate(50 0)"/>
       <use xlink:href="#TimesNewRomanPSMT-30" transform="translate(75 0)"/>
       <use xlink:href="#TimesNewRomanPSMT-34" transform="translate(125 0)"/>
      </g>
     </g>
    </g>
    <g id="xtick_10">
     <g id="line2d_38">
      <path d="M 286.258848 308.32 
L 286.258848 175.458099 
" clip-path="url(#p03abc56f8f)" style="fill: none; stroke: #b0b0b0; stroke-width: 0.8; stroke-linecap: square"/>
     </g>
     <g id="line2d_39">
      <g>
       <use xlink:href="#mb18bf2a4f8" x="286.258848" y="308.32" style="stroke: #000000; stroke-width: 0.8"/>
      </g>
     </g>
     <g id="text_7">
      <!-- 0.06 -->
      <g transform="translate(274.008848 325.04125) scale(0.14 -0.14)">
       <defs>
        <path id="TimesNewRomanPSMT-36" d="M 2869 4325 
L 2869 4209 
Q 2456 4169 2195 4045 
Q 1934 3922 1679 3669 
Q 1425 3416 1258 3105 
Q 1091 2794 978 2366 
Q 1428 2675 1881 2675 
Q 2316 2675 2634 2325 
Q 2953 1975 2953 1425 
Q 2953 894 2631 456 
Q 2244 -75 1606 -75 
Q 1172 -75 869 213 
Q 275 772 275 1663 
Q 275 2231 503 2743 
Q 731 3256 1154 3653 
Q 1578 4050 1965 4187 
Q 2353 4325 2688 4325 
L 2869 4325 
z
M 925 2138 
Q 869 1716 869 1456 
Q 869 1156 980 804 
Q 1091 453 1309 247 
Q 1469 100 1697 100 
Q 1969 100 2183 356 
Q 2397 613 2397 1088 
Q 2397 1622 2184 2012 
Q 1972 2403 1581 2403 
Q 1463 2403 1327 2353 
Q 1191 2303 925 2138 
z
" transform="scale(0.015625)"/>
       </defs>
       <use xlink:href="#TimesNewRomanPSMT-30"/>
       <use xlink:href="#TimesNewRomanPSMT-2e" transform="translate(50 0)"/>
       <use xlink:href="#TimesNewRomanPSMT-30" transform="translate(75 0)"/>
       <use xlink:href="#TimesNewRomanPSMT-36" transform="translate(125 0)"/>
      </g>
     </g>
    </g>
    <g id="xtick_11">
     <g id="line2d_40">
      <path d="M 371.975131 308.32 
L 371.975131 175.458099 
" clip-path="url(#p03abc56f8f)" style="fill: none; stroke: #b0b0b0; stroke-width: 0.8; stroke-linecap: square"/>
     </g>
     <g id="line2d_41">
      <g>
       <use xlink:href="#mb18bf2a4f8" x="371.975131" y="308.32" style="stroke: #000000; stroke-width: 0.8"/>
      </g>
     </g>
     <g id="text_8">
      <!-- 0.08 -->
      <g transform="translate(359.725131 325.04125) scale(0.14 -0.14)">
       <defs>
        <path id="TimesNewRomanPSMT-38" d="M 1228 2134 
Q 725 2547 579 2797 
Q 434 3047 434 3316 
Q 434 3728 753 4026 
Q 1072 4325 1600 4325 
Q 2113 4325 2425 4047 
Q 2738 3769 2738 3413 
Q 2738 3175 2569 2928 
Q 2400 2681 1866 2347 
Q 2416 1922 2594 1678 
Q 2831 1359 2831 1006 
Q 2831 559 2490 242 
Q 2150 -75 1597 -75 
Q 994 -75 656 303 
Q 388 606 388 966 
Q 388 1247 577 1523 
Q 766 1800 1228 2134 
z
M 1719 2469 
Q 2094 2806 2194 3001 
Q 2294 3197 2294 3444 
Q 2294 3772 2109 3958 
Q 1925 4144 1606 4144 
Q 1288 4144 1088 3959 
Q 888 3775 888 3528 
Q 888 3366 970 3203 
Q 1053 3041 1206 2894 
L 1719 2469 
z
M 1375 2016 
Q 1116 1797 991 1539 
Q 866 1281 866 981 
Q 866 578 1086 336 
Q 1306 94 1647 94 
Q 1984 94 2187 284 
Q 2391 475 2391 747 
Q 2391 972 2272 1150 
Q 2050 1481 1375 2016 
z
" transform="scale(0.015625)"/>
       </defs>
       <use xlink:href="#TimesNewRomanPSMT-30"/>
       <use xlink:href="#TimesNewRomanPSMT-2e" transform="translate(50 0)"/>
       <use xlink:href="#TimesNewRomanPSMT-30" transform="translate(75 0)"/>
       <use xlink:href="#TimesNewRomanPSMT-38" transform="translate(125 0)"/>
      </g>
     </g>
    </g>
    <g id="xtick_12">
     <g id="line2d_42">
      <path d="M 457.691414 308.32 
L 457.691414 175.458099 
" clip-path="url(#p03abc56f8f)" style="fill: none; stroke: #b0b0b0; stroke-width: 0.8; stroke-linecap: square"/>
     </g>
     <g id="line2d_43">
      <g>
       <use xlink:href="#mb18bf2a4f8" x="457.691414" y="308.32" style="stroke: #000000; stroke-width: 0.8"/>
      </g>
     </g>
     <g id="text_9">
      <!-- 0.10 -->
      <g transform="translate(445.441414 325.04125) scale(0.14 -0.14)">
       <defs>
        <path id="TimesNewRomanPSMT-31" d="M 750 3822 
L 1781 4325 
L 1884 4325 
L 1884 747 
Q 1884 391 1914 303 
Q 1944 216 2037 169 
Q 2131 122 2419 116 
L 2419 0 
L 825 0 
L 825 116 
Q 1125 122 1212 167 
Q 1300 213 1334 289 
Q 1369 366 1369 747 
L 1369 3034 
Q 1369 3497 1338 3628 
Q 1316 3728 1258 3775 
Q 1200 3822 1119 3822 
Q 1003 3822 797 3725 
L 750 3822 
z
" transform="scale(0.015625)"/>
       </defs>
       <use xlink:href="#TimesNewRomanPSMT-30"/>
       <use xlink:href="#TimesNewRomanPSMT-2e" transform="translate(50 0)"/>
       <use xlink:href="#TimesNewRomanPSMT-31" transform="translate(75 0)"/>
       <use xlink:href="#TimesNewRomanPSMT-30" transform="translate(125 0)"/>
      </g>
     </g>
    </g>
    <g id="text_10">
     <!-- $t$ [s] -->
     <g transform="translate(232.270707 341.757187) scale(0.14 -0.14)">
      <defs>
       <path id="STIXGeneral-Italic-74" d="M 1894 2739 
L 1862 2534 
L 1325 2534 
L 768 435 
Q 755 384 755 346 
Q 755 243 851 243 
Q 928 243 1030 342 
Q 1133 442 1370 749 
L 1453 704 
Q 1158 256 969 93 
Q 781 -70 538 -70 
Q 243 -70 243 166 
Q 243 230 346 640 
L 845 2534 
L 365 2534 
L 358 2573 
Q 358 2688 570 2733 
Q 730 2771 992 2979 
Q 1254 3187 1421 3437 
Q 1459 3494 1510 3494 
Q 1568 3494 1568 3443 
Q 1568 3411 1562 3398 
L 1382 2739 
L 1894 2739 
z
" transform="scale(0.015625)"/>
       <path id="TimesNewRomanPSMT-20" transform="scale(0.015625)"/>
       <path id="TimesNewRomanPSMT-5b" d="M 1900 -1269 
L 525 -1269 
L 525 4334 
L 1900 4334 
L 1900 4088 
L 994 4088 
L 994 -1025 
L 1900 -1025 
L 1900 -1269 
z
" transform="scale(0.015625)"/>
       <path id="TimesNewRomanPSMT-73" d="M 2050 2947 
L 2050 1972 
L 1947 1972 
Q 1828 2431 1642 2597 
Q 1456 2763 1169 2763 
Q 950 2763 815 2647 
Q 681 2531 681 2391 
Q 681 2216 781 2091 
Q 878 1963 1175 1819 
L 1631 1597 
Q 2266 1288 2266 781 
Q 2266 391 1970 151 
Q 1675 -88 1309 -88 
Q 1047 -88 709 6 
Q 606 38 541 38 
Q 469 38 428 -44 
L 325 -44 
L 325 978 
L 428 978 
Q 516 541 762 319 
Q 1009 97 1316 97 
Q 1531 97 1667 223 
Q 1803 350 1803 528 
Q 1803 744 1651 891 
Q 1500 1038 1047 1263 
Q 594 1488 453 1669 
Q 313 1847 313 2119 
Q 313 2472 555 2709 
Q 797 2947 1181 2947 
Q 1350 2947 1591 2875 
Q 1750 2828 1803 2828 
Q 1853 2828 1881 2850 
Q 1909 2872 1947 2947 
L 2050 2947 
z
" transform="scale(0.015625)"/>
       <path id="TimesNewRomanPSMT-5d" d="M 234 4334 
L 1609 4334 
L 1609 -1272 
L 234 -1272 
L 234 -1025 
L 1141 -1025 
L 1141 4088 
L 234 4088 
L 234 4334 
z
" transform="scale(0.015625)"/>
      </defs>
      <use xlink:href="#STIXGeneral-Italic-74" transform="translate(0 0.28125)"/>
      <use xlink:href="#TimesNewRomanPSMT-20" transform="translate(27.799988 0.28125)"/>
      <use xlink:href="#TimesNewRomanPSMT-5b" transform="translate(52.799988 0.28125)"/>
      <use xlink:href="#TimesNewRomanPSMT-73" transform="translate(86.100769 0.28125)"/>
      <use xlink:href="#TimesNewRomanPSMT-5d" transform="translate(125.016785 0.28125)"/>
     </g>
    </g>
   </g>
   <g id="matplotlib.axis_4">
    <g id="ytick_8">
     <g id="line2d_44">
      <path d="M 29.11 298.829864 
L 457.691414 298.829864 
" clip-path="url(#p03abc56f8f)" style="fill: none; stroke: #b0b0b0; stroke-width: 0.8; stroke-linecap: square"/>
     </g>
     <g id="line2d_45">
      <g>
       <use xlink:href="#m99c0c03d38" x="29.11" y="298.829864" style="stroke: #000000; stroke-width: 0.8"/>
      </g>
     </g>
    </g>
    <g id="ytick_9">
     <g id="line2d_46">
      <path d="M 29.11 279.849593 
L 457.691414 279.849593 
" clip-path="url(#p03abc56f8f)" style="fill: none; stroke: #b0b0b0; stroke-width: 0.8; stroke-linecap: square"/>
     </g>
     <g id="line2d_47">
      <g>
       <use xlink:href="#m99c0c03d38" x="29.11" y="279.849593" style="stroke: #000000; stroke-width: 0.8"/>
      </g>
     </g>
    </g>
    <g id="ytick_10">
     <g id="line2d_48">
      <path d="M 29.11 260.869321 
L 457.691414 260.869321 
" clip-path="url(#p03abc56f8f)" style="fill: none; stroke: #b0b0b0; stroke-width: 0.8; stroke-linecap: square"/>
     </g>
     <g id="line2d_49">
      <g>
       <use xlink:href="#m99c0c03d38" x="29.11" y="260.869321" style="stroke: #000000; stroke-width: 0.8"/>
      </g>
     </g>
    </g>
    <g id="ytick_11">
     <g id="line2d_50">
      <path d="M 29.11 241.889049 
L 457.691414 241.889049 
" clip-path="url(#p03abc56f8f)" style="fill: none; stroke: #b0b0b0; stroke-width: 0.8; stroke-linecap: square"/>
     </g>
     <g id="line2d_51">
      <g>
       <use xlink:href="#m99c0c03d38" x="29.11" y="241.889049" style="stroke: #000000; stroke-width: 0.8"/>
      </g>
     </g>
     <g id="text_11">
      <!-- 0 -->
      <g transform="translate(15.11 246.749674) scale(0.14 -0.14)">
       <use xlink:href="#TimesNewRomanPSMT-30"/>
      </g>
     </g>
    </g>
    <g id="ytick_12">
     <g id="line2d_52">
      <path d="M 29.11 222.908778 
L 457.691414 222.908778 
" clip-path="url(#p03abc56f8f)" style="fill: none; stroke: #b0b0b0; stroke-width: 0.8; stroke-linecap: square"/>
     </g>
     <g id="line2d_53">
      <g>
       <use xlink:href="#m99c0c03d38" x="29.11" y="222.908778" style="stroke: #000000; stroke-width: 0.8"/>
      </g>
     </g>
    </g>
    <g id="ytick_13">
     <g id="line2d_54">
      <path d="M 29.11 203.928506 
L 457.691414 203.928506 
" clip-path="url(#p03abc56f8f)" style="fill: none; stroke: #b0b0b0; stroke-width: 0.8; stroke-linecap: square"/>
     </g>
     <g id="line2d_55">
      <g>
       <use xlink:href="#m99c0c03d38" x="29.11" y="203.928506" style="stroke: #000000; stroke-width: 0.8"/>
      </g>
     </g>
    </g>
    <g id="ytick_14">
     <g id="line2d_56">
      <path d="M 29.11 184.948234 
L 457.691414 184.948234 
" clip-path="url(#p03abc56f8f)" style="fill: none; stroke: #b0b0b0; stroke-width: 0.8; stroke-linecap: square"/>
     </g>
     <g id="line2d_57">
      <g>
       <use xlink:href="#m99c0c03d38" x="29.11" y="184.948234" style="stroke: #000000; stroke-width: 0.8"/>
      </g>
     </g>
    </g>
   </g>
   <g id="line2d_58">
    <path d="M 29.11 241.889049 
L 40.681698 230.935217 
L 51.824815 220.681972 
L 61.253606 212.280474 
L 68.110909 206.434574 
L 73.682467 201.970492 
L 77.968281 198.797774 
L 81.825514 196.197283 
L 85.254165 200.388703 
L 89.539979 205.258806 
L 95.540119 211.699802 
L 103.683166 220.090502 
L 114.397701 230.804695 
L 125.9694 242.058233 
L 137.541098 252.99838 
L 148.684215 263.237751 
L 158.113006 271.621742 
L 164.970308 277.444551 
L 170.113285 281.549853 
L 174.399099 284.717395 
L 178.256332 287.312138 
L 181.684983 283.126126 
L 185.970798 278.259946 
L 191.970937 271.821818 
L 200.113984 263.433009 
L 210.82852 252.720351 
L 222.400218 241.468295 
L 233.971916 230.52959 
L 245.115033 220.291689 
L 254.543824 211.909576 
L 261.401126 206.089256 
L 266.544103 201.986922 
L 270.829918 198.822759 
L 274.258569 196.5061 
L 277.68722 200.724452 
L 281.973034 205.614046 
L 287.544593 211.617965 
L 295.68764 220.033699 
L 306.402175 230.767747 
L 317.973873 242.04029 
L 329.545571 252.99892 
L 340.688688 263.256999 
L 350.117479 271.664498 
L 356.974782 277.518267 
L 362.54634 281.992722 
L 366.832154 285.176543 
L 370.689387 287.78939 
L 374.118038 283.578712 
L 378.403852 278.694665 
L 383.975411 272.694582 
L 392.118458 264.281591 
L 402.832993 253.549678 
L 414.404691 242.279163 
L 425.976389 231.322505 
L 437.119506 221.06641 
L 446.548297 212.661369 
L 453.4056 206.81082 
L 457.691414 203.342593 
L 457.691414 203.342593 
" clip-path="url(#p03abc56f8f)" style="fill: none; stroke: #0d8ec5; stroke-width: 1.8; stroke-linecap: square"/>
   </g>
   <g id="patch_8">
    <path d="M 29.11 308.32 
L 29.11 175.458099 
" style="fill: none; stroke: #a0a0a0; stroke-width: 0.8; stroke-linejoin: miter; stroke-linecap: square"/>
   </g>
   <g id="patch_9">
    <path d="M 29.11 308.32 
L 457.691414 308.32 
" style="fill: none; stroke: #a0a0a0; stroke-width: 0.8; stroke-linejoin: miter; stroke-linecap: square"/>
   </g>
   <g id="line2d_59">
    <path d="M 29.11 241.889049 
L 52.253396 235.003938 
L 55.682048 233.697678 
L 58.682118 232.320272 
L 61.253606 230.88414 
L 63.396513 229.447916 
L 65.53942 227.740204 
L 67.682327 225.707665 
L 69.825234 223.297235 
L 71.53956 221.063754 
L 73.682467 217.856135 
L 75.825374 214.160777 
L 77.968281 209.968306 
L 80.111188 205.293028 
L 81.396933 202.272015 
L 81.825514 203.161597 
L 83.111258 208.480142 
L 84.397002 212.865212 
L 85.682747 216.504359 
L 86.968491 219.541526 
L 88.254235 222.089117 
L 89.539979 224.236241 
L 91.254305 226.597815 
L 92.968631 228.506939 
L 94.682956 230.06651 
L 96.397282 231.35657 
L 98.540189 232.684393 
L 101.111678 233.980407 
L 104.111747 235.225688 
L 108.397562 236.728301 
L 115.683446 238.992043 
L 132.398121 243.904224 
L 146.541307 248.079036 
L 150.827122 249.595783 
L 153.827191 250.872685 
L 156.39868 252.187622 
L 158.541587 253.49392 
L 160.684494 255.04279 
L 162.827401 256.886368 
L 164.970308 259.078298 
L 166.684634 261.117598 
L 168.39896 263.436891 
L 170.541867 266.758974 
L 172.684774 270.572955 
L 174.827681 274.882933 
L 176.970588 279.668424 
L 177.827751 281.706044 
L 178.256332 280.371738 
L 179.542076 275.096831 
L 180.827821 270.746449 
L 182.113565 267.135179 
L 183.399309 264.120611 
L 184.685053 261.591462 
L 185.970798 259.45946 
L 187.685123 257.113965 
L 189.399449 255.217263 
L 191.113775 253.667283 
L 192.8281 252.384602 
L 194.971007 251.063604 
L 197.542496 249.773167 
L 200.542566 248.531888 
L 204.82838 247.032137 
L 212.114264 244.769833 
L 228.828939 239.858342 
L 242.972126 235.681494 
L 247.25794 234.161275 
L 250.25801 232.880205 
L 252.829498 231.560188 
L 254.972405 230.2484 
L 257.115312 228.692767 
L 259.258219 226.841082 
L 261.401126 224.639705 
L 263.115452 222.591945 
L 264.829778 220.263503 
L 266.972685 216.929269 
L 269.115592 213.102766 
L 271.258499 208.780463 
L 273.401406 203.983507 
L 274.258569 201.941696 
L 275.544313 207.478705 
L 276.830057 212.03716 
L 278.115802 215.815481 
L 279.401546 218.965362 
L 280.68729 221.604867 
L 281.973034 223.827322 
L 283.258779 225.707489 
L 284.973104 227.785005 
L 286.68743 229.474643 
L 288.401756 230.864872 
L 290.544663 232.28551 
L 292.68757 233.448722 
L 295.259058 234.611087 
L 298.687709 235.91339 
L 303.830686 237.602224 
L 314.545222 240.828351 
L 341.974432 249.015459 
L 345.403084 250.368853 
L 348.403153 251.810172 
L 350.974642 253.322128 
L 353.117549 254.838588 
L 355.260456 256.643241 
L 357.403363 258.789707 
L 359.54627 261.33018 
L 361.260596 263.677787 
L 363.403503 267.037438 
L 365.54641 270.890095 
L 367.689317 275.238084 
L 369.832224 280.058879 
L 370.260806 281.075889 
L 370.689387 281.488585 
L 371.975131 276.014029 
L 373.260876 271.505094 
L 374.54662 267.766494 
L 375.832364 264.648763 
L 377.118108 262.035463 
L 378.403852 259.83448 
L 380.118178 257.415657 
L 381.832504 255.462303 
L 383.546829 253.868578 
L 385.261155 252.552232 
L 387.404062 251.200083 
L 389.975551 249.884174 
L 392.975621 248.624584 
L 397.261435 247.111715 
L 404.118737 244.972039 
L 420.404831 240.175476 
L 435.833762 235.620586 
L 440.119576 234.088136 
L 443.119646 232.792433 
L 445.691134 231.454623 
L 447.834042 230.123633 
L 449.976949 228.544388 
L 452.119856 226.664444 
L 454.262763 224.430184 
L 455.977088 222.353024 
L 457.691414 219.992834 
L 457.691414 219.992834 
" clip-path="url(#p03abc56f8f)" style="fill: none; stroke: #ff7f0e; stroke-width: 1.8; stroke-linecap: square"/>
   </g>
   <g id="patch_10">
    <path d="M 297.86685 193.066506 
Q 286.997876 197.152539 277.384733 200.76646 
" style="fill: none; stroke: #ff7f0e; stroke-width: 1.2; stroke-linecap: round"/>
    <path d="M 284.501447 201.509689 
L 277.384733 200.76646 
L 282.249344 195.519027 
" style="fill: none; stroke: #ff7f0e; stroke-width: 1.2; stroke-linecap: round"/>
   </g>
   <g id="text_12">
    <!-- $i_d$ [2 A/div.] -->
    <g style="fill: #ff7f0e" transform="translate(284.258569 186.941696) scale(0.16 -0.16)">
     <defs>
      <path id="STIXGeneral-Italic-69" d="M 1690 3834 
Q 1690 3699 1597 3603 
Q 1504 3507 1376 3507 
Q 1235 3507 1152 3600 
Q 1069 3693 1069 3846 
Q 1069 3994 1155 4090 
Q 1242 4186 1370 4186 
Q 1498 4186 1594 4080 
Q 1690 3974 1690 3834 
z
M 1421 730 
L 1504 659 
Q 1235 243 1049 86 
Q 864 -70 627 -70 
Q 314 -70 314 282 
Q 314 467 454 992 
L 762 2125 
Q 819 2330 819 2406 
Q 819 2502 745 2528 
Q 672 2554 410 2560 
L 410 2662 
Q 704 2688 1434 2822 
L 1459 2803 
L 858 608 
Q 794 390 794 326 
Q 794 230 883 230 
Q 1043 230 1421 730 
z
" transform="scale(0.015625)"/>
      <path id="TimesNewRomanPS-BoldMT-41" d="M 2663 1206 
L 1166 1206 
L 988 794 
Q 900 588 900 453 
Q 900 275 1044 191 
Q 1128 141 1459 116 
L 1459 0 
L 50 0 
L 50 116 
Q 278 150 425 304 
Q 572 459 788 944 
L 2303 4325 
L 2363 4325 
L 3891 850 
Q 4109 356 4250 228 
Q 4356 131 4550 116 
L 4550 0 
L 2500 0 
L 2500 116 
L 2584 116 
Q 2831 116 2931 184 
Q 3000 234 3000 328 
Q 3000 384 2981 444 
Q 2975 472 2888 678 
L 2663 1206 
z
M 2556 1438 
L 1925 2897 
L 1275 1438 
L 2556 1438 
z
" transform="scale(0.015625)"/>
     </defs>
     <use xlink:href="#STIXGeneral-Italic-69" transform="translate(0 0.21875)"/>
     <use xlink:href="#STIXGeneral-Italic-64" transform="translate(27.799988 -13.009375) scale(0.7)"/>
     <use xlink:href="#TimesNewRomanPS-BoldMT-20" transform="translate(67.209352 0.21875)"/>
     <use xlink:href="#TimesNewRomanPS-BoldMT-5b" transform="translate(92.209352 0.21875)"/>
     <use xlink:href="#TimesNewRomanPS-BoldMT-32" transform="translate(125.510133 0.21875)"/>
     <use xlink:href="#TimesNewRomanPS-BoldMT-20" transform="translate(175.510133 0.21875)"/>
     <use xlink:href="#TimesNewRomanPS-BoldMT-41" transform="translate(200.510133 0.21875)"/>
     <use xlink:href="#TimesNewRomanPS-BoldMT-2f" transform="translate(272.72693 0.21875)"/>
     <use xlink:href="#TimesNewRomanPS-BoldMT-64" transform="translate(300.510133 0.21875)"/>
     <use xlink:href="#TimesNewRomanPS-BoldMT-69" transform="translate(356.125368 0.21875)"/>
     <use xlink:href="#TimesNewRomanPS-BoldMT-76" transform="translate(383.908571 0.21875)"/>
     <use xlink:href="#TimesNewRomanPS-BoldMT-2e" transform="translate(433.908571 0.21875)"/>
     <use xlink:href="#TimesNewRomanPS-BoldMT-5d" transform="translate(458.908571 0.21875)"/>
    </g>
   </g>
   <g id="patch_11">
    <path d="M 395.617942 294.45602 
Q 384.119829 291.381086 373.917809 288.652765 
" style="fill: none; stroke: #0d8ec5; stroke-width: 1.2; stroke-linecap: round"/>
    <path d="M 379.273815 293.397573 
L 373.917809 288.652765 
L 380.927259 287.214845 
" style="fill: none; stroke: #0d8ec5; stroke-width: 1.2; stroke-linecap: round"/>
   </g>
   <g id="text_13">
    <!-- $\psi_d$ [0.6 Vs/div.] -->
    <g style="fill: #0d8ec5" transform="translate(380.689387 307.78939) scale(0.16 -0.16)">
     <defs>
      <path id="STIXGeneral-Italic-3c8" d="M 4275 2822 
L 4275 2720 
Q 4096 2688 3955 2579 
Q 3814 2470 3731 2355 
Q 3648 2240 3571 2022 
Q 3494 1805 3465 1689 
Q 3437 1574 3379 1331 
Q 3059 -70 1722 -70 
L 1376 -1312 
L 890 -1312 
L 1235 -70 
L 1178 -70 
Q 736 -70 550 64 
Q 211 307 211 864 
Q 211 1101 332 1517 
Q 454 1933 454 2144 
Q 454 2682 96 2720 
L 102 2822 
L 442 2822 
Q 973 2822 973 2170 
Q 973 1990 861 1472 
Q 749 954 749 768 
Q 749 397 880 230 
Q 1011 64 1274 64 
L 2010 2739 
L 2496 2739 
L 1760 64 
Q 1997 64 2195 198 
Q 2675 538 2867 1395 
Q 2931 1670 2976 1830 
Q 3021 1990 3120 2204 
Q 3219 2419 3340 2534 
Q 3462 2650 3667 2736 
Q 3872 2822 4134 2822 
L 4275 2822 
z
" transform="scale(0.015625)"/>
      <path id="TimesNewRomanPS-BoldMT-36" d="M 3006 4325 
L 3006 4238 
Q 2441 4094 2098 3867 
Q 1756 3641 1557 3317 
Q 1359 2994 1250 2516 
Q 1388 2609 1478 2638 
Q 1681 2700 1888 2700 
Q 2363 2700 2680 2354 
Q 2997 2009 2997 1413 
Q 2997 994 2825 644 
Q 2653 294 2337 103 
Q 2022 -88 1663 -88 
Q 1272 -88 940 126 
Q 609 341 423 753 
Q 238 1166 238 1650 
Q 238 2363 580 2977 
Q 922 3591 1551 3955 
Q 2181 4319 3006 4325 
z
M 1209 2263 
Q 1184 1831 1184 1631 
Q 1184 1200 1267 797 
Q 1350 394 1494 231 
Q 1597 116 1738 116 
Q 1881 116 1993 283 
Q 2106 450 2106 963 
Q 2106 1825 1897 2153 
Q 1763 2366 1534 2366 
Q 1409 2366 1209 2263 
z
" transform="scale(0.015625)"/>
      <path id="TimesNewRomanPS-BoldMT-73" d="M 2063 3003 
L 2109 2006 
L 2003 2006 
Q 1813 2450 1608 2612 
Q 1403 2775 1200 2775 
Q 1072 2775 981 2689 
Q 891 2603 891 2491 
Q 891 2406 953 2328 
Q 1053 2200 1512 1889 
Q 1972 1578 2117 1361 
Q 2263 1144 2263 875 
Q 2263 631 2141 397 
Q 2019 163 1797 37 
Q 1575 -88 1306 -88 
Q 1097 -88 747 44 
Q 653 78 619 78 
Q 516 78 447 -78 
L 344 -78 
L 294 972 
L 400 972 
Q 541 559 786 353 
Q 1031 147 1250 147 
Q 1400 147 1495 239 
Q 1591 331 1591 463 
Q 1591 613 1497 722 
Q 1403 831 1078 1053 
Q 600 1384 459 1559 
Q 253 1816 253 2125 
Q 253 2463 486 2736 
Q 719 3009 1159 3009 
Q 1397 3009 1619 2894 
Q 1703 2847 1756 2847 
Q 1813 2847 1847 2870 
Q 1881 2894 1956 3003 
L 2063 3003 
z
" transform="scale(0.015625)"/>
     </defs>
     <use xlink:href="#STIXGeneral-Italic-3c8" transform="translate(0 0.21875)"/>
     <use xlink:href="#STIXGeneral-Italic-64" transform="translate(58.399994 -13.009375) scale(0.7)"/>
     <use xlink:href="#TimesNewRomanPS-BoldMT-20" transform="translate(97.809358 0.21875)"/>
     <use xlink:href="#TimesNewRomanPS-BoldMT-5b" transform="translate(122.809358 0.21875)"/>
     <use xlink:href="#TimesNewRomanPS-BoldMT-30" transform="translate(156.110139 0.21875)"/>
     <use xlink:href="#TimesNewRomanPS-BoldMT-2e" transform="translate(206.110139 0.21875)"/>
     <use xlink:href="#TimesNewRomanPS-BoldMT-36" transform="translate(231.110139 0.21875)"/>
     <use xlink:href="#TimesNewRomanPS-BoldMT-20" transform="translate(281.110139 0.21875)"/>
     <use xlink:href="#TimesNewRomanPS-BoldMT-56" transform="translate(306.110139 0.21875)"/>
     <use xlink:href="#TimesNewRomanPS-BoldMT-73" transform="translate(378.326936 0.21875)"/>
     <use xlink:href="#TimesNewRomanPS-BoldMT-2f" transform="translate(417.242952 0.21875)"/>
     <use xlink:href="#TimesNewRomanPS-BoldMT-64" transform="translate(445.026155 0.21875)"/>
     <use xlink:href="#TimesNewRomanPS-BoldMT-69" transform="translate(500.641389 0.21875)"/>
     <use xlink:href="#TimesNewRomanPS-BoldMT-76" transform="translate(528.424593 0.21875)"/>
     <use xlink:href="#TimesNewRomanPS-BoldMT-2e" transform="translate(578.424593 0.21875)"/>
     <use xlink:href="#TimesNewRomanPS-BoldMT-5d" transform="translate(603.424593 0.21875)"/>
    </g>
   </g>
   <g id="line2d_60">
    <path d="M 29.11 241.889049 
" style="fill: none; stroke: #000000; stroke-width: 1.5; stroke-linecap: square"/>
    <g>
     <use xlink:href="#md850364127" x="29.11" y="241.889049" style="stroke: #000000; stroke-linejoin: miter"/>
    </g>
   </g>
  </g>
 </g>
 <defs>
  <clipPath id="p810ead709c">
   <rect x="29.11" y="23.292" width="428.581414" height="132.861901"/>
  </clipPath>
  <clipPath id="p03abc56f8f">
   <rect x="29.11" y="175.458099" width="428.581414" height="132.861901"/>
  </clipPath>
 </defs>
</svg>
