<?xml version="1.0" encoding="utf-8" standalone="no"?>
<!DOCTYPE svg PUBLIC "-//W3C//DTD SVG 1.1//EN"
  "http://www.w3.org/Graphics/SVG/1.1/DTD/svg11.dtd">
<svg xmlns:xlink="http://www.w3.org/1999/xlink" width="504pt" height="360pt" viewBox="0 0 504 360" xmlns="http://www.w3.org/2000/svg" version="1.1">
 <metadata>
  <rdf:RDF xmlns:dc="http://purl.org/dc/elements/1.1/" xmlns:cc="http://creativecommons.org/ns#" xmlns:rdf="http://www.w3.org/1999/02/22-rdf-syntax-ns#">
   <cc:Work>
    <dc:type rdf:resource="http://purl.org/dc/dcmitype/StillImage"/>
    <dc:date>2026-04-12T01:38:28.925993</dc:date>
    <dc:format>image/svg+xml</dc:format>
    <dc:creator>
     <cc:Agent>
      <dc:title>Matplotlib v3.10.0, https://matplotlib.org/</dc:title>
     </cc:Agent>
    </dc:creator>
   </cc:Work>
  </rdf:RDF>
 </metadata>
 <defs>
  <style type="text/css">*{stroke-linejoin: round; stroke-linecap: butt}</style>
 </defs>
 <g id="figure_1">
  <g id="patch_1">
   <path d="M 0 360 
L 504 360 
L 504 0 
L 0 0 
z
" style="fill: #ffffff"/>
  </g>
  <g id="axes_1">
   <g id="patch_2">
    <path d="M 29.11 155.996138 
L 476.6475 155.996138 
L 476.6475 23.208 
L 29.11 23.208 
z
" style="fill: #ffffff"/>
   </g>
   <g id="line2d_1">
    <path d="M 29.11 89.602069 
L 476.6475 89.602069 
" clip-path="url(#pe8983509f9)" style="fill: none; stroke: #808080; stroke-width: 1.2; stroke-linecap: square"/>
   </g>
   <g id="matplotlib.axis_1">
    <g id="xtick_1">
     <g id="line2d_2">
      <path d="M 29.11 155.996138 
L 29.11 23.208 
" clip-path="url(#pe8983509f9)" style="fill: none; stroke: #b0b0b0; stroke-width: 0.8; stroke-linecap: square"/>
     </g>
     <g id="line2d_3">
      <defs>
       <path id="m618099a466" d="M 0 0 
L 0 3.5 
" style="stroke: #000000; stroke-width: 0.8"/>
      </defs>
      <g>
       <use xlink:href="#m618099a466" x="29.11" y="155.996138" style="stroke: #000000; stroke-width: 0.8"/>
      </g>
     </g>
    </g>
    <g id="xtick_2">
     <g id="line2d_4">
      <path d="M 118.6175 155.996138 
L 118.6175 23.208 
" clip-path="url(#pe8983509f9)" style="fill: none; stroke: #b0b0b0; stroke-width: 0.8; stroke-linecap: square"/>
     </g>
     <g id="line2d_5">
      <g>
       <use xlink:href="#m618099a466" x="118.6175" y="155.996138" style="stroke: #000000; stroke-width: 0.8"/>
      </g>
     </g>
    </g>
    <g id="xtick_3">
     <g id="line2d_6">
      <path d="M 208.125 155.996138 
L 208.125 23.208 
" clip-path="url(#pe8983509f9)" style="fill: none; stroke: #b0b0b0; stroke-width: 0.8; stroke-linecap: square"/>
     </g>
     <g id="line2d_7">
      <g>
       <use xlink:href="#m618099a466" x="208.125" y="155.996138" style="stroke: #000000; stroke-width: 0.8"/>
      </g>
     </g>
    </g>
    <g id="xtick_4">
     <g id="line2d_8">
      <path d="M 297.6325 155.996138 
L 297.6325 23.208 
" clip-path="url(#pe8983509f9)" style="fill: none; stroke: #b0b0b0; stroke-width: 0.8; stroke-linecap: square"/>
     </g>
     <g id="line2d_9">
      <g>
       <use xlink:href="#m618099a466" x="297.6325" y="155.996138" style="stroke: #000000; stroke-width: 0.8"/>
      </g>
     </g>
    </g>
    <g id="xtick_5">
     <g id="line2d_10">
      <path d="M 387.14 155.996138 
L 387.14 23.208 
" clip-path="url(#pe8983509f9)" style="fill: none; stroke: #b0b0b0; stroke-width: 0.8; stroke-linecap: square"/>
     </g>
     <g id="line2d_11">
      <g>
       <use xlink:href="#m618099a466" x="387.14" y="155.996138" style="stroke: #000000; stroke-width: 0.8"/>
      </g>
     </g>
    </g>
    <g id="xtick_6">
     <g id="line2d_12">
      <path d="M 476.6475 155.996138 
L 476.6475 23.208 
" clip-path="url(#pe8983509f9)" style="fill: none; stroke: #b0b0b0; stroke-width: 0.8; stroke-linecap: square"/>
     </g>
     <g id="line2d_13">
      <g>
       <use xlink:href="#m618099a466" x="476.6475" y="155.996138" style="stroke: #000000; stroke-width: 0.8"/>
      </g>
     </g>
    </g>
   </g>
   <g id="matplotlib.axis_2">
    <g id="ytick_1">
     <g id="line2d_14">
      <path d="M 29.11 146.511271 
L 476.6475 146.511271 
" clip-path="url(#pe8983509f9)" style="fill: none; stroke: #b0b0b0; stroke-width: 0.8; stroke-linecap: square"/>
     </g>
     <g id="line2d_15">
      <defs>
       <path id="m7fac86ec0c" d="M 0 0 
L -3.5 0 
" style="stroke: #000000; stroke-width: 0.8"/>
      </defs>
      <g>
       <use xlink:href="#m7fac86ec0c" x="29.11" y="146.511271" style="stroke: #000000; stroke-width: 0.8"/>
      </g>
     </g>
    </g>
    <g id="ytick_2">
     <g id="line2d_16">
      <path d="M 29.11 127.541537 
L 476.6475 127.541537 
" clip-path="url(#pe8983509f9)" style="fill: none; stroke: #b0b0b0; stroke-width: 0.8; stroke-linecap: square"/>
     </g>
     <g id="line2d_17">
      <g>
       <use xlink:href="#m7fac86ec0c" x="29.11" y="127.541537" style="stroke: #000000; stroke-width: 0.8"/>
      </g>
     </g>
    </g>
    <g id="ytick_3">
     <g id="line2d_18">
      <path d="M 29.11 108.571803 
L 476.6475 108.571803 
" clip-path="url(#pe8983509f9)" style="fill: none; stroke: #b0b0b0; stroke-width: 0.8; stroke-linecap: square"/>
     </g>
     <g id="line2d_19">
      <g>
       <use xlink:href="#m7fac86ec0c" x="29.11" y="108.571803" style="stroke: #000000; stroke-width: 0.8"/>
      </g>
     </g>
    </g>
    <g id="ytick_4">
     <g id="line2d_20">
      <path d="M 29.11 89.602069 
L 476.6475 89.602069 
" clip-path="url(#pe8983509f9)" style="fill: none; stroke: #b0b0b0; stroke-width: 0.8; stroke-linecap: square"/>
     </g>
     <g id="line2d_21">
      <g>
       <use xlink:href="#m7fac86ec0c" x="29.11" y="89.602069" style="stroke: #000000; stroke-width: 0.8"/>
      </g>
     </g>
     <g id="text_1">
      <!-- 0 -->
      <g transform="translate(15.11 94.462694) scale(0.14 -0.14)">
       <defs>
        <path id="TimesNewRomanPSMT-30" d="M 231 2094 
Q 231 2819 450 3342 
Q 669 3866 1031 4122 
Q 1313 4325 1613 4325 
Q 2100 4325 2488 3828 
Q 2972 3213 2972 2159 
Q 2972 1422 2759 906 
Q 2547 391 2217 158 
Q 1888 -75 1581 -75 
Q 975 -75 572 641 
Q 231 1244 231 2094 
z
M 844 2016 
Q 844 1141 1059 588 
Q 1238 122 1591 122 
Q 1759 122 1940 273 
Q 2122 425 2216 781 
Q 2359 1319 2359 2297 
Q 2359 3022 2209 3506 
Q 2097 3866 1919 4016 
Q 1791 4119 1609 4119 
Q 1397 4119 1231 3928 
Q 1006 3669 925 3112 
Q 844 2556 844 2016 
z
" transform="scale(0.015625)"/>
       </defs>
       <use xlink:href="#TimesNewRomanPSMT-30"/>
      </g>
     </g>
    </g>
    <g id="ytick_5">
     <g id="line2d_22">
      <path d="M 29.11 70.632335 
L 476.6475 70.632335 
" clip-path="url(#pe8983509f9)" style="fill: none; stroke: #b0b0b0; stroke-width: 0.8; stroke-linecap: square"/>
     </g>
     <g id="line2d_23">
      <g>
       <use xlink:href="#m7fac86ec0c" x="29.11" y="70.632335" style="stroke: #000000; stroke-width: 0.8"/>
      </g>
     </g>
    </g>
    <g id="ytick_6">
     <g id="line2d_24">
      <path d="M 29.11 51.662601 
L 476.6475 51.662601 
" clip-path="url(#pe8983509f9)" style="fill: none; stroke: #b0b0b0; stroke-width: 0.8; stroke-linecap: square"/>
     </g>
     <g id="line2d_25">
      <g>
       <use xlink:href="#m7fac86ec0c" x="29.11" y="51.662601" style="stroke: #000000; stroke-width: 0.8"/>
      </g>
     </g>
    </g>
    <g id="ytick_7">
     <g id="line2d_26">
      <path d="M 29.11 32.692867 
L 476.6475 32.692867 
" clip-path="url(#pe8983509f9)" style="fill: none; stroke: #b0b0b0; stroke-width: 0.8; stroke-linecap: square"/>
     </g>
     <g id="line2d_27">
      <g>
       <use xlink:href="#m7fac86ec0c" x="29.11" y="32.692867" style="stroke: #000000; stroke-width: 0.8"/>
      </g>
     </g>
    </g>
   </g>
   <g id="line2d_28">
    <path d="M 29.11 89.602069 
L 476.6475 89.596554 
L 476.6475 89.596554 
" clip-path="url(#pe8983509f9)" style="fill: none; stroke: #0d8ec5; stroke-width: 1.8; stroke-linecap: square"/>
   </g>
   <g id="patch_3">
    <path d="M 29.11 155.996138 
L 29.11 23.208 
" style="fill: none; stroke: #a0a0a0; stroke-width: 0.8; stroke-linejoin: miter; stroke-linecap: square"/>
   </g>
   <g id="patch_4">
    <path d="M 29.11 155.996138 
L 476.6475 155.996138 
" style="fill: none; stroke: #a0a0a0; stroke-width: 0.8; stroke-linejoin: miter; stroke-linecap: square"/>
   </g>
   <g id="line2d_29">
    <path d="M 29.11 137.026404 
L 58.199937 137.026404 
L 58.647475 42.177734 
L 107.8766 42.177734 
L 108.324138 137.026404 
L 157.553263 137.026404 
L 158.0008 42.177734 
L 207.677462 42.177734 
L 208.125 137.026404 
L 257.354125 137.026404 
L 257.801663 42.177734 
L 307.030788 42.177734 
L 307.478325 137.026404 
L 357.154988 137.026404 
L 357.602525 42.177734 
L 406.83165 42.177734 
L 407.279188 137.026404 
L 456.508313 137.026404 
L 456.95585 42.177734 
L 476.6475 42.177734 
L 476.6475 42.177734 
" clip-path="url(#pe8983509f9)" style="fill: none; stroke: #ff7f0e; stroke-width: 1.8; stroke-linecap: square"/>
   </g>
   <g id="patch_5">
    <path d="M 86.9023 34.202582 
Q 73.738904 37.918056 61.8667 41.269082 
" style="fill: none; stroke: #ff7f0e; stroke-width: 1.2; stroke-linecap: round"/>
    <path d="M 68.895308 42.61023 
L 61.8667 41.269082 
L 67.156783 36.450884 
" style="fill: none; stroke: #ff7f0e; stroke-width: 1.2; stroke-linecap: round"/>
   </g>
   <g id="text_2">
    <!-- $V_{q,ref}$ [40 V/div.] -->
    <g style="fill: #ff7f0e" transform="translate(68.647475 27.177734) scale(0.16 -0.16)">
     <defs>
      <path id="STIXGeneral-Italic-56" d="M 4403 4179 
L 4403 4077 
Q 4198 4070 4045 3821 
L 1658 -115 
L 1536 -115 
L 1011 3104 
Q 902 3776 828 3910 
Q 755 4045 486 4077 
L 486 4179 
L 2022 4179 
L 2022 4077 
Q 1722 4045 1629 3981 
Q 1536 3917 1536 3750 
Q 1536 3686 1542 3654 
L 1958 819 
L 3302 3123 
Q 3616 3661 3616 3859 
Q 3616 4032 3219 4077 
L 3219 4179 
L 4403 4179 
z
" transform="scale(0.015625)"/>
      <path id="STIXGeneral-Italic-71" d="M 3098 2739 
L 2042 -966 
Q 2029 -1018 2029 -1037 
Q 2029 -1235 2394 -1235 
L 2490 -1235 
L 2490 -1338 
L 973 -1338 
L 973 -1235 
Q 1267 -1216 1382 -1139 
Q 1498 -1062 1555 -877 
L 2131 979 
Q 1754 378 1466 154 
Q 1178 -70 800 -70 
Q 499 -70 329 128 
Q 160 326 160 672 
Q 160 1165 445 1670 
Q 730 2176 1168 2499 
Q 1606 2822 2035 2822 
Q 2438 2822 2528 2426 
L 2630 2739 
L 3098 2739 
z
M 2432 2298 
Q 2432 2458 2323 2570 
Q 2214 2682 2054 2682 
Q 1792 2682 1459 2368 
Q 1133 2054 921 1606 
Q 710 1158 710 762 
Q 710 269 1050 269 
Q 1312 269 1574 499 
Q 1901 781 2166 1341 
Q 2432 1901 2432 2298 
z
" transform="scale(0.015625)"/>
      <path id="STIXGeneral-Regular-2c" d="M 531 -902 
L 467 -781 
Q 998 -422 998 -96 
Q 998 -13 909 -13 
Q 883 -13 822 -25 
Q 762 -38 723 -38 
Q 352 -38 352 288 
Q 352 454 457 553 
Q 563 653 736 653 
Q 954 653 1101 496 
Q 1248 339 1248 96 
Q 1248 -198 1053 -473 
Q 858 -749 531 -902 
z
" transform="scale(0.015625)"/>
      <path id="STIXGeneral-Italic-72" d="M 1126 1427 
L 1229 1651 
Q 1446 2131 1830 2534 
Q 2106 2822 2336 2822 
Q 2470 2822 2553 2732 
Q 2637 2643 2637 2496 
Q 2637 2349 2557 2249 
Q 2477 2150 2336 2150 
Q 2214 2150 2112 2317 
Q 2061 2406 2010 2406 
Q 1837 2406 1485 1805 
Q 1267 1434 1136 1104 
Q 1005 774 774 0 
L 288 0 
L 806 1869 
Q 909 2246 909 2394 
Q 909 2560 666 2560 
Q 614 2560 467 2541 
L 467 2650 
L 1459 2822 
L 1478 2810 
L 1126 1427 
z
" transform="scale(0.015625)"/>
      <path id="STIXGeneral-Italic-65" d="M 2291 698 
L 2368 621 
Q 1805 -70 1062 -70 
Q 672 -70 435 170 
Q 198 410 198 806 
Q 198 1555 796 2188 
Q 1395 2822 2112 2822 
Q 2362 2822 2499 2707 
Q 2637 2592 2637 2387 
Q 2637 1965 2147 1632 
Q 1658 1299 819 1190 
Q 755 1062 755 800 
Q 755 538 918 378 
Q 1082 218 1350 218 
Q 1562 218 1754 317 
Q 1946 416 2291 698 
z
M 973 1613 
L 864 1331 
Q 1581 1504 1894 1805 
Q 2214 2112 2214 2426 
Q 2214 2675 1990 2675 
Q 1722 2675 1430 2364 
Q 1139 2054 973 1613 
z
" transform="scale(0.015625)"/>
      <path id="STIXGeneral-Italic-66" d="M 262 2739 
L 858 2739 
Q 1107 3546 1318 3846 
Q 1664 4339 2163 4339 
Q 2400 4339 2557 4227 
Q 2714 4115 2714 3942 
Q 2714 3834 2634 3750 
Q 2554 3667 2445 3667 
Q 2355 3667 2281 3737 
Q 2208 3808 2208 3917 
Q 2208 3981 2240 4038 
Q 2272 4096 2272 4115 
Q 2272 4198 2131 4198 
Q 1862 4198 1676 3849 
Q 1491 3501 1350 2739 
L 2035 2739 
L 1997 2534 
L 1306 2534 
L 845 486 
Q 435 -1325 -435 -1325 
Q -653 -1325 -797 -1213 
Q -941 -1101 -941 -934 
Q -941 -826 -870 -746 
Q -800 -666 -698 -666 
Q -589 -666 -521 -733 
Q -454 -800 -454 -902 
Q -454 -947 -483 -1001 
Q -512 -1056 -512 -1088 
Q -512 -1190 -384 -1190 
Q 13 -1190 237 -154 
L 800 2534 
L 218 2534 
L 262 2739 
z
" transform="scale(0.015625)"/>
      <path id="TimesNewRomanPS-BoldMT-20" transform="scale(0.015625)"/>
      <path id="TimesNewRomanPS-BoldMT-5b" d="M 669 -1169 
L 669 4238 
L 1925 4238 
L 1925 4106 
L 1784 4106 
Q 1578 4106 1508 4064 
Q 1438 4022 1402 3939 
Q 1366 3856 1366 3541 
L 1366 -494 
Q 1366 -794 1378 -838 
Q 1406 -950 1482 -1003 
Q 1559 -1056 1784 -1056 
L 1925 -1056 
L 1925 -1169 
L 669 -1169 
z
" transform="scale(0.015625)"/>
      <path id="TimesNewRomanPS-BoldMT-34" d="M 159 1597 
L 2172 4325 
L 2553 4325 
L 2553 1597 
L 2941 1597 
L 2941 950 
L 2553 950 
L 2553 0 
L 1694 0 
L 1694 950 
L 159 950 
L 159 1597 
z
M 463 1597 
L 1694 1597 
L 1694 3269 
L 463 1597 
z
" transform="scale(0.015625)"/>
      <path id="TimesNewRomanPS-BoldMT-30" d="M 2966 2119 
Q 2966 1484 2788 934 
Q 2681 597 2501 381 
Q 2322 166 2094 39 
Q 1866 -88 1597 -88 
Q 1291 -88 1044 68 
Q 797 225 606 516 
Q 469 728 366 1081 
Q 231 1559 231 2069 
Q 231 2759 425 3338 
Q 584 3816 909 4070 
Q 1234 4325 1597 4325 
Q 1966 4325 2286 4073 
Q 2606 3822 2756 3397 
Q 2966 2813 2966 2119 
z
M 2003 2125 
Q 2003 3238 1991 3422 
Q 1959 3856 1841 4009 
Q 1763 4109 1588 4109 
Q 1453 4109 1375 4034 
Q 1259 3925 1218 3648 
Q 1178 3372 1178 1719 
Q 1178 819 1241 513 
Q 1288 291 1375 216 
Q 1463 141 1606 141 
Q 1763 141 1841 241 
Q 1972 416 1991 781 
L 2003 2125 
z
" transform="scale(0.015625)"/>
      <path id="TimesNewRomanPS-BoldMT-56" d="M 4556 4238 
L 4556 4122 
Q 4325 4084 4144 3875 
Q 4013 3719 3753 3141 
L 2294 -97 
L 2191 -97 
L 738 3272 
Q 475 3881 386 3987 
Q 297 4094 50 4122 
L 50 4238 
L 2081 4238 
L 2081 4122 
L 2013 4122 
Q 1738 4122 1638 4053 
Q 1566 4006 1566 3916 
Q 1566 3859 1591 3782 
Q 1616 3706 1759 3372 
L 2663 1263 
L 3500 3141 
Q 3650 3481 3684 3597 
Q 3719 3713 3719 3794 
Q 3719 3888 3669 3959 
Q 3619 4031 3522 4069 
Q 3388 4122 3166 4122 
L 3166 4238 
L 4556 4238 
z
" transform="scale(0.015625)"/>
      <path id="TimesNewRomanPS-BoldMT-2f" d="M 1797 4334 
L 406 -97 
L 6 -97 
L 1403 4334 
L 1797 4334 
z
" transform="scale(0.015625)"/>
      <path id="TimesNewRomanPS-BoldMT-64" d="M 3056 4238 
L 3056 875 
Q 3056 534 3075 472 
Q 3100 369 3170 319 
Q 3241 269 3416 256 
L 3416 153 
L 2181 -88 
L 2181 375 
Q 1959 106 1786 9 
Q 1613 -88 1394 -88 
Q 834 -88 509 413 
Q 247 819 247 1409 
Q 247 1881 409 2254 
Q 572 2628 855 2818 
Q 1138 3009 1463 3009 
Q 1672 3009 1834 2928 
Q 1997 2847 2181 2644 
L 2181 3525 
Q 2181 3859 2153 3928 
Q 2116 4019 2041 4062 
Q 1966 4106 1759 4106 
L 1759 4238 
L 3056 4238 
z
M 2181 2256 
Q 1950 2700 1616 2700 
Q 1500 2700 1425 2638 
Q 1309 2541 1236 2297 
Q 1163 2053 1163 1550 
Q 1163 997 1244 731 
Q 1325 466 1466 347 
Q 1538 288 1663 288 
Q 1938 288 2181 719 
L 2181 2256 
z
" transform="scale(0.015625)"/>
      <path id="TimesNewRomanPS-BoldMT-69" d="M 919 4338 
Q 1122 4338 1262 4195 
Q 1403 4053 1403 3853 
Q 1403 3653 1261 3512 
Q 1119 3372 919 3372 
Q 719 3372 578 3512 
Q 438 3653 438 3853 
Q 438 4053 578 4195 
Q 719 4338 919 4338 
z
M 1356 2922 
L 1356 606 
Q 1356 297 1428 211 
Q 1500 125 1709 113 
L 1709 0 
L 131 0 
L 131 113 
Q 325 119 419 225 
Q 481 297 481 606 
L 481 2313 
Q 481 2622 409 2708 
Q 338 2794 131 2806 
L 131 2922 
L 1356 2922 
z
" transform="scale(0.015625)"/>
      <path id="TimesNewRomanPS-BoldMT-76" d="M 1534 -88 
L 550 2178 
Q 372 2588 272 2697 
Q 200 2778 59 2806 
L 59 2922 
L 1613 2922 
L 1613 2806 
Q 1466 2806 1413 2753 
Q 1338 2684 1338 2591 
Q 1338 2475 1475 2156 
L 1956 1059 
L 2341 2006 
Q 2506 2413 2506 2581 
Q 2506 2678 2436 2739 
Q 2366 2800 2188 2806 
L 2188 2922 
L 3144 2922 
L 3144 2806 
Q 3006 2788 2918 2703 
Q 2831 2619 2656 2206 
L 1681 -88 
L 1534 -88 
z
" transform="scale(0.015625)"/>
      <path id="TimesNewRomanPS-BoldMT-2e" d="M 800 963 
Q 1019 963 1170 809 
Q 1322 656 1322 441 
Q 1322 225 1169 73 
Q 1016 -78 800 -78 
Q 584 -78 432 73 
Q 281 225 281 441 
Q 281 656 432 809 
Q 584 963 800 963 
z
" transform="scale(0.015625)"/>
      <path id="TimesNewRomanPS-BoldMT-5d" d="M 1466 4238 
L 1466 -1169 
L 209 -1169 
L 209 -1050 
L 350 -1050 
Q 556 -1050 626 -1009 
Q 697 -969 733 -884 
Q 769 -800 769 -488 
L 769 3550 
Q 769 3850 756 3894 
Q 728 4003 651 4058 
Q 575 4113 350 4113 
L 209 4113 
L 209 4238 
L 1466 4238 
z
" transform="scale(0.015625)"/>
     </defs>
     <use xlink:href="#STIXGeneral-Italic-56" transform="translate(0 0.21875)"/>
     <use xlink:href="#STIXGeneral-Italic-71" transform="translate(61.099991 -13.009375) scale(0.7)"/>
     <use xlink:href="#STIXGeneral-Regular-2c" transform="translate(96.09998 -13.009375) scale(0.7)"/>
     <use xlink:href="#STIXGeneral-Italic-72" transform="translate(123.707967 -13.009375) scale(0.7)"/>
     <use xlink:href="#STIXGeneral-Italic-65" transform="translate(150.937963 -13.009375) scale(0.7)"/>
     <use xlink:href="#STIXGeneral-Italic-66" transform="translate(182.017958 -13.009375) scale(0.7)"/>
     <use xlink:href="#TimesNewRomanPS-BoldMT-20" transform="translate(205.887325 0.21875)"/>
     <use xlink:href="#TimesNewRomanPS-BoldMT-5b" transform="translate(230.887325 0.21875)"/>
     <use xlink:href="#TimesNewRomanPS-BoldMT-34" transform="translate(264.188106 0.21875)"/>
     <use xlink:href="#TimesNewRomanPS-BoldMT-30" transform="translate(314.188106 0.21875)"/>
     <use xlink:href="#TimesNewRomanPS-BoldMT-20" transform="translate(364.188106 0.21875)"/>
     <use xlink:href="#TimesNewRomanPS-BoldMT-56" transform="translate(389.188106 0.21875)"/>
     <use xlink:href="#TimesNewRomanPS-BoldMT-2f" transform="translate(461.404903 0.21875)"/>
     <use xlink:href="#TimesNewRomanPS-BoldMT-64" transform="translate(489.188106 0.21875)"/>
     <use xlink:href="#TimesNewRomanPS-BoldMT-69" transform="translate(544.80334 0.21875)"/>
     <use xlink:href="#TimesNewRomanPS-BoldMT-76" transform="translate(572.586544 0.21875)"/>
     <use xlink:href="#TimesNewRomanPS-BoldMT-2e" transform="translate(622.586544 0.21875)"/>
     <use xlink:href="#TimesNewRomanPS-BoldMT-5d" transform="translate(647.586544 0.21875)"/>
    </g>
   </g>
   <g id="patch_6">
    <path d="M 182.085575 96.525848 
Q 169.893121 93.331022 158.998492 90.47627 
" style="fill: none; stroke: #0d8ec5; stroke-width: 1.2; stroke-linecap: round"/>
    <path d="M 164.378358 95.194007 
L 158.998492 90.47627 
L 166.000601 89.003019 
" style="fill: none; stroke: #0d8ec5; stroke-width: 1.2; stroke-linecap: round"/>
   </g>
   <g id="text_3">
    <!-- $\theta_r$ [0.1 rad/div.] -->
    <g style="fill: #0d8ec5" transform="translate(165.763112 109.628493) scale(0.16 -0.16)">
     <defs>
      <path id="STIXGeneral-Italic-3b8" d="M 3162 3270 
Q 3162 2534 2925 1862 
Q 2688 1190 2304 678 
Q 1741 -70 992 -70 
Q 608 -70 390 224 
Q 173 518 173 1030 
Q 173 1997 592 2813 
Q 1011 3629 1594 4070 
Q 1952 4339 2374 4339 
Q 2733 4339 2947 4076 
Q 3162 3814 3162 3270 
z
M 941 2221 
L 2432 2221 
Q 2624 2874 2624 3533 
Q 2624 4205 2285 4205 
Q 2029 4205 1728 3814 
Q 1427 3424 1232 2992 
Q 1037 2560 941 2221 
z
M 2387 2016 
L 896 2016 
Q 710 1530 710 960 
Q 710 64 1069 64 
Q 1286 64 1510 275 
Q 1734 486 1904 806 
Q 2074 1126 2198 1440 
Q 2323 1754 2387 2016 
z
" transform="scale(0.015625)"/>
      <path id="TimesNewRomanPS-BoldMT-31" d="M 2084 4325 
L 2084 859 
Q 2084 469 2118 361 
Q 2153 253 2262 184 
Q 2372 116 2613 116 
L 2709 116 
L 2709 0 
L 478 0 
L 478 116 
L 591 116 
Q 863 116 978 178 
Q 1094 241 1134 350 
Q 1175 459 1175 859 
L 1175 3056 
Q 1175 3350 1147 3423 
Q 1119 3497 1042 3548 
Q 966 3600 866 3600 
Q 706 3600 478 3500 
L 422 3613 
L 1981 4325 
L 2084 4325 
z
" transform="scale(0.015625)"/>
      <path id="TimesNewRomanPS-BoldMT-72" d="M 1428 2922 
L 1428 2259 
Q 1719 2713 1937 2861 
Q 2156 3009 2359 3009 
Q 2534 3009 2639 2901 
Q 2744 2794 2744 2597 
Q 2744 2388 2642 2272 
Q 2541 2156 2397 2156 
Q 2231 2156 2109 2262 
Q 1988 2369 1966 2381 
Q 1934 2400 1894 2400 
Q 1803 2400 1722 2331 
Q 1594 2225 1528 2028 
Q 1428 1725 1428 1359 
L 1428 688 
L 1431 513 
Q 1431 334 1453 284 
Q 1491 200 1564 161 
Q 1638 122 1813 113 
L 1813 0 
L 234 0 
L 234 113 
Q 425 128 492 217 
Q 559 306 559 688 
L 559 2303 
Q 559 2553 534 2622 
Q 503 2709 443 2750 
Q 384 2791 234 2806 
L 234 2922 
L 1428 2922 
z
" transform="scale(0.015625)"/>
      <path id="TimesNewRomanPS-BoldMT-61" d="M 1828 431 
Q 1294 -41 869 -41 
Q 619 -41 453 123 
Q 288 288 288 534 
Q 288 869 575 1136 
Q 863 1403 1828 1847 
L 1828 2141 
Q 1828 2472 1792 2558 
Q 1756 2644 1656 2708 
Q 1556 2772 1431 2772 
Q 1228 2772 1097 2681 
Q 1016 2625 1016 2550 
Q 1016 2484 1103 2388 
Q 1222 2253 1222 2128 
Q 1222 1975 1108 1867 
Q 994 1759 809 1759 
Q 613 1759 480 1878 
Q 347 1997 347 2156 
Q 347 2381 525 2586 
Q 703 2791 1022 2900 
Q 1341 3009 1684 3009 
Q 2100 3009 2342 2832 
Q 2584 2656 2656 2450 
Q 2700 2319 2700 1847 
L 2700 713 
Q 2700 513 2715 461 
Q 2731 409 2762 384 
Q 2794 359 2834 359 
Q 2916 359 3000 475 
L 3094 400 
Q 2938 169 2770 64 
Q 2603 -41 2391 -41 
Q 2141 -41 2000 76 
Q 1859 194 1828 431 
z
M 1828 659 
L 1828 1638 
Q 1450 1416 1266 1163 
Q 1144 994 1144 822 
Q 1144 678 1247 569 
Q 1325 484 1466 484 
Q 1622 484 1828 659 
z
" transform="scale(0.015625)"/>
     </defs>
     <use xlink:href="#STIXGeneral-Italic-3b8" transform="translate(0 0.203125)"/>
     <use xlink:href="#STIXGeneral-Italic-72" transform="translate(47.999985 -13.025) scale(0.7)"/>
     <use xlink:href="#TimesNewRomanPS-BoldMT-20" transform="translate(79.639355 0.203125)"/>
     <use xlink:href="#TimesNewRomanPS-BoldMT-5b" transform="translate(104.639355 0.203125)"/>
     <use xlink:href="#TimesNewRomanPS-BoldMT-30" transform="translate(137.940137 0.203125)"/>
     <use xlink:href="#TimesNewRomanPS-BoldMT-2e" transform="translate(187.940137 0.203125)"/>
     <use xlink:href="#TimesNewRomanPS-BoldMT-31" transform="translate(212.940137 0.203125)"/>
     <use xlink:href="#TimesNewRomanPS-BoldMT-20" transform="translate(262.940137 0.203125)"/>
     <use xlink:href="#TimesNewRomanPS-BoldMT-72" transform="translate(287.940137 0.203125)"/>
     <use xlink:href="#TimesNewRomanPS-BoldMT-61" transform="translate(332.324902 0.203125)"/>
     <use xlink:href="#TimesNewRomanPS-BoldMT-64" transform="translate(382.324902 0.203125)"/>
     <use xlink:href="#TimesNewRomanPS-BoldMT-2f" transform="translate(437.940137 0.203125)"/>
     <use xlink:href="#TimesNewRomanPS-BoldMT-64" transform="translate(465.72334 0.203125)"/>
     <use xlink:href="#TimesNewRomanPS-BoldMT-69" transform="translate(521.338574 0.203125)"/>
     <use xlink:href="#TimesNewRomanPS-BoldMT-76" transform="translate(549.121777 0.203125)"/>
     <use xlink:href="#TimesNewRomanPS-BoldMT-2e" transform="translate(599.121777 0.203125)"/>
     <use xlink:href="#TimesNewRomanPS-BoldMT-5d" transform="translate(624.121777 0.203125)"/>
    </g>
   </g>
   <g id="line2d_30">
    <path d="M 29.11 89.602069 
" style="fill: none; stroke: #000000; stroke-width: 1.5; stroke-linecap: square"/>
    <defs>
     <path id="m92162a3bae" d="M 3 0 
L -3 -3 
L -3 3 
z
" style="stroke: #000000; stroke-linejoin: miter"/>
    </defs>
    <g>
     <use xlink:href="#m92162a3bae" x="29.11" y="89.602069" style="stroke: #000000; stroke-linejoin: miter"/>
    </g>
   </g>
  </g>
  <g id="axes_2">
   <g id="patch_7">
    <path d="M 29.11 308.32 
L 476.6475 308.32 
L 476.6475 175.531862 
L 29.11 175.531862 
z
" style="fill: #ffffff"/>
   </g>
   <g id="line2d_31">
    <path d="M 29.11 241.925931 
L 476.6475 241.925931 
" clip-path="url(#p7c2ab875be)" style="fill: none; stroke: #808080; stroke-width: 1.2; stroke-linecap: square"/>
   </g>
   <g id="matplotlib.axis_3">
    <g id="xtick_7">
     <g id="line2d_32">
      <path d="M 29.11 308.32 
L 29.11 175.531862 
" clip-path="url(#p7c2ab875be)" style="fill: none; stroke: #b0b0b0; stroke-width: 0.8; stroke-linecap: square"/>
     </g>
     <g id="line2d_33">
      <g>
       <use xlink:href="#m618099a466" x="29.11" y="308.32" style="stroke: #000000; stroke-width: 0.8"/>
      </g>
     </g>
     <g id="text_4">
      <!-- 0.00 -->
      <g transform="translate(16.86 325.04125) scale(0.14 -0.14)">
       <defs>
        <path id="TimesNewRomanPSMT-2e" d="M 800 606 
Q 947 606 1047 504 
Q 1147 403 1147 259 
Q 1147 116 1045 14 
Q 944 -88 800 -88 
Q 656 -88 554 14 
Q 453 116 453 259 
Q 453 406 554 506 
Q 656 606 800 606 
z
" transform="scale(0.015625)"/>
       </defs>
       <use xlink:href="#TimesNewRomanPSMT-30"/>
       <use xlink:href="#TimesNewRomanPSMT-2e" transform="translate(50 0)"/>
       <use xlink:href="#TimesNewRomanPSMT-30" transform="translate(75 0)"/>
       <use xlink:href="#TimesNewRomanPSMT-30" transform="translate(125 0)"/>
      </g>
     </g>
    </g>
    <g id="xtick_8">
     <g id="line2d_34">
      <path d="M 118.6175 308.32 
L 118.6175 175.531862 
" clip-path="url(#p7c2ab875be)" style="fill: none; stroke: #b0b0b0; stroke-width: 0.8; stroke-linecap: square"/>
     </g>
     <g id="line2d_35">
      <g>
       <use xlink:href="#m618099a466" x="118.6175" y="308.32" style="stroke: #000000; stroke-width: 0.8"/>
      </g>
     </g>
     <g id="text_5">
      <!-- 0.02 -->
      <g transform="translate(106.3675 325.04125) scale(0.14 -0.14)">
       <defs>
        <path id="TimesNewRomanPSMT-32" d="M 2934 816 
L 2638 0 
L 138 0 
L 138 116 
Q 1241 1122 1691 1759 
Q 2141 2397 2141 2925 
Q 2141 3328 1894 3587 
Q 1647 3847 1303 3847 
Q 991 3847 742 3664 
Q 494 3481 375 3128 
L 259 3128 
Q 338 3706 661 4015 
Q 984 4325 1469 4325 
Q 1984 4325 2329 3994 
Q 2675 3663 2675 3213 
Q 2675 2891 2525 2569 
Q 2294 2063 1775 1497 
Q 997 647 803 472 
L 1909 472 
Q 2247 472 2383 497 
Q 2519 522 2628 598 
Q 2738 675 2819 816 
L 2934 816 
z
" transform="scale(0.015625)"/>
       </defs>
       <use xlink:href="#TimesNewRomanPSMT-30"/>
       <use xlink:href="#TimesNewRomanPSMT-2e" transform="translate(50 0)"/>
       <use xlink:href="#TimesNewRomanPSMT-30" transform="translate(75 0)"/>
       <use xlink:href="#TimesNewRomanPSMT-32" transform="translate(125 0)"/>
      </g>
     </g>
    </g>
    <g id="xtick_9">
     <g id="line2d_36">
      <path d="M 208.125 308.32 
L 208.125 175.531862 
" clip-path="url(#p7c2ab875be)" style="fill: none; stroke: #b0b0b0; stroke-width: 0.8; stroke-linecap: square"/>
     </g>
     <g id="line2d_37">
      <g>
       <use xlink:href="#m618099a466" x="208.125" y="308.32" style="stroke: #000000; stroke-width: 0.8"/>
      </g>
     </g>
     <g id="text_6">
      <!-- 0.04 -->
      <g transform="translate(195.875 325.04125) scale(0.14 -0.14)">
       <defs>
        <path id="TimesNewRomanPSMT-34" d="M 2978 1563 
L 2978 1119 
L 2409 1119 
L 2409 0 
L 1894 0 
L 1894 1119 
L 100 1119 
L 100 1519 
L 2066 4325 
L 2409 4325 
L 2409 1563 
L 2978 1563 
z
M 1894 1563 
L 1894 3666 
L 406 1563 
L 1894 1563 
z
" transform="scale(0.015625)"/>
       </defs>
       <use xlink:href="#TimesNewRomanPSMT-30"/>
       <use xlink:href="#TimesNewRomanPSMT-2e" transform="translate(50 0)"/>
       <use xlink:href="#TimesNewRomanPSMT-30" transform="translate(75 0)"/>
       <use xlink:href="#TimesNewRomanPSMT-34" transform="translate(125 0)"/>
      </g>
     </g>
    </g>
    <g id="xtick_10">
     <g id="line2d_38">
      <path d="M 297.6325 308.32 
L 297.6325 175.531862 
" clip-path="url(#p7c2ab875be)" style="fill: none; stroke: #b0b0b0; stroke-width: 0.8; stroke-linecap: square"/>
     </g>
     <g id="line2d_39">
      <g>
       <use xlink:href="#m618099a466" x="297.6325" y="308.32" style="stroke: #000000; stroke-width: 0.8"/>
      </g>
     </g>
     <g id="text_7">
      <!-- 0.06 -->
      <g transform="translate(285.3825 325.04125) scale(0.14 -0.14)">
       <defs>
        <path id="TimesNewRomanPSMT-36" d="M 2869 4325 
L 2869 4209 
Q 2456 4169 2195 4045 
Q 1934 3922 1679 3669 
Q 1425 3416 1258 3105 
Q 1091 2794 978 2366 
Q 1428 2675 1881 2675 
Q 2316 2675 2634 2325 
Q 2953 1975 2953 1425 
Q 2953 894 2631 456 
Q 2244 -75 1606 -75 
Q 1172 -75 869 213 
Q 275 772 275 1663 
Q 275 2231 503 2743 
Q 731 3256 1154 3653 
Q 1578 4050 1965 4187 
Q 2353 4325 2688 4325 
L 2869 4325 
z
M 925 2138 
Q 869 1716 869 1456 
Q 869 1156 980 804 
Q 1091 453 1309 247 
Q 1469 100 1697 100 
Q 1969 100 2183 356 
Q 2397 613 2397 1088 
Q 2397 1622 2184 2012 
Q 1972 2403 1581 2403 
Q 1463 2403 1327 2353 
Q 1191 2303 925 2138 
z
" transform="scale(0.015625)"/>
       </defs>
       <use xlink:href="#TimesNewRomanPSMT-30"/>
       <use xlink:href="#TimesNewRomanPSMT-2e" transform="translate(50 0)"/>
       <use xlink:href="#TimesNewRomanPSMT-30" transform="translate(75 0)"/>
       <use xlink:href="#TimesNewRomanPSMT-36" transform="translate(125 0)"/>
      </g>
     </g>
    </g>
    <g id="xtick_11">
     <g id="line2d_40">
      <path d="M 387.14 308.32 
L 387.14 175.531862 
" clip-path="url(#p7c2ab875be)" style="fill: none; stroke: #b0b0b0; stroke-width: 0.8; stroke-linecap: square"/>
     </g>
     <g id="line2d_41">
      <g>
       <use xlink:href="#m618099a466" x="387.14" y="308.32" style="stroke: #000000; stroke-width: 0.8"/>
      </g>
     </g>
     <g id="text_8">
      <!-- 0.08 -->
      <g transform="translate(374.89 325.04125) scale(0.14 -0.14)">
       <defs>
        <path id="TimesNewRomanPSMT-38" d="M 1228 2134 
Q 725 2547 579 2797 
Q 434 3047 434 3316 
Q 434 3728 753 4026 
Q 1072 4325 1600 4325 
Q 2113 4325 2425 4047 
Q 2738 3769 2738 3413 
Q 2738 3175 2569 2928 
Q 2400 2681 1866 2347 
Q 2416 1922 2594 1678 
Q 2831 1359 2831 1006 
Q 2831 559 2490 242 
Q 2150 -75 1597 -75 
Q 994 -75 656 303 
Q 388 606 388 966 
Q 388 1247 577 1523 
Q 766 1800 1228 2134 
z
M 1719 2469 
Q 2094 2806 2194 3001 
Q 2294 3197 2294 3444 
Q 2294 3772 2109 3958 
Q 1925 4144 1606 4144 
Q 1288 4144 1088 3959 
Q 888 3775 888 3528 
Q 888 3366 970 3203 
Q 1053 3041 1206 2894 
L 1719 2469 
z
M 1375 2016 
Q 1116 1797 991 1539 
Q 866 1281 866 981 
Q 866 578 1086 336 
Q 1306 94 1647 94 
Q 1984 94 2187 284 
Q 2391 475 2391 747 
Q 2391 972 2272 1150 
Q 2050 1481 1375 2016 
z
" transform="scale(0.015625)"/>
       </defs>
       <use xlink:href="#TimesNewRomanPSMT-30"/>
       <use xlink:href="#TimesNewRomanPSMT-2e" transform="translate(50 0)"/>
       <use xlink:href="#TimesNewRomanPSMT-30" transform="translate(75 0)"/>
       <use xlink:href="#TimesNewRomanPSMT-38" transform="translate(125 0)"/>
      </g>
     </g>
    </g>
    <g id="xtick_12">
     <g id="line2d_42">
      <path d="M 476.6475 308.32 
L 476.6475 175.531862 
" clip-path="url(#p7c2ab875be)" style="fill: none; stroke: #b0b0b0; stroke-width: 0.8; stroke-linecap: square"/>
     </g>
     <g id="line2d_43">
      <g>
       <use xlink:href="#m618099a466" x="476.6475" y="308.32" style="stroke: #000000; stroke-width: 0.8"/>
      </g>
     </g>
     <g id="text_9">
      <!-- 0.10 -->
      <g transform="translate(464.3975 325.04125) scale(0.14 -0.14)">
       <defs>
        <path id="TimesNewRomanPSMT-31" d="M 750 3822 
L 1781 4325 
L 1884 4325 
L 1884 747 
Q 1884 391 1914 303 
Q 1944 216 2037 169 
Q 2131 122 2419 116 
L 2419 0 
L 825 0 
L 825 116 
Q 1125 122 1212 167 
Q 1300 213 1334 289 
Q 1369 366 1369 747 
L 1369 3034 
Q 1369 3497 1338 3628 
Q 1316 3728 1258 3775 
Q 1200 3822 1119 3822 
Q 1003 3822 797 3725 
L 750 3822 
z
" transform="scale(0.015625)"/>
       </defs>
       <use xlink:href="#TimesNewRomanPSMT-30"/>
       <use xlink:href="#TimesNewRomanPSMT-2e" transform="translate(50 0)"/>
       <use xlink:href="#TimesNewRomanPSMT-31" transform="translate(75 0)"/>
       <use xlink:href="#TimesNewRomanPSMT-30" transform="translate(125 0)"/>
      </g>
     </g>
    </g>
    <g id="text_10">
     <!-- $t$ [s] -->
     <g transform="translate(241.74875 341.757187) scale(0.14 -0.14)">
      <defs>
       <path id="STIXGeneral-Italic-74" d="M 1894 2739 
L 1862 2534 
L 1325 2534 
L 768 435 
Q 755 384 755 346 
Q 755 243 851 243 
Q 928 243 1030 342 
Q 1133 442 1370 749 
L 1453 704 
Q 1158 256 969 93 
Q 781 -70 538 -70 
Q 243 -70 243 166 
Q 243 230 346 640 
L 845 2534 
L 365 2534 
L 358 2573 
Q 358 2688 570 2733 
Q 730 2771 992 2979 
Q 1254 3187 1421 3437 
Q 1459 3494 1510 3494 
Q 1568 3494 1568 3443 
Q 1568 3411 1562 3398 
L 1382 2739 
L 1894 2739 
z
" transform="scale(0.015625)"/>
       <path id="TimesNewRomanPSMT-20" transform="scale(0.015625)"/>
       <path id="TimesNewRomanPSMT-5b" d="M 1900 -1269 
L 525 -1269 
L 525 4334 
L 1900 4334 
L 1900 4088 
L 994 4088 
L 994 -1025 
L 1900 -1025 
L 1900 -1269 
z
" transform="scale(0.015625)"/>
       <path id="TimesNewRomanPSMT-73" d="M 2050 2947 
L 2050 1972 
L 1947 1972 
Q 1828 2431 1642 2597 
Q 1456 2763 1169 2763 
Q 950 2763 815 2647 
Q 681 2531 681 2391 
Q 681 2216 781 2091 
Q 878 1963 1175 1819 
L 1631 1597 
Q 2266 1288 2266 781 
Q 2266 391 1970 151 
Q 1675 -88 1309 -88 
Q 1047 -88 709 6 
Q 606 38 541 38 
Q 469 38 428 -44 
L 325 -44 
L 325 978 
L 428 978 
Q 516 541 762 319 
Q 1009 97 1316 97 
Q 1531 97 1667 223 
Q 1803 350 1803 528 
Q 1803 744 1651 891 
Q 1500 1038 1047 1263 
Q 594 1488 453 1669 
Q 313 1847 313 2119 
Q 313 2472 555 2709 
Q 797 2947 1181 2947 
Q 1350 2947 1591 2875 
Q 1750 2828 1803 2828 
Q 1853 2828 1881 2850 
Q 1909 2872 1947 2947 
L 2050 2947 
z
" transform="scale(0.015625)"/>
       <path id="TimesNewRomanPSMT-5d" d="M 234 4334 
L 1609 4334 
L 1609 -1272 
L 234 -1272 
L 234 -1025 
L 1141 -1025 
L 1141 4088 
L 234 4088 
L 234 4334 
z
" transform="scale(0.015625)"/>
      </defs>
      <use xlink:href="#STIXGeneral-Italic-74" transform="translate(0 0.28125)"/>
      <use xlink:href="#TimesNewRomanPSMT-20" transform="translate(27.799988 0.28125)"/>
      <use xlink:href="#TimesNewRomanPSMT-5b" transform="translate(52.799988 0.28125)"/>
      <use xlink:href="#TimesNewRomanPSMT-73" transform="translate(86.100769 0.28125)"/>
      <use xlink:href="#TimesNewRomanPSMT-5d" transform="translate(125.016785 0.28125)"/>
     </g>
    </g>
   </g>
   <g id="matplotlib.axis_4">
    <g id="ytick_8">
     <g id="line2d_44">
      <path d="M 29.11 298.835133 
L 476.6475 298.835133 
" clip-path="url(#p7c2ab875be)" style="fill: none; stroke: #b0b0b0; stroke-width: 0.8; stroke-linecap: square"/>
     </g>
     <g id="line2d_45">
      <g>
       <use xlink:href="#m7fac86ec0c" x="29.11" y="298.835133" style="stroke: #000000; stroke-width: 0.8"/>
      </g>
     </g>
    </g>
    <g id="ytick_9">
     <g id="line2d_46">
      <path d="M 29.11 279.865399 
L 476.6475 279.865399 
" clip-path="url(#p7c2ab875be)" style="fill: none; stroke: #b0b0b0; stroke-width: 0.8; stroke-linecap: square"/>
     </g>
     <g id="line2d_47">
      <g>
       <use xlink:href="#m7fac86ec0c" x="29.11" y="279.865399" style="stroke: #000000; stroke-width: 0.8"/>
      </g>
     </g>
    </g>
    <g id="ytick_10">
     <g id="line2d_48">
      <path d="M 29.11 260.895665 
L 476.6475 260.895665 
" clip-path="url(#p7c2ab875be)" style="fill: none; stroke: #b0b0b0; stroke-width: 0.8; stroke-linecap: square"/>
     </g>
     <g id="line2d_49">
      <g>
       <use xlink:href="#m7fac86ec0c" x="29.11" y="260.895665" style="stroke: #000000; stroke-width: 0.8"/>
      </g>
     </g>
    </g>
    <g id="ytick_11">
     <g id="line2d_50">
      <path d="M 29.11 241.925931 
L 476.6475 241.925931 
" clip-path="url(#p7c2ab875be)" style="fill: none; stroke: #b0b0b0; stroke-width: 0.8; stroke-linecap: square"/>
     </g>
     <g id="line2d_51">
      <g>
       <use xlink:href="#m7fac86ec0c" x="29.11" y="241.925931" style="stroke: #000000; stroke-width: 0.8"/>
      </g>
     </g>
     <g id="text_11">
      <!-- 0 -->
      <g transform="translate(15.11 246.786556) scale(0.14 -0.14)">
       <use xlink:href="#TimesNewRomanPSMT-30"/>
      </g>
     </g>
    </g>
    <g id="ytick_12">
     <g id="line2d_52">
      <path d="M 29.11 222.956197 
L 476.6475 222.956197 
" clip-path="url(#p7c2ab875be)" style="fill: none; stroke: #b0b0b0; stroke-width: 0.8; stroke-linecap: square"/>
     </g>
     <g id="line2d_53">
      <g>
       <use xlink:href="#m7fac86ec0c" x="29.11" y="222.956197" style="stroke: #000000; stroke-width: 0.8"/>
      </g>
     </g>
    </g>
    <g id="ytick_13">
     <g id="line2d_54">
      <path d="M 29.11 203.986463 
L 476.6475 203.986463 
" clip-path="url(#p7c2ab875be)" style="fill: none; stroke: #b0b0b0; stroke-width: 0.8; stroke-linecap: square"/>
     </g>
     <g id="line2d_55">
      <g>
       <use xlink:href="#m7fac86ec0c" x="29.11" y="203.986463" style="stroke: #000000; stroke-width: 0.8"/>
      </g>
     </g>
    </g>
    <g id="ytick_14">
     <g id="line2d_56">
      <path d="M 29.11 185.016729 
L 476.6475 185.016729 
" clip-path="url(#p7c2ab875be)" style="fill: none; stroke: #b0b0b0; stroke-width: 0.8; stroke-linecap: square"/>
     </g>
     <g id="line2d_57">
      <g>
       <use xlink:href="#m7fac86ec0c" x="29.11" y="185.016729" style="stroke: #000000; stroke-width: 0.8"/>
      </g>
     </g>
    </g>
   </g>
   <g id="line2d_58">
    <path d="M 29.11 241.925931 
L 34.48045 253.068115 
L 38.955825 261.840798 
L 42.983663 269.229562 
L 46.563963 275.340542 
L 50.144262 280.991656 
L 53.277025 285.547685 
L 56.409788 289.739063 
L 58.647475 292.512116 
L 61.780237 283.415571 
L 64.913 275.008632 
L 68.4933 266.064797 
L 72.521138 256.649703 
L 76.996512 246.765914 
L 82.366962 235.433431 
L 86.842337 226.438709 
L 90.870175 218.808948 
L 94.450475 212.460615 
L 98.030775 206.558721 
L 101.611075 201.12489 
L 104.743837 196.760962 
L 107.8766 192.759859 
L 108.324138 192.217502 
L 111.4569 201.358879 
L 114.589662 209.801469 
L 118.169962 218.777108 
L 122.1978 228.218831 
L 126.673175 238.122983 
L 132.043625 249.472628 
L 136.519 258.486858 
L 140.546837 266.138301 
L 144.127138 272.508299 
L 147.707437 278.433322 
L 151.287737 283.891027 
L 154.4205 288.275952 
L 157.553263 292.297766 
L 158.0008 292.84304 
L 161.133562 283.677064 
L 164.266325 275.214916 
L 167.846625 266.221828 
L 171.874462 256.765486 
L 176.349837 246.850132 
L 181.720287 235.491179 
L 186.195662 226.466443 
L 190.2235 218.803276 
L 193.8038 212.421531 
L 197.3841 206.48394 
L 200.9644 201.013234 
L 204.097163 196.616858 
L 207.229925 192.583733 
L 208.125 191.49724 
L 211.257763 200.589467 
L 214.390525 208.992972 
L 217.970825 217.933744 
L 221.998663 227.346274 
L 226.474038 237.228106 
L 231.844488 248.55892 
L 236.319862 257.551736 
L 240.3477 265.179383 
L 243.928 271.525605 
L 247.5083 277.425249 
L 251.0886 282.856758 
L 254.221362 287.218644 
L 257.354125 291.217733 
L 257.801663 291.759806 
L 260.934425 282.621409 
L 264.067187 274.181187 
L 267.647488 265.207658 
L 271.675325 255.767698 
L 276.1507 245.864892 
L 281.52115 234.516366 
L 285.996525 225.503392 
L 290.024362 217.85334 
L 293.604663 211.484726 
L 297.184963 205.561175 
L 300.765263 200.10498 
L 303.898025 195.721379 
L 307.030788 191.700865 
L 307.478325 191.155774 
L 310.611087 200.318122 
L 313.74385 208.777391 
L 317.32415 217.767915 
L 321.351988 227.222117 
L 325.827362 237.135835 
L 331.197813 248.49344 
L 335.673188 257.516663 
L 339.701025 265.178142 
L 343.281325 271.558195 
L 346.861625 277.493976 
L 350.441925 282.962808 
L 353.574687 287.357533 
L 356.70745 291.389026 
L 357.602525 292.47506 
L 360.735288 283.38376 
L 363.86805 274.980996 
L 367.44835 266.040889 
L 371.476187 256.628918 
L 375.951563 246.747517 
L 381.322013 235.417072 
L 385.797387 226.424683 
L 389.825225 218.79751 
L 393.405525 212.451762 
L 396.985825 206.552624 
L 400.566125 201.121639 
L 403.698888 196.760214 
L 406.83165 192.761582 
L 407.279188 192.219573 
L 410.41195 201.358373 
L 413.544713 209.798917 
L 417.125013 218.772732 
L 421.15285 228.212931 
L 425.628225 238.11592 
L 430.998675 249.4646 
L 435.47405 258.477746 
L 439.501888 266.127989 
L 443.082188 272.496793 
L 446.662487 278.420548 
L 450.242788 283.876951 
L 453.37555 288.260734 
L 456.508313 292.281426 
L 456.95585 292.826542 
L 460.088613 283.66196 
L 463.221375 275.200913 
L 466.801675 266.208802 
L 470.829513 256.753269 
L 475.304888 246.838529 
L 476.6475 243.952986 
L 476.6475 243.952986 
" clip-path="url(#p7c2ab875be)" style="fill: none; stroke: #0d8ec5; stroke-width: 1.8; stroke-linecap: square"/>
   </g>
   <g id="patch_8">
    <path d="M 29.11 308.32 
L 29.11 175.531862 
" style="fill: none; stroke: #a0a0a0; stroke-width: 0.8; stroke-linejoin: miter; stroke-linecap: square"/>
   </g>
   <g id="patch_9">
    <path d="M 29.11 308.32 
L 476.6475 308.32 
" style="fill: none; stroke: #a0a0a0; stroke-width: 0.8; stroke-linejoin: miter; stroke-linecap: square"/>
   </g>
   <g id="line2d_59">
    <path d="M 29.11 241.925931 
L 30.90015 243.226193 
L 32.6903 244.774088 
L 34.927988 247.030772 
L 37.165675 249.6094 
L 39.8509 253.070015 
L 42.983663 257.516099 
L 47.0115 263.690386 
L 54.1721 275.221162 
L 58.199937 281.650104 
L 58.647475 280.784702 
L 60.437625 274.46329 
L 62.227775 268.917965 
L 64.017925 264.052299 
L 65.808075 259.786391 
L 67.598225 256.053809 
L 69.388375 252.799201 
L 71.178525 249.976414 
L 72.968675 247.547012 
L 74.758825 245.479099 
L 76.548975 243.746387 
L 78.339125 242.327461 
L 81.02435 240.378438 
L 82.8145 238.789915 
L 85.052188 236.486916 
L 87.289875 233.867466 
L 89.9751 230.365655 
L 93.107863 225.882636 
L 97.1357 219.678268 
L 105.638913 205.978892 
L 107.8766 202.424745 
L 108.324138 202.381166 
L 110.114288 208.787102 
L 111.904438 214.406147 
L 113.694587 219.336601 
L 115.484738 223.659883 
L 117.274887 227.443665 
L 119.065038 230.744326 
L 120.855187 233.608875 
L 122.645337 236.076469 
L 124.435487 238.179618 
L 126.225638 239.945139 
L 128.015787 241.394911 
L 131.14855 243.695152 
L 133.386237 245.760477 
L 135.623925 248.168936 
L 137.861612 250.88077 
L 140.546837 254.475051 
L 143.6796 259.0399 
L 147.707437 265.309056 
L 158.0008 281.847161 
L 159.79095 275.394774 
L 161.5811 269.735241 
L 163.37125 264.769229 
L 165.1614 260.414483 
L 166.95155 256.602644 
L 168.7417 253.276768 
L 170.53185 250.389375 
L 172.322 247.900909 
L 174.11215 245.77852 
L 175.9023 243.995101 
L 177.69245 242.528517 
L 181.27275 239.858276 
L 183.510438 237.736916 
L 185.748125 235.278385 
L 188.43335 231.940068 
L 191.118575 228.249203 
L 194.698875 222.913281 
L 199.621787 215.107475 
L 207.677462 202.159071 
L 208.125 203.133221 
L 209.91515 209.446497 
L 211.7053 214.984725 
L 213.49545 219.844153 
L 215.2856 224.104535 
L 217.07575 227.832182 
L 218.8659 231.08235 
L 220.65605 233.901108 
L 222.4462 236.326823 
L 224.23635 238.391333 
L 226.0265 240.120873 
L 227.81665 241.536814 
L 230.501875 243.48783 
L 232.292025 245.078668 
L 234.529713 247.384301 
L 236.7674 250.006067 
L 239.452625 253.510207 
L 242.585388 257.995304 
L 246.613225 264.201347 
L 255.116438 277.901053 
L 257.354125 281.454713 
L 257.801663 281.425088 
L 259.591813 275.024788 
L 261.381962 269.410659 
L 263.172112 264.484525 
L 264.962263 260.165068 
L 266.752412 256.384699 
L 268.542562 253.087106 
L 270.332713 250.225338 
L 272.122862 247.760285 
L 273.913012 245.659478 
L 275.703163 243.896133 
L 277.493313 242.448402 
L 280.626075 240.14683 
L 282.863763 238.079645 
L 285.10145 235.669536 
L 287.786675 232.380979 
L 290.4719 228.730265 
L 294.0522 223.432723 
L 298.527575 216.373668 
L 307.478325 202.060272 
L 309.268475 208.505753 
L 311.058625 214.159267 
L 312.848775 219.119996 
L 314.638925 223.470071 
L 316.429075 227.277749 
L 318.219225 230.599892 
L 320.009375 233.48391 
L 321.799525 235.9693 
L 323.589675 238.088858 
L 325.379825 239.869652 
L 327.169975 241.333775 
L 330.750275 244.005891 
L 332.987963 246.129492 
L 335.22565 248.590021 
L 337.910875 251.930388 
L 340.5961 255.622904 
L 344.1764 260.9604 
L 349.099312 268.767263 
L 357.154988 281.715071 
L 357.602525 280.70448 
L 359.392675 274.392914 
L 361.182825 268.856181 
L 362.972975 263.99807 
L 364.763125 259.738859 
L 366.553275 256.012259 
L 368.343425 252.763038 
L 370.133575 249.945142 
L 371.923725 247.520219 
L 373.713875 245.456445 
L 375.504025 243.727594 
L 377.294175 242.312303 
L 379.9794 240.360827 
L 381.76955 238.769467 
L 384.007237 236.463238 
L 386.244925 233.840944 
L 388.93015 230.336271 
L 392.062913 225.850696 
L 396.09075 219.644265 
L 404.593963 205.94445 
L 406.83165 202.39089 
L 407.279188 202.420595 
L 409.069338 208.821656 
L 410.859488 214.436449 
L 412.649637 219.363168 
L 414.439788 223.683142 
L 416.229938 227.463973 
L 418.020088 230.761981 
L 419.810238 233.624126 
L 421.600388 236.089523 
L 423.390537 238.190648 
L 425.180687 239.954288 
L 426.970838 241.402295 
L 430.1036 243.70368 
L 432.341288 245.770608 
L 434.578975 248.180488 
L 437.2642 251.468811 
L 439.949425 255.119338 
L 443.529725 260.416705 
L 448.0051 267.475659 
L 456.95585 281.825796 
L 458.746 275.376097 
L 460.53615 269.718907 
L 462.3263 264.754951 
L 464.11645 260.402022 
L 465.9066 256.591799 
L 467.69675 253.26737 
L 469.4869 250.381281 
L 471.27705 247.894 
L 473.0672 245.772697 
L 474.85735 243.990281 
L 476.6475 242.524631 
L 476.6475 242.524631 
" clip-path="url(#p7c2ab875be)" style="fill: none; stroke: #ff7f0e; stroke-width: 1.8; stroke-linecap: square"/>
   </g>
   <g id="patch_10">
    <path d="M 328.741555 194.232789 
Q 319.048253 197.801116 310.613991 200.905961 
" style="fill: none; stroke: #ff7f0e; stroke-width: 1.2; stroke-linecap: round"/>
    <path d="M 317.725437 201.698012 
L 310.613991 200.905961 
L 315.514499 195.692035 
" style="fill: none; stroke: #ff7f0e; stroke-width: 1.2; stroke-linecap: round"/>
   </g>
   <g id="text_12">
    <!-- $i_q$ [2 A/div.] -->
    <g style="fill: #ff7f0e" transform="translate(317.478325 187.060272) scale(0.16 -0.16)">
     <defs>
      <path id="STIXGeneral-Italic-69" d="M 1690 3834 
Q 1690 3699 1597 3603 
Q 1504 3507 1376 3507 
Q 1235 3507 1152 3600 
Q 1069 3693 1069 3846 
Q 1069 3994 1155 4090 
Q 1242 4186 1370 4186 
Q 1498 4186 1594 4080 
Q 1690 3974 1690 3834 
z
M 1421 730 
L 1504 659 
Q 1235 243 1049 86 
Q 864 -70 627 -70 
Q 314 -70 314 282 
Q 314 467 454 992 
L 762 2125 
Q 819 2330 819 2406 
Q 819 2502 745 2528 
Q 672 2554 410 2560 
L 410 2662 
Q 704 2688 1434 2822 
L 1459 2803 
L 858 608 
Q 794 390 794 326 
Q 794 230 883 230 
Q 1043 230 1421 730 
z
" transform="scale(0.015625)"/>
      <path id="TimesNewRomanPS-BoldMT-32" d="M 2650 0 
L 156 0 
L 156 69 
Q 1303 1434 1548 1906 
Q 1794 2378 1794 2828 
Q 1794 3156 1591 3373 
Q 1388 3591 1094 3591 
Q 613 3591 347 3109 
L 231 3150 
Q 400 3750 744 4037 
Q 1088 4325 1538 4325 
Q 1859 4325 2125 4175 
Q 2391 4025 2541 3764 
Q 2691 3503 2691 3275 
Q 2691 2859 2459 2431 
Q 2144 1853 1081 819 
L 1997 819 
Q 2334 819 2436 847 
Q 2538 875 2603 942 
Q 2669 1009 2775 1225 
L 2888 1225 
L 2650 0 
z
" transform="scale(0.015625)"/>
      <path id="TimesNewRomanPS-BoldMT-41" d="M 2663 1206 
L 1166 1206 
L 988 794 
Q 900 588 900 453 
Q 900 275 1044 191 
Q 1128 141 1459 116 
L 1459 0 
L 50 0 
L 50 116 
Q 278 150 425 304 
Q 572 459 788 944 
L 2303 4325 
L 2363 4325 
L 3891 850 
Q 4109 356 4250 228 
Q 4356 131 4550 116 
L 4550 0 
L 2500 0 
L 2500 116 
L 2584 116 
Q 2831 116 2931 184 
Q 3000 234 3000 328 
Q 3000 384 2981 444 
Q 2975 472 2888 678 
L 2663 1206 
z
M 2556 1438 
L 1925 2897 
L 1275 1438 
L 2556 1438 
z
" transform="scale(0.015625)"/>
     </defs>
     <use xlink:href="#STIXGeneral-Italic-69" transform="translate(0 0.21875)"/>
     <use xlink:href="#STIXGeneral-Italic-71" transform="translate(27.799988 -13.009375) scale(0.7)"/>
     <use xlink:href="#TimesNewRomanPS-BoldMT-20" transform="translate(67.209352 0.21875)"/>
     <use xlink:href="#TimesNewRomanPS-BoldMT-5b" transform="translate(92.209352 0.21875)"/>
     <use xlink:href="#TimesNewRomanPS-BoldMT-32" transform="translate(125.510133 0.21875)"/>
     <use xlink:href="#TimesNewRomanPS-BoldMT-20" transform="translate(175.510133 0.21875)"/>
     <use xlink:href="#TimesNewRomanPS-BoldMT-41" transform="translate(200.510133 0.21875)"/>
     <use xlink:href="#TimesNewRomanPS-BoldMT-2f" transform="translate(272.72693 0.21875)"/>
     <use xlink:href="#TimesNewRomanPS-BoldMT-64" transform="translate(300.510133 0.21875)"/>
     <use xlink:href="#TimesNewRomanPS-BoldMT-69" transform="translate(356.125368 0.21875)"/>
     <use xlink:href="#TimesNewRomanPS-BoldMT-76" transform="translate(383.908571 0.21875)"/>
     <use xlink:href="#TimesNewRomanPS-BoldMT-2e" transform="translate(433.908571 0.21875)"/>
     <use xlink:href="#TimesNewRomanPS-BoldMT-5d" transform="translate(458.908571 0.21875)"/>
    </g>
   </g>
   <g id="patch_11">
    <path d="M 181.9069 299.431335 
Q 170.918324 296.402987 161.223169 293.731094 
" style="fill: none; stroke: #0d8ec5; stroke-width: 1.2; stroke-linecap: round"/>
    <path d="M 166.542956 298.516474 
L 161.223169 293.731094 
L 168.243345 292.346492 
" style="fill: none; stroke: #0d8ec5; stroke-width: 1.2; stroke-linecap: round"/>
   </g>
   <g id="text_13">
    <!-- $\psi_q$ [0.2 Vs/div.] -->
    <g style="fill: #0d8ec5" transform="translate(168.0008 312.84304) scale(0.16 -0.16)">
     <defs>
      <path id="STIXGeneral-Italic-3c8" d="M 4275 2822 
L 4275 2720 
Q 4096 2688 3955 2579 
Q 3814 2470 3731 2355 
Q 3648 2240 3571 2022 
Q 3494 1805 3465 1689 
Q 3437 1574 3379 1331 
Q 3059 -70 1722 -70 
L 1376 -1312 
L 890 -1312 
L 1235 -70 
L 1178 -70 
Q 736 -70 550 64 
Q 211 307 211 864 
Q 211 1101 332 1517 
Q 454 1933 454 2144 
Q 454 2682 96 2720 
L 102 2822 
L 442 2822 
Q 973 2822 973 2170 
Q 973 1990 861 1472 
Q 749 954 749 768 
Q 749 397 880 230 
Q 1011 64 1274 64 
L 2010 2739 
L 2496 2739 
L 1760 64 
Q 1997 64 2195 198 
Q 2675 538 2867 1395 
Q 2931 1670 2976 1830 
Q 3021 1990 3120 2204 
Q 3219 2419 3340 2534 
Q 3462 2650 3667 2736 
Q 3872 2822 4134 2822 
L 4275 2822 
z
" transform="scale(0.015625)"/>
      <path id="TimesNewRomanPS-BoldMT-73" d="M 2063 3003 
L 2109 2006 
L 2003 2006 
Q 1813 2450 1608 2612 
Q 1403 2775 1200 2775 
Q 1072 2775 981 2689 
Q 891 2603 891 2491 
Q 891 2406 953 2328 
Q 1053 2200 1512 1889 
Q 1972 1578 2117 1361 
Q 2263 1144 2263 875 
Q 2263 631 2141 397 
Q 2019 163 1797 37 
Q 1575 -88 1306 -88 
Q 1097 -88 747 44 
Q 653 78 619 78 
Q 516 78 447 -78 
L 344 -78 
L 294 972 
L 400 972 
Q 541 559 786 353 
Q 1031 147 1250 147 
Q 1400 147 1495 239 
Q 1591 331 1591 463 
Q 1591 613 1497 722 
Q 1403 831 1078 1053 
Q 600 1384 459 1559 
Q 253 1816 253 2125 
Q 253 2463 486 2736 
Q 719 3009 1159 3009 
Q 1397 3009 1619 2894 
Q 1703 2847 1756 2847 
Q 1813 2847 1847 2870 
Q 1881 2894 1956 3003 
L 2063 3003 
z
" transform="scale(0.015625)"/>
     </defs>
     <use xlink:href="#STIXGeneral-Italic-3c8" transform="translate(0 0.21875)"/>
     <use xlink:href="#STIXGeneral-Italic-71" transform="translate(58.399994 -13.009375) scale(0.7)"/>
     <use xlink:href="#TimesNewRomanPS-BoldMT-20" transform="translate(97.809358 0.21875)"/>
     <use xlink:href="#TimesNewRomanPS-BoldMT-5b" transform="translate(122.809358 0.21875)"/>
     <use xlink:href="#TimesNewRomanPS-BoldMT-30" transform="translate(156.110139 0.21875)"/>
     <use xlink:href="#TimesNewRomanPS-BoldMT-2e" transform="translate(206.110139 0.21875)"/>
     <use xlink:href="#TimesNewRomanPS-BoldMT-32" transform="translate(231.110139 0.21875)"/>
     <use xlink:href="#TimesNewRomanPS-BoldMT-20" transform="translate(281.110139 0.21875)"/>
     <use xlink:href="#TimesNewRomanPS-BoldMT-56" transform="translate(306.110139 0.21875)"/>
     <use xlink:href="#TimesNewRomanPS-BoldMT-73" transform="translate(378.326936 0.21875)"/>
     <use xlink:href="#TimesNewRomanPS-BoldMT-2f" transform="translate(417.242952 0.21875)"/>
     <use xlink:href="#TimesNewRomanPS-BoldMT-64" transform="translate(445.026155 0.21875)"/>
     <use xlink:href="#TimesNewRomanPS-BoldMT-69" transform="translate(500.641389 0.21875)"/>
     <use xlink:href="#TimesNewRomanPS-BoldMT-76" transform="translate(528.424593 0.21875)"/>
     <use xlink:href="#TimesNewRomanPS-BoldMT-2e" transform="translate(578.424593 0.21875)"/>
     <use xlink:href="#TimesNewRomanPS-BoldMT-5d" transform="translate(603.424593 0.21875)"/>
    </g>
   </g>
   <g id="line2d_60">
    <path d="M 29.11 241.925931 
" style="fill: none; stroke: #000000; stroke-width: 1.5; stroke-linecap: square"/>
    <g>
     <use xlink:href="#m92162a3bae" x="29.11" y="241.925931" style="stroke: #000000; stroke-linejoin: miter"/>
    </g>
   </g>
  </g>
 </g>
 <defs>
  <clipPath id="pe8983509f9">
   <rect x="29.11" y="23.208" width="447.5375" height="132.788138"/>
  </clipPath>
  <clipPath id="p7c2ab875be">
   <rect x="29.11" y="175.531862" width="447.5375" height="132.788138"/>
  </clipPath>
 </defs>
</svg>
