<?xml version="1.0" encoding="utf-8" standalone="no"?>
<!DOCTYPE svg PUBLIC "-//W3C//DTD SVG 1.1//EN"
  "http://www.w3.org/Graphics/SVG/1.1/DTD/svg11.dtd">
<svg xmlns:xlink="http://www.w3.org/1999/xlink" width="936pt" height="360pt" viewBox="0 0 936 360" xmlns="http://www.w3.org/2000/svg" version="1.1">
 <metadata>
  <rdf:RDF xmlns:dc="http://purl.org/dc/elements/1.1/" xmlns:cc="http://creativecommons.org/ns#" xmlns:rdf="http://www.w3.org/1999/02/22-rdf-syntax-ns#">
   <cc:Work>
    <dc:type rdf:resource="http://purl.org/dc/dcmitype/StillImage"/>
    <dc:date>2026-05-03T03:10:31.947745</dc:date>
    <dc:format>image/svg+xml</dc:format>
    <dc:creator>
     <cc:Agent>
      <dc:title>Matplotlib v3.10.0, https://matplotlib.org/</dc:title>
     </cc:Agent>
    </dc:creator>
   </cc:Work>
  </rdf:RDF>
 </metadata>
 <defs>
  <style type="text/css">*{stroke-linejoin: round; stroke-linecap: butt}</style>
 </defs>
 <g id="figure_1">
  <g id="patch_1">
   <path d="M 0 360 
L 936 360 
L 936 0 
L 0 0 
z
" style="fill: #ffffff"/>
  </g>
  <g id="axes_1">
   <g id="patch_2">
    <path d="M 77.971813 291.4 
L 453.207876 291.4 
L 453.207876 42 
L 77.971813 42 
z
" style="fill: #ffffff"/>
   </g>
   <g id="matplotlib.axis_1">
    <g id="xtick_1">
     <g id="line2d_1">
      <path d="M 93.313808 291.4 
L 93.313808 42 
" clip-path="url(#pc1dfe5c525)" style="fill: none; stroke-dasharray: 2.96,1.28; stroke-dashoffset: 0; stroke: #b0b0b0; stroke-opacity: 0.6; stroke-width: 0.8"/>
     </g>
     <g id="line2d_2">
      <defs>
       <path id="m4e9f695980" d="M 0 0 
L 0 3.5 
" style="stroke: #000000; stroke-width: 0.8"/>
      </defs>
      <g>
       <use xlink:href="#m4e9f695980" x="93.313808" y="291.4" style="stroke: #000000; stroke-width: 0.8"/>
      </g>
     </g>
     <g id="text_1">
      <!-- 0 -->
      <g transform="translate(88.313808 312.2875) scale(0.2 -0.2)">
       <defs>
        <path id="TimesNewRomanPSMT-30" d="M 231 2094 
Q 231 2819 450 3342 
Q 669 3866 1031 4122 
Q 1313 4325 1613 4325 
Q 2100 4325 2488 3828 
Q 2972 3213 2972 2159 
Q 2972 1422 2759 906 
Q 2547 391 2217 158 
Q 1888 -75 1581 -75 
Q 975 -75 572 641 
Q 231 1244 231 2094 
z
M 844 2016 
Q 844 1141 1059 588 
Q 1238 122 1591 122 
Q 1759 122 1940 273 
Q 2122 425 2216 781 
Q 2359 1319 2359 2297 
Q 2359 3022 2209 3506 
Q 2097 3866 1919 4016 
Q 1791 4119 1609 4119 
Q 1397 4119 1231 3928 
Q 1006 3669 925 3112 
Q 844 2556 844 2016 
z
" transform="scale(0.015625)"/>
       </defs>
       <use xlink:href="#TimesNewRomanPSMT-30"/>
      </g>
     </g>
    </g>
    <g id="xtick_2">
     <g id="line2d_3">
      <path d="M 179.023279 291.4 
L 179.023279 42 
" clip-path="url(#pc1dfe5c525)" style="fill: none; stroke-dasharray: 2.96,1.28; stroke-dashoffset: 0; stroke: #b0b0b0; stroke-opacity: 0.6; stroke-width: 0.8"/>
     </g>
     <g id="line2d_4">
      <g>
       <use xlink:href="#m4e9f695980" x="179.023279" y="291.4" style="stroke: #000000; stroke-width: 0.8"/>
      </g>
     </g>
     <g id="text_2">
      <!-- 50 -->
      <g transform="translate(169.023279 312.2875) scale(0.2 -0.2)">
       <defs>
        <path id="TimesNewRomanPSMT-35" d="M 2778 4238 
L 2534 3706 
L 1259 3706 
L 981 3138 
Q 1809 3016 2294 2522 
Q 2709 2097 2709 1522 
Q 2709 1188 2573 903 
Q 2438 619 2231 419 
Q 2025 219 1772 97 
Q 1413 -75 1034 -75 
Q 653 -75 479 54 
Q 306 184 306 341 
Q 306 428 378 495 
Q 450 563 559 563 
Q 641 563 702 538 
Q 763 513 909 409 
Q 1144 247 1384 247 
Q 1750 247 2026 523 
Q 2303 800 2303 1197 
Q 2303 1581 2056 1914 
Q 1809 2247 1375 2428 
Q 1034 2569 447 2591 
L 1259 4238 
L 2778 4238 
z
" transform="scale(0.015625)"/>
       </defs>
       <use xlink:href="#TimesNewRomanPSMT-35"/>
       <use xlink:href="#TimesNewRomanPSMT-30" transform="translate(50 0)"/>
      </g>
     </g>
    </g>
    <g id="xtick_3">
     <g id="line2d_5">
      <path d="M 264.732749 291.4 
L 264.732749 42 
" clip-path="url(#pc1dfe5c525)" style="fill: none; stroke-dasharray: 2.96,1.28; stroke-dashoffset: 0; stroke: #b0b0b0; stroke-opacity: 0.6; stroke-width: 0.8"/>
     </g>
     <g id="line2d_6">
      <g>
       <use xlink:href="#m4e9f695980" x="264.732749" y="291.4" style="stroke: #000000; stroke-width: 0.8"/>
      </g>
     </g>
     <g id="text_3">
      <!-- 100 -->
      <g transform="translate(249.732749 312.2875) scale(0.2 -0.2)">
       <defs>
        <path id="TimesNewRomanPSMT-31" d="M 750 3822 
L 1781 4325 
L 1884 4325 
L 1884 747 
Q 1884 391 1914 303 
Q 1944 216 2037 169 
Q 2131 122 2419 116 
L 2419 0 
L 825 0 
L 825 116 
Q 1125 122 1212 167 
Q 1300 213 1334 289 
Q 1369 366 1369 747 
L 1369 3034 
Q 1369 3497 1338 3628 
Q 1316 3728 1258 3775 
Q 1200 3822 1119 3822 
Q 1003 3822 797 3725 
L 750 3822 
z
" transform="scale(0.015625)"/>
       </defs>
       <use xlink:href="#TimesNewRomanPSMT-31"/>
       <use xlink:href="#TimesNewRomanPSMT-30" transform="translate(50 0)"/>
       <use xlink:href="#TimesNewRomanPSMT-30" transform="translate(100 0)"/>
      </g>
     </g>
    </g>
    <g id="xtick_4">
     <g id="line2d_7">
      <path d="M 350.44222 291.4 
L 350.44222 42 
" clip-path="url(#pc1dfe5c525)" style="fill: none; stroke-dasharray: 2.96,1.28; stroke-dashoffset: 0; stroke: #b0b0b0; stroke-opacity: 0.6; stroke-width: 0.8"/>
     </g>
     <g id="line2d_8">
      <g>
       <use xlink:href="#m4e9f695980" x="350.44222" y="291.4" style="stroke: #000000; stroke-width: 0.8"/>
      </g>
     </g>
     <g id="text_4">
      <!-- 150 -->
      <g transform="translate(335.44222 312.2875) scale(0.2 -0.2)">
       <use xlink:href="#TimesNewRomanPSMT-31"/>
       <use xlink:href="#TimesNewRomanPSMT-35" transform="translate(50 0)"/>
       <use xlink:href="#TimesNewRomanPSMT-30" transform="translate(100 0)"/>
      </g>
     </g>
    </g>
    <g id="xtick_5">
     <g id="line2d_9">
      <path d="M 436.151691 291.4 
L 436.151691 42 
" clip-path="url(#pc1dfe5c525)" style="fill: none; stroke-dasharray: 2.96,1.28; stroke-dashoffset: 0; stroke: #b0b0b0; stroke-opacity: 0.6; stroke-width: 0.8"/>
     </g>
     <g id="line2d_10">
      <g>
       <use xlink:href="#m4e9f695980" x="436.151691" y="291.4" style="stroke: #000000; stroke-width: 0.8"/>
      </g>
     </g>
     <g id="text_5">
      <!-- 200 -->
      <g transform="translate(421.151691 312.2875) scale(0.2 -0.2)">
       <defs>
        <path id="TimesNewRomanPSMT-32" d="M 2934 816 
L 2638 0 
L 138 0 
L 138 116 
Q 1241 1122 1691 1759 
Q 2141 2397 2141 2925 
Q 2141 3328 1894 3587 
Q 1647 3847 1303 3847 
Q 991 3847 742 3664 
Q 494 3481 375 3128 
L 259 3128 
Q 338 3706 661 4015 
Q 984 4325 1469 4325 
Q 1984 4325 2329 3994 
Q 2675 3663 2675 3213 
Q 2675 2891 2525 2569 
Q 2294 2063 1775 1497 
Q 997 647 803 472 
L 1909 472 
Q 2247 472 2383 497 
Q 2519 522 2628 598 
Q 2738 675 2819 816 
L 2934 816 
z
" transform="scale(0.015625)"/>
       </defs>
       <use xlink:href="#TimesNewRomanPSMT-32"/>
       <use xlink:href="#TimesNewRomanPSMT-30" transform="translate(50 0)"/>
       <use xlink:href="#TimesNewRomanPSMT-30" transform="translate(100 0)"/>
      </g>
     </g>
    </g>
    <g id="text_6">
     <!-- Epoch -->
     <g transform="translate(240.042969 334.453125) scale(0.2 -0.2)">
      <defs>
       <path id="TimesNewRomanPSMT-45" d="M 1338 4006 
L 1338 2331 
L 2269 2331 
Q 2631 2331 2753 2441 
Q 2916 2584 2934 2947 
L 3050 2947 
L 3050 1472 
L 2934 1472 
Q 2891 1781 2847 1869 
Q 2791 1978 2662 2040 
Q 2534 2103 2269 2103 
L 1338 2103 
L 1338 706 
Q 1338 425 1363 364 
Q 1388 303 1450 267 
Q 1513 231 1688 231 
L 2406 231 
Q 2766 231 2928 281 
Q 3091 331 3241 478 
Q 3434 672 3638 1063 
L 3763 1063 
L 3397 0 
L 131 0 
L 131 116 
L 281 116 
Q 431 116 566 188 
Q 666 238 702 338 
Q 738 438 738 747 
L 738 3500 
Q 738 3903 656 3997 
Q 544 4122 281 4122 
L 131 4122 
L 131 4238 
L 3397 4238 
L 3444 3309 
L 3322 3309 
Q 3256 3644 3176 3769 
Q 3097 3894 2941 3959 
Q 2816 4006 2500 4006 
L 1338 4006 
z
" transform="scale(0.015625)"/>
       <path id="TimesNewRomanPSMT-70" d="M -6 2578 
L 875 2934 
L 994 2934 
L 994 2266 
Q 1216 2644 1439 2795 
Q 1663 2947 1909 2947 
Q 2341 2947 2628 2609 
Q 2981 2197 2981 1534 
Q 2981 794 2556 309 
Q 2206 -88 1675 -88 
Q 1444 -88 1275 -22 
Q 1150 25 994 166 
L 994 -706 
Q 994 -1000 1030 -1079 
Q 1066 -1159 1155 -1206 
Q 1244 -1253 1478 -1253 
L 1478 -1369 
L -22 -1369 
L -22 -1253 
L 56 -1253 
Q 228 -1256 350 -1188 
Q 409 -1153 442 -1076 
Q 475 -1000 475 -688 
L 475 2019 
Q 475 2297 450 2372 
Q 425 2447 370 2484 
Q 316 2522 222 2522 
Q 147 2522 31 2478 
L -6 2578 
z
M 994 2081 
L 994 1013 
Q 994 666 1022 556 
Q 1066 375 1236 237 
Q 1406 100 1666 100 
Q 1978 100 2172 344 
Q 2425 663 2425 1241 
Q 2425 1897 2138 2250 
Q 1938 2494 1663 2494 
Q 1513 2494 1366 2419 
Q 1253 2363 994 2081 
z
" transform="scale(0.015625)"/>
       <path id="TimesNewRomanPSMT-6f" d="M 1600 2947 
Q 2250 2947 2644 2453 
Q 2978 2031 2978 1484 
Q 2978 1100 2793 706 
Q 2609 313 2286 112 
Q 1963 -88 1566 -88 
Q 919 -88 538 428 
Q 216 863 216 1403 
Q 216 1797 411 2186 
Q 606 2575 925 2761 
Q 1244 2947 1600 2947 
z
M 1503 2744 
Q 1338 2744 1170 2645 
Q 1003 2547 900 2300 
Q 797 2053 797 1666 
Q 797 1041 1045 587 
Q 1294 134 1700 134 
Q 2003 134 2200 384 
Q 2397 634 2397 1244 
Q 2397 2006 2069 2444 
Q 1847 2744 1503 2744 
z
" transform="scale(0.015625)"/>
       <path id="TimesNewRomanPSMT-63" d="M 2631 1088 
Q 2516 522 2178 217 
Q 1841 -88 1431 -88 
Q 944 -88 581 321 
Q 219 731 219 1428 
Q 219 2103 620 2525 
Q 1022 2947 1584 2947 
Q 2006 2947 2278 2723 
Q 2550 2500 2550 2259 
Q 2550 2141 2473 2067 
Q 2397 1994 2259 1994 
Q 2075 1994 1981 2113 
Q 1928 2178 1911 2362 
Q 1894 2547 1784 2644 
Q 1675 2738 1481 2738 
Q 1169 2738 978 2506 
Q 725 2200 725 1697 
Q 725 1184 976 792 
Q 1228 400 1656 400 
Q 1963 400 2206 609 
Q 2378 753 2541 1131 
L 2631 1088 
z
" transform="scale(0.015625)"/>
       <path id="TimesNewRomanPSMT-68" d="M 1041 4444 
L 1041 2350 
Q 1388 2731 1591 2839 
Q 1794 2947 1997 2947 
Q 2241 2947 2416 2812 
Q 2591 2678 2675 2391 
Q 2734 2191 2734 1659 
L 2734 647 
Q 2734 375 2778 275 
Q 2809 200 2884 156 
Q 2959 113 3159 113 
L 3159 0 
L 1753 0 
L 1753 113 
L 1819 113 
Q 2019 113 2097 173 
Q 2175 234 2206 353 
Q 2216 403 2216 647 
L 2216 1659 
Q 2216 2128 2167 2275 
Q 2119 2422 2012 2495 
Q 1906 2569 1756 2569 
Q 1603 2569 1437 2487 
Q 1272 2406 1041 2159 
L 1041 647 
Q 1041 353 1073 281 
Q 1106 209 1195 161 
Q 1284 113 1503 113 
L 1503 0 
L 84 0 
L 84 113 
Q 275 113 384 172 
Q 447 203 484 290 
Q 522 378 522 647 
L 522 3238 
Q 522 3728 498 3840 
Q 475 3953 426 3993 
Q 378 4034 297 4034 
Q 231 4034 84 3984 
L 41 4094 
L 897 4444 
L 1041 4444 
z
" transform="scale(0.015625)"/>
      </defs>
      <use xlink:href="#TimesNewRomanPSMT-45"/>
      <use xlink:href="#TimesNewRomanPSMT-70" transform="translate(61.083984 0)"/>
      <use xlink:href="#TimesNewRomanPSMT-6f" transform="translate(111.083984 0)"/>
      <use xlink:href="#TimesNewRomanPSMT-63" transform="translate(161.083984 0)"/>
      <use xlink:href="#TimesNewRomanPSMT-68" transform="translate(205.46875 0)"/>
     </g>
    </g>
   </g>
   <g id="matplotlib.axis_2">
    <g id="ytick_1">
     <g id="line2d_11">
      <path d="M 77.971813 53.336364 
L 453.207876 53.336364 
" clip-path="url(#pc1dfe5c525)" style="fill: none; stroke-dasharray: 2.96,1.28; stroke-dashoffset: 0; stroke: #b0b0b0; stroke-opacity: 0.6; stroke-width: 0.8"/>
     </g>
     <g id="line2d_12">
      <defs>
       <path id="m8594b86edb" d="M 0 0 
L -3.5 0 
" style="stroke: #000000; stroke-width: 0.8"/>
      </defs>
      <g>
       <use xlink:href="#m8594b86edb" x="77.971813" y="53.336364" style="stroke: #000000; stroke-width: 0.8"/>
      </g>
     </g>
     <g id="text_7">
      <!-- $\mathdefault{10^{0}}$ -->
      <g transform="translate(42.771813 62.197301) scale(0.2 -0.2)">
       <use xlink:href="#TimesNewRomanPSMT-31" transform="translate(0 0.582813)"/>
       <use xlink:href="#TimesNewRomanPSMT-30" transform="translate(50 0.582813)"/>
       <use xlink:href="#TimesNewRomanPSMT-30" transform="translate(101.502813 60.695312) scale(0.7)"/>
      </g>
     </g>
    </g>
    <g id="text_8">
     <!-- Weight Value (SymLog Scale) -->
     <g transform="translate(34.456187 288.1875) rotate(-90) scale(0.2 -0.2)">
      <defs>
       <path id="TimesNewRomanPSMT-57" d="M 5991 4238 
L 5991 4122 
Q 5825 4122 5722 4062 
Q 5619 4003 5525 3841 
Q 5463 3731 5328 3319 
L 4147 -97 
L 4022 -97 
L 3056 2613 
L 2097 -97 
L 1984 -97 
L 725 3422 
Q 584 3816 547 3888 
Q 484 4006 376 4064 
Q 269 4122 84 4122 
L 84 4238 
L 1653 4238 
L 1653 4122 
L 1578 4122 
Q 1413 4122 1325 4047 
Q 1238 3972 1238 3866 
Q 1238 3756 1375 3363 
L 2209 984 
L 2913 3006 
L 2788 3363 
L 2688 3647 
Q 2622 3803 2541 3922 
Q 2500 3981 2441 4022 
Q 2363 4078 2284 4103 
Q 2225 4122 2097 4122 
L 2097 4238 
L 3747 4238 
L 3747 4122 
L 3634 4122 
Q 3459 4122 3378 4047 
Q 3297 3972 3297 3844 
Q 3297 3684 3438 3288 
L 4250 984 
L 5056 3319 
Q 5194 3706 5194 3856 
Q 5194 3928 5148 3990 
Q 5103 4053 5034 4078 
Q 4916 4122 4725 4122 
L 4725 4238 
L 5991 4238 
z
" transform="scale(0.015625)"/>
       <path id="TimesNewRomanPSMT-65" d="M 681 1784 
Q 678 1147 991 784 
Q 1303 422 1725 422 
Q 2006 422 2214 576 
Q 2422 731 2563 1106 
L 2659 1044 
Q 2594 616 2278 264 
Q 1963 -88 1488 -88 
Q 972 -88 605 314 
Q 238 716 238 1394 
Q 238 2128 614 2539 
Q 991 2950 1559 2950 
Q 2041 2950 2350 2633 
Q 2659 2316 2659 1784 
L 681 1784 
z
M 681 1966 
L 2006 1966 
Q 1991 2241 1941 2353 
Q 1863 2528 1708 2628 
Q 1553 2728 1384 2728 
Q 1125 2728 920 2526 
Q 716 2325 681 1966 
z
" transform="scale(0.015625)"/>
       <path id="TimesNewRomanPSMT-69" d="M 928 4444 
Q 1059 4444 1151 4351 
Q 1244 4259 1244 4128 
Q 1244 3997 1151 3903 
Q 1059 3809 928 3809 
Q 797 3809 703 3903 
Q 609 3997 609 4128 
Q 609 4259 701 4351 
Q 794 4444 928 4444 
z
M 1188 2947 
L 1188 647 
Q 1188 378 1227 289 
Q 1266 200 1342 156 
Q 1419 113 1622 113 
L 1622 0 
L 231 0 
L 231 113 
Q 441 113 512 153 
Q 584 194 626 287 
Q 669 381 669 647 
L 669 1750 
Q 669 2216 641 2353 
Q 619 2453 572 2492 
Q 525 2531 444 2531 
Q 356 2531 231 2484 
L 188 2597 
L 1050 2947 
L 1188 2947 
z
" transform="scale(0.015625)"/>
       <path id="TimesNewRomanPSMT-67" d="M 966 1044 
Q 703 1172 562 1401 
Q 422 1631 422 1909 
Q 422 2334 742 2640 
Q 1063 2947 1563 2947 
Q 1972 2947 2272 2747 
L 2878 2747 
Q 3013 2747 3034 2739 
Q 3056 2731 3066 2713 
Q 3084 2684 3084 2613 
Q 3084 2531 3069 2500 
Q 3059 2484 3036 2475 
Q 3013 2466 2878 2466 
L 2506 2466 
Q 2681 2241 2681 1891 
Q 2681 1491 2375 1206 
Q 2069 922 1553 922 
Q 1341 922 1119 984 
Q 981 866 932 777 
Q 884 688 884 625 
Q 884 572 936 522 
Q 988 472 1138 450 
Q 1225 438 1575 428 
Q 2219 413 2409 384 
Q 2700 344 2873 169 
Q 3047 -6 3047 -263 
Q 3047 -616 2716 -925 
Q 2228 -1381 1444 -1381 
Q 841 -1381 425 -1109 
Q 191 -953 191 -784 
Q 191 -709 225 -634 
Q 278 -519 444 -313 
Q 466 -284 763 25 
Q 600 122 533 198 
Q 466 275 466 372 
Q 466 481 555 628 
Q 644 775 966 1044 
z
M 1509 2797 
Q 1278 2797 1122 2612 
Q 966 2428 966 2047 
Q 966 1553 1178 1281 
Q 1341 1075 1591 1075 
Q 1828 1075 1981 1253 
Q 2134 1431 2134 1813 
Q 2134 2309 1919 2591 
Q 1759 2797 1509 2797 
z
M 934 0 
Q 788 -159 713 -296 
Q 638 -434 638 -550 
Q 638 -700 819 -813 
Q 1131 -1006 1722 -1006 
Q 2284 -1006 2551 -807 
Q 2819 -609 2819 -384 
Q 2819 -222 2659 -153 
Q 2497 -84 2016 -72 
Q 1313 -53 934 0 
z
" transform="scale(0.015625)"/>
       <path id="TimesNewRomanPSMT-74" d="M 1031 3803 
L 1031 2863 
L 1700 2863 
L 1700 2644 
L 1031 2644 
L 1031 788 
Q 1031 509 1111 412 
Q 1191 316 1316 316 
Q 1419 316 1516 380 
Q 1613 444 1666 569 
L 1788 569 
Q 1678 263 1478 108 
Q 1278 -47 1066 -47 
Q 922 -47 784 33 
Q 647 113 581 261 
Q 516 409 516 719 
L 516 2644 
L 63 2644 
L 63 2747 
Q 234 2816 414 2980 
Q 594 3144 734 3369 
Q 806 3488 934 3803 
L 1031 3803 
z
" transform="scale(0.015625)"/>
       <path id="TimesNewRomanPSMT-20" transform="scale(0.015625)"/>
       <path id="TimesNewRomanPSMT-56" d="M 4544 4238 
L 4544 4122 
Q 4319 4081 4203 3978 
Q 4038 3825 3909 3509 
L 2431 -97 
L 2316 -97 
L 728 3556 
Q 606 3838 556 3900 
Q 478 3997 364 4051 
Q 250 4106 56 4122 
L 56 4238 
L 1788 4238 
L 1788 4122 
Q 1494 4094 1406 4022 
Q 1319 3950 1319 3838 
Q 1319 3681 1463 3350 
L 2541 866 
L 3541 3319 
Q 3688 3681 3688 3822 
Q 3688 3913 3597 3995 
Q 3506 4078 3291 4113 
Q 3275 4116 3238 4122 
L 3238 4238 
L 4544 4238 
z
" transform="scale(0.015625)"/>
       <path id="TimesNewRomanPSMT-61" d="M 1822 413 
Q 1381 72 1269 19 
Q 1100 -59 909 -59 
Q 613 -59 420 144 
Q 228 347 228 678 
Q 228 888 322 1041 
Q 450 1253 767 1440 
Q 1084 1628 1822 1897 
L 1822 2009 
Q 1822 2438 1686 2597 
Q 1550 2756 1291 2756 
Q 1094 2756 978 2650 
Q 859 2544 859 2406 
L 866 2225 
Q 866 2081 792 2003 
Q 719 1925 600 1925 
Q 484 1925 411 2006 
Q 338 2088 338 2228 
Q 338 2497 613 2722 
Q 888 2947 1384 2947 
Q 1766 2947 2009 2819 
Q 2194 2722 2281 2516 
Q 2338 2381 2338 1966 
L 2338 994 
Q 2338 584 2353 492 
Q 2369 400 2405 369 
Q 2441 338 2488 338 
Q 2538 338 2575 359 
Q 2641 400 2828 588 
L 2828 413 
Q 2478 -56 2159 -56 
Q 2006 -56 1915 50 
Q 1825 156 1822 413 
z
M 1822 616 
L 1822 1706 
Q 1350 1519 1213 1441 
Q 966 1303 859 1153 
Q 753 1003 753 825 
Q 753 600 887 451 
Q 1022 303 1197 303 
Q 1434 303 1822 616 
z
" transform="scale(0.015625)"/>
       <path id="TimesNewRomanPSMT-6c" d="M 1184 4444 
L 1184 647 
Q 1184 378 1223 290 
Q 1263 203 1344 158 
Q 1425 113 1647 113 
L 1647 0 
L 244 0 
L 244 113 
Q 441 113 512 153 
Q 584 194 625 287 
Q 666 381 666 647 
L 666 3247 
Q 666 3731 644 3842 
Q 622 3953 573 3993 
Q 525 4034 450 4034 
Q 369 4034 244 3984 
L 191 4094 
L 1044 4444 
L 1184 4444 
z
" transform="scale(0.015625)"/>
       <path id="TimesNewRomanPSMT-75" d="M 2709 2863 
L 2709 1128 
Q 2709 631 2732 520 
Q 2756 409 2807 365 
Q 2859 322 2928 322 
Q 3025 322 3147 375 
L 3191 266 
L 2334 -88 
L 2194 -88 
L 2194 519 
Q 1825 119 1631 15 
Q 1438 -88 1222 -88 
Q 981 -88 804 51 
Q 628 191 559 409 
Q 491 628 491 1028 
L 491 2306 
Q 491 2509 447 2587 
Q 403 2666 317 2708 
Q 231 2750 6 2747 
L 6 2863 
L 1009 2863 
L 1009 947 
Q 1009 547 1148 422 
Q 1288 297 1484 297 
Q 1619 297 1789 381 
Q 1959 466 2194 703 
L 2194 2325 
Q 2194 2569 2105 2655 
Q 2016 2741 1734 2747 
L 1734 2863 
L 2709 2863 
z
" transform="scale(0.015625)"/>
       <path id="TimesNewRomanPSMT-28" d="M 1988 -1253 
L 1988 -1369 
Q 1516 -1131 1200 -813 
Q 750 -359 506 256 
Q 263 872 263 1534 
Q 263 2503 741 3301 
Q 1219 4100 1988 4444 
L 1988 4313 
Q 1603 4100 1356 3731 
Q 1109 3363 987 2797 
Q 866 2231 866 1616 
Q 866 947 969 400 
Q 1050 -31 1165 -292 
Q 1281 -553 1476 -793 
Q 1672 -1034 1988 -1253 
z
" transform="scale(0.015625)"/>
       <path id="TimesNewRomanPSMT-53" d="M 2934 4334 
L 2934 2869 
L 2819 2869 
Q 2763 3291 2617 3541 
Q 2472 3791 2203 3937 
Q 1934 4084 1647 4084 
Q 1322 4084 1109 3886 
Q 897 3688 897 3434 
Q 897 3241 1031 3081 
Q 1225 2847 1953 2456 
Q 2547 2138 2764 1967 
Q 2981 1797 3098 1565 
Q 3216 1334 3216 1081 
Q 3216 600 2842 251 
Q 2469 -97 1881 -97 
Q 1697 -97 1534 -69 
Q 1438 -53 1133 45 
Q 828 144 747 144 
Q 669 144 623 97 
Q 578 50 556 -97 
L 441 -97 
L 441 1356 
L 556 1356 
Q 638 900 775 673 
Q 913 447 1195 297 
Q 1478 147 1816 147 
Q 2206 147 2432 353 
Q 2659 559 2659 841 
Q 2659 997 2573 1156 
Q 2488 1316 2306 1453 
Q 2184 1547 1640 1851 
Q 1097 2156 867 2337 
Q 638 2519 519 2737 
Q 400 2956 400 3219 
Q 400 3675 750 4004 
Q 1100 4334 1641 4334 
Q 1978 4334 2356 4169 
Q 2531 4091 2603 4091 
Q 2684 4091 2736 4139 
Q 2788 4188 2819 4334 
L 2934 4334 
z
" transform="scale(0.015625)"/>
       <path id="TimesNewRomanPSMT-79" d="M 38 2863 
L 1372 2863 
L 1372 2747 
L 1306 2747 
Q 1166 2747 1095 2686 
Q 1025 2625 1025 2534 
Q 1025 2413 1128 2197 
L 1825 753 
L 2466 2334 
Q 2519 2463 2519 2588 
Q 2519 2644 2497 2672 
Q 2472 2706 2419 2726 
Q 2366 2747 2231 2747 
L 2231 2863 
L 3163 2863 
L 3163 2747 
Q 3047 2734 2984 2696 
Q 2922 2659 2847 2556 
Q 2819 2513 2741 2316 
L 1575 -541 
Q 1406 -956 1132 -1168 
Q 859 -1381 606 -1381 
Q 422 -1381 303 -1275 
Q 184 -1169 184 -1031 
Q 184 -900 270 -820 
Q 356 -741 506 -741 
Q 609 -741 788 -809 
Q 913 -856 944 -856 
Q 1038 -856 1148 -759 
Q 1259 -663 1372 -384 
L 1575 113 
L 547 2272 
Q 500 2369 397 2513 
Q 319 2622 269 2659 
Q 197 2709 38 2747 
L 38 2863 
z
" transform="scale(0.015625)"/>
       <path id="TimesNewRomanPSMT-6d" d="M 1050 2338 
Q 1363 2650 1419 2697 
Q 1559 2816 1721 2881 
Q 1884 2947 2044 2947 
Q 2313 2947 2506 2790 
Q 2700 2634 2766 2338 
Q 3088 2713 3309 2830 
Q 3531 2947 3766 2947 
Q 3994 2947 4170 2830 
Q 4347 2713 4450 2447 
Q 4519 2266 4519 1878 
L 4519 647 
Q 4519 378 4559 278 
Q 4591 209 4675 161 
Q 4759 113 4950 113 
L 4950 0 
L 3538 0 
L 3538 113 
L 3597 113 
Q 3781 113 3884 184 
Q 3956 234 3988 344 
Q 4000 397 4000 647 
L 4000 1878 
Q 4000 2228 3916 2372 
Q 3794 2572 3525 2572 
Q 3359 2572 3192 2489 
Q 3025 2406 2788 2181 
L 2781 2147 
L 2788 2013 
L 2788 647 
Q 2788 353 2820 281 
Q 2853 209 2943 161 
Q 3034 113 3253 113 
L 3253 0 
L 1806 0 
L 1806 113 
Q 2044 113 2133 169 
Q 2222 225 2256 338 
Q 2272 391 2272 647 
L 2272 1878 
Q 2272 2228 2169 2381 
Q 2031 2581 1784 2581 
Q 1616 2581 1450 2491 
Q 1191 2353 1050 2181 
L 1050 647 
Q 1050 366 1089 281 
Q 1128 197 1204 155 
Q 1281 113 1516 113 
L 1516 0 
L 100 0 
L 100 113 
Q 297 113 375 155 
Q 453 197 493 289 
Q 534 381 534 647 
L 534 1741 
Q 534 2213 506 2350 
Q 484 2453 437 2492 
Q 391 2531 309 2531 
Q 222 2531 100 2484 
L 53 2597 
L 916 2947 
L 1050 2947 
L 1050 2338 
z
" transform="scale(0.015625)"/>
       <path id="TimesNewRomanPSMT-4c" d="M 3669 1172 
L 3772 1150 
L 3409 0 
L 128 0 
L 128 116 
L 288 116 
Q 556 116 672 291 
Q 738 391 738 753 
L 738 3488 
Q 738 3884 650 3984 
Q 528 4122 288 4122 
L 128 4122 
L 128 4238 
L 2047 4238 
L 2047 4122 
Q 1709 4125 1573 4059 
Q 1438 3994 1388 3894 
Q 1338 3794 1338 3416 
L 1338 753 
Q 1338 494 1388 397 
Q 1425 331 1503 300 
Q 1581 269 1991 269 
L 2300 269 
Q 2788 269 2984 341 
Q 3181 413 3343 595 
Q 3506 778 3669 1172 
z
" transform="scale(0.015625)"/>
       <path id="TimesNewRomanPSMT-29" d="M 144 4313 
L 144 4444 
Q 619 4209 934 3891 
Q 1381 3434 1625 2820 
Q 1869 2206 1869 1541 
Q 1869 572 1392 -226 
Q 916 -1025 144 -1369 
L 144 -1253 
Q 528 -1038 776 -670 
Q 1025 -303 1145 264 
Q 1266 831 1266 1447 
Q 1266 2113 1163 2663 
Q 1084 3094 967 3353 
Q 850 3613 656 3853 
Q 463 4094 144 4313 
z
" transform="scale(0.015625)"/>
      </defs>
      <use xlink:href="#TimesNewRomanPSMT-57"/>
      <use xlink:href="#TimesNewRomanPSMT-65" transform="translate(86.384766 0)"/>
      <use xlink:href="#TimesNewRomanPSMT-69" transform="translate(130.769531 0)"/>
      <use xlink:href="#TimesNewRomanPSMT-67" transform="translate(158.552734 0)"/>
      <use xlink:href="#TimesNewRomanPSMT-68" transform="translate(208.552734 0)"/>
      <use xlink:href="#TimesNewRomanPSMT-74" transform="translate(258.552734 0)"/>
      <use xlink:href="#TimesNewRomanPSMT-20" transform="translate(286.335938 0)"/>
      <use xlink:href="#TimesNewRomanPSMT-56" transform="translate(309.585938 0)"/>
      <use xlink:href="#TimesNewRomanPSMT-61" transform="translate(370.677734 0)"/>
      <use xlink:href="#TimesNewRomanPSMT-6c" transform="translate(415.0625 0)"/>
      <use xlink:href="#TimesNewRomanPSMT-75" transform="translate(442.845703 0)"/>
      <use xlink:href="#TimesNewRomanPSMT-65" transform="translate(492.845703 0)"/>
      <use xlink:href="#TimesNewRomanPSMT-20" transform="translate(537.230469 0)"/>
      <use xlink:href="#TimesNewRomanPSMT-28" transform="translate(562.230469 0)"/>
      <use xlink:href="#TimesNewRomanPSMT-53" transform="translate(595.53125 0)"/>
      <use xlink:href="#TimesNewRomanPSMT-79" transform="translate(651.146484 0)"/>
      <use xlink:href="#TimesNewRomanPSMT-6d" transform="translate(701.146484 0)"/>
      <use xlink:href="#TimesNewRomanPSMT-4c" transform="translate(778.929688 0)"/>
      <use xlink:href="#TimesNewRomanPSMT-6f" transform="translate(840.013672 0)"/>
      <use xlink:href="#TimesNewRomanPSMT-67" transform="translate(890.013672 0)"/>
      <use xlink:href="#TimesNewRomanPSMT-20" transform="translate(940.013672 0)"/>
      <use xlink:href="#TimesNewRomanPSMT-53" transform="translate(965.013672 0)"/>
      <use xlink:href="#TimesNewRomanPSMT-63" transform="translate(1020.628906 0)"/>
      <use xlink:href="#TimesNewRomanPSMT-61" transform="translate(1065.013672 0)"/>
      <use xlink:href="#TimesNewRomanPSMT-6c" transform="translate(1109.398438 0)"/>
      <use xlink:href="#TimesNewRomanPSMT-65" transform="translate(1137.181641 0)"/>
      <use xlink:href="#TimesNewRomanPSMT-29" transform="translate(1181.566406 0)"/>
     </g>
    </g>
   </g>
   <g id="line2d_13">
    <path d="M 95.027997 53.336364 
L 436.151691 53.336364 
L 436.151691 53.336364 
" clip-path="url(#pc1dfe5c525)" style="fill: none; stroke: #1f77b4; stroke-opacity: 0.85; stroke-width: 1.5; stroke-linecap: square"/>
   </g>
   <g id="line2d_14">
    <path d="M 95.027997 280.063636 
L 436.151691 280.063636 
L 436.151691 280.063636 
" clip-path="url(#pc1dfe5c525)" style="fill: none; stroke: #ff7f0e; stroke-opacity: 0.85; stroke-width: 1.5; stroke-linecap: square"/>
   </g>
   <g id="line2d_15">
    <path d="M 95.027997 280.063636 
L 436.151691 280.063636 
L 436.151691 280.063636 
" clip-path="url(#pc1dfe5c525)" style="fill: none; stroke: #2ca02c; stroke-opacity: 0.85; stroke-width: 1.5; stroke-linecap: square"/>
   </g>
   <g id="line2d_16">
    <path d="M 95.027997 280.063636 
L 436.151691 280.063636 
L 436.151691 280.063636 
" clip-path="url(#pc1dfe5c525)" style="fill: none; stroke: #d62728; stroke-opacity: 0.85; stroke-width: 1.5; stroke-linecap: square"/>
   </g>
   <g id="patch_3">
    <path d="M 77.971813 291.4 
L 77.971813 42 
" style="fill: none; stroke: #000000; stroke-linejoin: miter; stroke-linecap: square"/>
   </g>
   <g id="patch_4">
    <path d="M 453.207876 291.4 
L 453.207876 42 
" style="fill: none; stroke: #000000; stroke-linejoin: miter; stroke-linecap: square"/>
   </g>
   <g id="patch_5">
    <path d="M 77.971813 291.4 
L 453.207876 291.4 
" style="fill: none; stroke: #000000; stroke-linejoin: miter; stroke-linecap: square"/>
   </g>
   <g id="patch_6">
    <path d="M 77.971813 42 
L 453.207876 42 
" style="fill: none; stroke: #000000; stroke-linejoin: miter; stroke-linecap: square"/>
   </g>
   <g id="text_9">
    <!-- [PINN_Net6_4_Bz128_Ep200] Loss Weights Evolution -->
    <g transform="translate(40.753907 36) scale(0.2 -0.2)">
     <defs>
      <path id="TimesNewRomanPSMT-5b" d="M 1900 -1269 
L 525 -1269 
L 525 4334 
L 1900 4334 
L 1900 4088 
L 994 4088 
L 994 -1025 
L 1900 -1025 
L 1900 -1269 
z
" transform="scale(0.015625)"/>
      <path id="TimesNewRomanPSMT-50" d="M 1313 1984 
L 1313 750 
Q 1313 350 1400 253 
Q 1519 116 1759 116 
L 1922 116 
L 1922 0 
L 106 0 
L 106 116 
L 266 116 
Q 534 116 650 291 
Q 713 388 713 750 
L 713 3488 
Q 713 3888 628 3984 
Q 506 4122 266 4122 
L 106 4122 
L 106 4238 
L 1659 4238 
Q 2228 4238 2556 4120 
Q 2884 4003 3109 3725 
Q 3334 3447 3334 3066 
Q 3334 2547 2992 2222 
Q 2650 1897 2025 1897 
Q 1872 1897 1694 1919 
Q 1516 1941 1313 1984 
z
M 1313 2163 
Q 1478 2131 1606 2115 
Q 1734 2100 1825 2100 
Q 2150 2100 2386 2351 
Q 2622 2603 2622 3003 
Q 2622 3278 2509 3514 
Q 2397 3750 2190 3867 
Q 1984 3984 1722 3984 
Q 1563 3984 1313 3925 
L 1313 2163 
z
" transform="scale(0.015625)"/>
      <path id="TimesNewRomanPSMT-49" d="M 1975 116 
L 1975 0 
L 159 0 
L 159 116 
L 309 116 
Q 572 116 691 269 
Q 766 369 766 750 
L 766 3488 
Q 766 3809 725 3913 
Q 694 3991 597 4047 
Q 459 4122 309 4122 
L 159 4122 
L 159 4238 
L 1975 4238 
L 1975 4122 
L 1822 4122 
Q 1563 4122 1444 3969 
Q 1366 3869 1366 3488 
L 1366 750 
Q 1366 428 1406 325 
Q 1438 247 1538 191 
Q 1672 116 1822 116 
L 1975 116 
z
" transform="scale(0.015625)"/>
      <path id="TimesNewRomanPSMT-4e" d="M -84 4238 
L 1066 4238 
L 3656 1059 
L 3656 3503 
Q 3656 3894 3569 3991 
Q 3453 4122 3203 4122 
L 3056 4122 
L 3056 4238 
L 4531 4238 
L 4531 4122 
L 4381 4122 
Q 4113 4122 4000 3959 
Q 3931 3859 3931 3503 
L 3931 -69 
L 3819 -69 
L 1025 3344 
L 1025 734 
Q 1025 344 1109 247 
Q 1228 116 1475 116 
L 1625 116 
L 1625 0 
L 150 0 
L 150 116 
L 297 116 
Q 569 116 681 278 
Q 750 378 750 734 
L 750 3681 
Q 566 3897 470 3965 
Q 375 4034 191 4094 
Q 100 4122 -84 4122 
L -84 4238 
z
" transform="scale(0.015625)"/>
      <path id="TimesNewRomanPSMT-5f" d="M 3256 -1381 
L -53 -1381 
L -53 -1119 
L 3256 -1119 
L 3256 -1381 
z
" transform="scale(0.015625)"/>
      <path id="TimesNewRomanPSMT-36" d="M 2869 4325 
L 2869 4209 
Q 2456 4169 2195 4045 
Q 1934 3922 1679 3669 
Q 1425 3416 1258 3105 
Q 1091 2794 978 2366 
Q 1428 2675 1881 2675 
Q 2316 2675 2634 2325 
Q 2953 1975 2953 1425 
Q 2953 894 2631 456 
Q 2244 -75 1606 -75 
Q 1172 -75 869 213 
Q 275 772 275 1663 
Q 275 2231 503 2743 
Q 731 3256 1154 3653 
Q 1578 4050 1965 4187 
Q 2353 4325 2688 4325 
L 2869 4325 
z
M 925 2138 
Q 869 1716 869 1456 
Q 869 1156 980 804 
Q 1091 453 1309 247 
Q 1469 100 1697 100 
Q 1969 100 2183 356 
Q 2397 613 2397 1088 
Q 2397 1622 2184 2012 
Q 1972 2403 1581 2403 
Q 1463 2403 1327 2353 
Q 1191 2303 925 2138 
z
" transform="scale(0.015625)"/>
      <path id="TimesNewRomanPSMT-34" d="M 2978 1563 
L 2978 1119 
L 2409 1119 
L 2409 0 
L 1894 0 
L 1894 1119 
L 100 1119 
L 100 1519 
L 2066 4325 
L 2409 4325 
L 2409 1563 
L 2978 1563 
z
M 1894 1563 
L 1894 3666 
L 406 1563 
L 1894 1563 
z
" transform="scale(0.015625)"/>
      <path id="TimesNewRomanPSMT-42" d="M 2956 2163 
Q 3397 2069 3616 1863 
Q 3919 1575 3919 1159 
Q 3919 844 3719 555 
Q 3519 266 3170 133 
Q 2822 0 2106 0 
L 106 0 
L 106 116 
L 266 116 
Q 531 116 647 284 
Q 719 394 719 750 
L 719 3488 
Q 719 3881 628 3984 
Q 506 4122 266 4122 
L 106 4122 
L 106 4238 
L 1938 4238 
Q 2450 4238 2759 4163 
Q 3228 4050 3475 3764 
Q 3722 3478 3722 3106 
Q 3722 2788 3528 2536 
Q 3334 2284 2956 2163 
z
M 1319 2331 
Q 1434 2309 1582 2298 
Q 1731 2288 1909 2288 
Q 2366 2288 2595 2386 
Q 2825 2484 2947 2687 
Q 3069 2891 3069 3131 
Q 3069 3503 2766 3765 
Q 2463 4028 1881 4028 
Q 1569 4028 1319 3959 
L 1319 2331 
z
M 1319 306 
Q 1681 222 2034 222 
Q 2600 222 2897 476 
Q 3194 731 3194 1106 
Q 3194 1353 3059 1581 
Q 2925 1809 2622 1940 
Q 2319 2072 1872 2072 
Q 1678 2072 1540 2065 
Q 1403 2059 1319 2044 
L 1319 306 
z
" transform="scale(0.015625)"/>
      <path id="TimesNewRomanPSMT-7a" d="M 2688 878 
L 2653 0 
L 128 0 
L 128 113 
L 2028 2644 
L 1091 2644 
Q 788 2644 694 2605 
Q 600 2566 541 2456 
Q 456 2300 444 2069 
L 319 2069 
L 338 2863 
L 2738 2863 
L 2738 2747 
L 819 209 
L 1863 209 
Q 2191 209 2308 264 
Q 2425 319 2497 456 
Q 2547 556 2581 878 
L 2688 878 
z
" transform="scale(0.015625)"/>
      <path id="TimesNewRomanPSMT-38" d="M 1228 2134 
Q 725 2547 579 2797 
Q 434 3047 434 3316 
Q 434 3728 753 4026 
Q 1072 4325 1600 4325 
Q 2113 4325 2425 4047 
Q 2738 3769 2738 3413 
Q 2738 3175 2569 2928 
Q 2400 2681 1866 2347 
Q 2416 1922 2594 1678 
Q 2831 1359 2831 1006 
Q 2831 559 2490 242 
Q 2150 -75 1597 -75 
Q 994 -75 656 303 
Q 388 606 388 966 
Q 388 1247 577 1523 
Q 766 1800 1228 2134 
z
M 1719 2469 
Q 2094 2806 2194 3001 
Q 2294 3197 2294 3444 
Q 2294 3772 2109 3958 
Q 1925 4144 1606 4144 
Q 1288 4144 1088 3959 
Q 888 3775 888 3528 
Q 888 3366 970 3203 
Q 1053 3041 1206 2894 
L 1719 2469 
z
M 1375 2016 
Q 1116 1797 991 1539 
Q 866 1281 866 981 
Q 866 578 1086 336 
Q 1306 94 1647 94 
Q 1984 94 2187 284 
Q 2391 475 2391 747 
Q 2391 972 2272 1150 
Q 2050 1481 1375 2016 
z
" transform="scale(0.015625)"/>
      <path id="TimesNewRomanPSMT-5d" d="M 234 4334 
L 1609 4334 
L 1609 -1272 
L 234 -1272 
L 234 -1025 
L 1141 -1025 
L 1141 4088 
L 234 4088 
L 234 4334 
z
" transform="scale(0.015625)"/>
      <path id="TimesNewRomanPSMT-73" d="M 2050 2947 
L 2050 1972 
L 1947 1972 
Q 1828 2431 1642 2597 
Q 1456 2763 1169 2763 
Q 950 2763 815 2647 
Q 681 2531 681 2391 
Q 681 2216 781 2091 
Q 878 1963 1175 1819 
L 1631 1597 
Q 2266 1288 2266 781 
Q 2266 391 1970 151 
Q 1675 -88 1309 -88 
Q 1047 -88 709 6 
Q 606 38 541 38 
Q 469 38 428 -44 
L 325 -44 
L 325 978 
L 428 978 
Q 516 541 762 319 
Q 1009 97 1316 97 
Q 1531 97 1667 223 
Q 1803 350 1803 528 
Q 1803 744 1651 891 
Q 1500 1038 1047 1263 
Q 594 1488 453 1669 
Q 313 1847 313 2119 
Q 313 2472 555 2709 
Q 797 2947 1181 2947 
Q 1350 2947 1591 2875 
Q 1750 2828 1803 2828 
Q 1853 2828 1881 2850 
Q 1909 2872 1947 2947 
L 2050 2947 
z
" transform="scale(0.015625)"/>
      <path id="TimesNewRomanPSMT-76" d="M 53 2863 
L 1400 2863 
L 1400 2747 
L 1313 2747 
Q 1191 2747 1127 2687 
Q 1063 2628 1063 2528 
Q 1063 2419 1128 2269 
L 1794 688 
L 2463 2328 
Q 2534 2503 2534 2594 
Q 2534 2638 2509 2666 
Q 2475 2713 2422 2730 
Q 2369 2747 2206 2747 
L 2206 2863 
L 3141 2863 
L 3141 2747 
Q 2978 2734 2916 2681 
Q 2806 2588 2719 2369 
L 1703 -88 
L 1575 -88 
L 553 2328 
Q 484 2497 421 2570 
Q 359 2644 263 2694 
Q 209 2722 53 2747 
L 53 2863 
z
" transform="scale(0.015625)"/>
      <path id="TimesNewRomanPSMT-6e" d="M 1034 2341 
Q 1538 2947 1994 2947 
Q 2228 2947 2397 2830 
Q 2566 2713 2666 2444 
Q 2734 2256 2734 1869 
L 2734 647 
Q 2734 375 2778 278 
Q 2813 200 2889 156 
Q 2966 113 3172 113 
L 3172 0 
L 1756 0 
L 1756 113 
L 1816 113 
Q 2016 113 2095 173 
Q 2175 234 2206 353 
Q 2219 400 2219 647 
L 2219 1819 
Q 2219 2209 2117 2386 
Q 2016 2563 1775 2563 
Q 1403 2563 1034 2156 
L 1034 647 
Q 1034 356 1069 288 
Q 1113 197 1189 155 
Q 1266 113 1500 113 
L 1500 0 
L 84 0 
L 84 113 
L 147 113 
Q 366 113 442 223 
Q 519 334 519 647 
L 519 1709 
Q 519 2225 495 2337 
Q 472 2450 423 2490 
Q 375 2531 294 2531 
Q 206 2531 84 2484 
L 38 2597 
L 900 2947 
L 1034 2947 
L 1034 2341 
z
" transform="scale(0.015625)"/>
     </defs>
     <use xlink:href="#TimesNewRomanPSMT-5b"/>
     <use xlink:href="#TimesNewRomanPSMT-50" transform="translate(33.300781 0)"/>
     <use xlink:href="#TimesNewRomanPSMT-49" transform="translate(88.916016 0)"/>
     <use xlink:href="#TimesNewRomanPSMT-4e" transform="translate(122.216797 0)"/>
     <use xlink:href="#TimesNewRomanPSMT-4e" transform="translate(194.433594 0)"/>
     <use xlink:href="#TimesNewRomanPSMT-5f" transform="translate(266.650391 0)"/>
     <use xlink:href="#TimesNewRomanPSMT-4e" transform="translate(316.650391 0)"/>
     <use xlink:href="#TimesNewRomanPSMT-65" transform="translate(388.867188 0)"/>
     <use xlink:href="#TimesNewRomanPSMT-74" transform="translate(433.251953 0)"/>
     <use xlink:href="#TimesNewRomanPSMT-36" transform="translate(461.035156 0)"/>
     <use xlink:href="#TimesNewRomanPSMT-5f" transform="translate(511.035156 0)"/>
     <use xlink:href="#TimesNewRomanPSMT-34" transform="translate(561.035156 0)"/>
     <use xlink:href="#TimesNewRomanPSMT-5f" transform="translate(611.035156 0)"/>
     <use xlink:href="#TimesNewRomanPSMT-42" transform="translate(661.035156 0)"/>
     <use xlink:href="#TimesNewRomanPSMT-7a" transform="translate(727.734375 0)"/>
     <use xlink:href="#TimesNewRomanPSMT-31" transform="translate(772.119141 0)"/>
     <use xlink:href="#TimesNewRomanPSMT-32" transform="translate(822.119141 0)"/>
     <use xlink:href="#TimesNewRomanPSMT-38" transform="translate(872.119141 0)"/>
     <use xlink:href="#TimesNewRomanPSMT-5f" transform="translate(922.119141 0)"/>
     <use xlink:href="#TimesNewRomanPSMT-45" transform="translate(972.119141 0)"/>
     <use xlink:href="#TimesNewRomanPSMT-70" transform="translate(1033.203125 0)"/>
     <use xlink:href="#TimesNewRomanPSMT-32" transform="translate(1083.203125 0)"/>
     <use xlink:href="#TimesNewRomanPSMT-30" transform="translate(1133.203125 0)"/>
     <use xlink:href="#TimesNewRomanPSMT-30" transform="translate(1183.203125 0)"/>
     <use xlink:href="#TimesNewRomanPSMT-5d" transform="translate(1233.203125 0)"/>
     <use xlink:href="#TimesNewRomanPSMT-20" transform="translate(1266.503906 0)"/>
     <use xlink:href="#TimesNewRomanPSMT-4c" transform="translate(1291.503906 0)"/>
     <use xlink:href="#TimesNewRomanPSMT-6f" transform="translate(1352.587891 0)"/>
     <use xlink:href="#TimesNewRomanPSMT-73" transform="translate(1402.587891 0)"/>
     <use xlink:href="#TimesNewRomanPSMT-73" transform="translate(1441.503906 0)"/>
     <use xlink:href="#TimesNewRomanPSMT-20" transform="translate(1480.419922 0)"/>
     <use xlink:href="#TimesNewRomanPSMT-57" transform="translate(1503.669922 0)"/>
     <use xlink:href="#TimesNewRomanPSMT-65" transform="translate(1590.054688 0)"/>
     <use xlink:href="#TimesNewRomanPSMT-69" transform="translate(1634.439453 0)"/>
     <use xlink:href="#TimesNewRomanPSMT-67" transform="translate(1662.222656 0)"/>
     <use xlink:href="#TimesNewRomanPSMT-68" transform="translate(1712.222656 0)"/>
     <use xlink:href="#TimesNewRomanPSMT-74" transform="translate(1762.222656 0)"/>
     <use xlink:href="#TimesNewRomanPSMT-73" transform="translate(1790.005859 0)"/>
     <use xlink:href="#TimesNewRomanPSMT-20" transform="translate(1828.921875 0)"/>
     <use xlink:href="#TimesNewRomanPSMT-45" transform="translate(1853.921875 0)"/>
     <use xlink:href="#TimesNewRomanPSMT-76" transform="translate(1915.005859 0)"/>
     <use xlink:href="#TimesNewRomanPSMT-6f" transform="translate(1965.005859 0)"/>
     <use xlink:href="#TimesNewRomanPSMT-6c" transform="translate(2015.005859 0)"/>
     <use xlink:href="#TimesNewRomanPSMT-75" transform="translate(2042.789062 0)"/>
     <use xlink:href="#TimesNewRomanPSMT-74" transform="translate(2092.789062 0)"/>
     <use xlink:href="#TimesNewRomanPSMT-69" transform="translate(2120.572266 0)"/>
     <use xlink:href="#TimesNewRomanPSMT-6f" transform="translate(2148.355469 0)"/>
     <use xlink:href="#TimesNewRomanPSMT-6e" transform="translate(2198.355469 0)"/>
    </g>
   </g>
   <g id="legend_1">
    <g id="patch_7">
     <path d="M 389.613032 193.534063 
L 446.907876 193.534063 
Q 448.707876 193.534063 448.707876 191.734062 
L 448.707876 141.665938 
Q 448.707876 139.865938 446.907876 139.865938 
L 389.613032 139.865938 
Q 387.813032 139.865938 387.813032 141.665938 
L 387.813032 191.734062 
Q 387.813032 193.534063 389.613032 193.534063 
z
" style="fill: #ffffff; opacity: 0.8; stroke: #cccccc; stroke-linejoin: miter"/>
    </g>
    <g id="line2d_17">
     <path d="M 391.413032 146.615938 
L 400.413032 146.615938 
L 409.413032 146.615938 
" style="fill: none; stroke: #1f77b4; stroke-opacity: 0.85; stroke-width: 1.5; stroke-linecap: square"/>
    </g>
    <g id="text_10">
     <!-- w_mse -->
     <g transform="translate(416.613032 149.765938) scale(0.09 -0.09)">
      <defs>
       <path id="TimesNewRomanPSMT-77" d="M 41 2863 
L 1241 2863 
L 1241 2747 
Q 1075 2734 1023 2687 
Q 972 2641 972 2553 
Q 972 2456 1025 2319 
L 1638 672 
L 2253 2013 
L 2091 2434 
Q 2016 2622 1894 2694 
Q 1825 2738 1638 2747 
L 1638 2863 
L 3000 2863 
L 3000 2747 
Q 2775 2738 2681 2666 
Q 2619 2616 2619 2506 
Q 2619 2444 2644 2378 
L 3294 734 
L 3897 2319 
Q 3959 2488 3959 2588 
Q 3959 2647 3898 2694 
Q 3838 2741 3659 2747 
L 3659 2863 
L 4563 2863 
L 4563 2747 
Q 4291 2706 4163 2378 
L 3206 -88 
L 3078 -88 
L 2363 1741 
L 1528 -88 
L 1413 -88 
L 494 2319 
Q 403 2547 315 2626 
Q 228 2706 41 2747 
L 41 2863 
z
" transform="scale(0.015625)"/>
      </defs>
      <use xlink:href="#TimesNewRomanPSMT-77"/>
      <use xlink:href="#TimesNewRomanPSMT-5f" transform="translate(72.216797 0)"/>
      <use xlink:href="#TimesNewRomanPSMT-6d" transform="translate(122.216797 0)"/>
      <use xlink:href="#TimesNewRomanPSMT-73" transform="translate(200 0)"/>
      <use xlink:href="#TimesNewRomanPSMT-65" transform="translate(238.916016 0)"/>
     </g>
    </g>
    <g id="line2d_18">
     <path d="M 391.413032 159.357969 
L 400.413032 159.357969 
L 409.413032 159.357969 
" style="fill: none; stroke: #ff7f0e; stroke-opacity: 0.85; stroke-width: 1.5; stroke-linecap: square"/>
    </g>
    <g id="text_11">
     <!-- w_pde1 -->
     <g transform="translate(416.613032 162.507969) scale(0.09 -0.09)">
      <defs>
       <path id="TimesNewRomanPSMT-64" d="M 2222 322 
Q 2013 103 1813 7 
Q 1613 -88 1381 -88 
Q 913 -88 563 304 
Q 213 697 213 1313 
Q 213 1928 600 2439 
Q 988 2950 1597 2950 
Q 1975 2950 2222 2709 
L 2222 3238 
Q 2222 3728 2198 3840 
Q 2175 3953 2125 3993 
Q 2075 4034 2000 4034 
Q 1919 4034 1784 3984 
L 1744 4094 
L 2597 4444 
L 2738 4444 
L 2738 1134 
Q 2738 631 2761 520 
Q 2784 409 2836 365 
Q 2888 322 2956 322 
Q 3041 322 3181 375 
L 3216 266 
L 2366 -88 
L 2222 -88 
L 2222 322 
z
M 2222 541 
L 2222 2016 
Q 2203 2228 2109 2403 
Q 2016 2578 1861 2667 
Q 1706 2756 1559 2756 
Q 1284 2756 1069 2509 
Q 784 2184 784 1559 
Q 784 928 1059 592 
Q 1334 256 1672 256 
Q 1956 256 2222 541 
z
" transform="scale(0.015625)"/>
      </defs>
      <use xlink:href="#TimesNewRomanPSMT-77"/>
      <use xlink:href="#TimesNewRomanPSMT-5f" transform="translate(72.216797 0)"/>
      <use xlink:href="#TimesNewRomanPSMT-70" transform="translate(122.216797 0)"/>
      <use xlink:href="#TimesNewRomanPSMT-64" transform="translate(172.216797 0)"/>
      <use xlink:href="#TimesNewRomanPSMT-65" transform="translate(222.216797 0)"/>
      <use xlink:href="#TimesNewRomanPSMT-31" transform="translate(266.601562 0)"/>
     </g>
    </g>
    <g id="line2d_19">
     <path d="M 391.413032 172.1 
L 400.413032 172.1 
L 409.413032 172.1 
" style="fill: none; stroke: #2ca02c; stroke-opacity: 0.85; stroke-width: 1.5; stroke-linecap: square"/>
    </g>
    <g id="text_12">
     <!-- w_pde2 -->
     <g transform="translate(416.613032 175.25) scale(0.09 -0.09)">
      <use xlink:href="#TimesNewRomanPSMT-77"/>
      <use xlink:href="#TimesNewRomanPSMT-5f" transform="translate(72.216797 0)"/>
      <use xlink:href="#TimesNewRomanPSMT-70" transform="translate(122.216797 0)"/>
      <use xlink:href="#TimesNewRomanPSMT-64" transform="translate(172.216797 0)"/>
      <use xlink:href="#TimesNewRomanPSMT-65" transform="translate(222.216797 0)"/>
      <use xlink:href="#TimesNewRomanPSMT-32" transform="translate(266.601562 0)"/>
     </g>
    </g>
    <g id="line2d_20">
     <path d="M 391.413032 184.842031 
L 400.413032 184.842031 
L 409.413032 184.842031 
" style="fill: none; stroke: #d62728; stroke-opacity: 0.85; stroke-width: 1.5; stroke-linecap: square"/>
    </g>
    <g id="text_13">
     <!-- w_sym -->
     <g transform="translate(416.613032 187.992031) scale(0.09 -0.09)">
      <use xlink:href="#TimesNewRomanPSMT-77"/>
      <use xlink:href="#TimesNewRomanPSMT-5f" transform="translate(72.216797 0)"/>
      <use xlink:href="#TimesNewRomanPSMT-73" transform="translate(122.216797 0)"/>
      <use xlink:href="#TimesNewRomanPSMT-79" transform="translate(161.132812 0)"/>
      <use xlink:href="#TimesNewRomanPSMT-6d" transform="translate(211.132812 0)"/>
     </g>
    </g>
   </g>
  </g>
  <g id="axes_2">
   <g id="patch_8">
    <path d="M 539.12154 291.4 
L 914.357603 291.4 
L 914.357603 42 
L 539.12154 42 
z
" style="fill: #ffffff"/>
   </g>
   <g id="matplotlib.axis_3">
    <g id="xtick_6">
     <g id="line2d_21">
      <path d="M 554.463536 291.4 
L 554.463536 42 
" clip-path="url(#pbce52ab60a)" style="fill: none; stroke-dasharray: 2.96,1.28; stroke-dashoffset: 0; stroke: #b0b0b0; stroke-opacity: 0.6; stroke-width: 0.8"/>
     </g>
     <g id="line2d_22">
      <g>
       <use xlink:href="#m4e9f695980" x="554.463536" y="291.4" style="stroke: #000000; stroke-width: 0.8"/>
      </g>
     </g>
     <g id="text_14">
      <!-- 0 -->
      <g transform="translate(549.463536 312.2875) scale(0.2 -0.2)">
       <use xlink:href="#TimesNewRomanPSMT-30"/>
      </g>
     </g>
    </g>
    <g id="xtick_7">
     <g id="line2d_23">
      <path d="M 640.173006 291.4 
L 640.173006 42 
" clip-path="url(#pbce52ab60a)" style="fill: none; stroke-dasharray: 2.96,1.28; stroke-dashoffset: 0; stroke: #b0b0b0; stroke-opacity: 0.6; stroke-width: 0.8"/>
     </g>
     <g id="line2d_24">
      <g>
       <use xlink:href="#m4e9f695980" x="640.173006" y="291.4" style="stroke: #000000; stroke-width: 0.8"/>
      </g>
     </g>
     <g id="text_15">
      <!-- 50 -->
      <g transform="translate(630.173006 312.2875) scale(0.2 -0.2)">
       <use xlink:href="#TimesNewRomanPSMT-35"/>
       <use xlink:href="#TimesNewRomanPSMT-30" transform="translate(50 0)"/>
      </g>
     </g>
    </g>
    <g id="xtick_8">
     <g id="line2d_25">
      <path d="M 725.882477 291.4 
L 725.882477 42 
" clip-path="url(#pbce52ab60a)" style="fill: none; stroke-dasharray: 2.96,1.28; stroke-dashoffset: 0; stroke: #b0b0b0; stroke-opacity: 0.6; stroke-width: 0.8"/>
     </g>
     <g id="line2d_26">
      <g>
       <use xlink:href="#m4e9f695980" x="725.882477" y="291.4" style="stroke: #000000; stroke-width: 0.8"/>
      </g>
     </g>
     <g id="text_16">
      <!-- 100 -->
      <g transform="translate(710.882477 312.2875) scale(0.2 -0.2)">
       <use xlink:href="#TimesNewRomanPSMT-31"/>
       <use xlink:href="#TimesNewRomanPSMT-30" transform="translate(50 0)"/>
       <use xlink:href="#TimesNewRomanPSMT-30" transform="translate(100 0)"/>
      </g>
     </g>
    </g>
    <g id="xtick_9">
     <g id="line2d_27">
      <path d="M 811.591948 291.4 
L 811.591948 42 
" clip-path="url(#pbce52ab60a)" style="fill: none; stroke-dasharray: 2.96,1.28; stroke-dashoffset: 0; stroke: #b0b0b0; stroke-opacity: 0.6; stroke-width: 0.8"/>
     </g>
     <g id="line2d_28">
      <g>
       <use xlink:href="#m4e9f695980" x="811.591948" y="291.4" style="stroke: #000000; stroke-width: 0.8"/>
      </g>
     </g>
     <g id="text_17">
      <!-- 150 -->
      <g transform="translate(796.591948 312.2875) scale(0.2 -0.2)">
       <use xlink:href="#TimesNewRomanPSMT-31"/>
       <use xlink:href="#TimesNewRomanPSMT-35" transform="translate(50 0)"/>
       <use xlink:href="#TimesNewRomanPSMT-30" transform="translate(100 0)"/>
      </g>
     </g>
    </g>
    <g id="xtick_10">
     <g id="line2d_29">
      <path d="M 897.301419 291.4 
L 897.301419 42 
" clip-path="url(#pbce52ab60a)" style="fill: none; stroke-dasharray: 2.96,1.28; stroke-dashoffset: 0; stroke: #b0b0b0; stroke-opacity: 0.6; stroke-width: 0.8"/>
     </g>
     <g id="line2d_30">
      <g>
       <use xlink:href="#m4e9f695980" x="897.301419" y="291.4" style="stroke: #000000; stroke-width: 0.8"/>
      </g>
     </g>
     <g id="text_18">
      <!-- 200 -->
      <g transform="translate(882.301419 312.2875) scale(0.2 -0.2)">
       <use xlink:href="#TimesNewRomanPSMT-32"/>
       <use xlink:href="#TimesNewRomanPSMT-30" transform="translate(50 0)"/>
       <use xlink:href="#TimesNewRomanPSMT-30" transform="translate(100 0)"/>
      </g>
     </g>
    </g>
    <g id="text_19">
     <!-- Epoch -->
     <g transform="translate(701.192697 334.453125) scale(0.2 -0.2)">
      <use xlink:href="#TimesNewRomanPSMT-45"/>
      <use xlink:href="#TimesNewRomanPSMT-70" transform="translate(61.083984 0)"/>
      <use xlink:href="#TimesNewRomanPSMT-6f" transform="translate(111.083984 0)"/>
      <use xlink:href="#TimesNewRomanPSMT-63" transform="translate(161.083984 0)"/>
      <use xlink:href="#TimesNewRomanPSMT-68" transform="translate(205.46875 0)"/>
     </g>
    </g>
   </g>
   <g id="matplotlib.axis_4">
    <g id="ytick_2">
     <g id="line2d_31">
      <path d="M 539.12154 262.743308 
L 914.357603 262.743308 
" clip-path="url(#pbce52ab60a)" style="fill: none; stroke-dasharray: 2.96,1.28; stroke-dashoffset: 0; stroke: #b0b0b0; stroke-opacity: 0.6; stroke-width: 0.8"/>
     </g>
     <g id="line2d_32">
      <g>
       <use xlink:href="#m8594b86edb" x="539.12154" y="262.743308" style="stroke: #000000; stroke-width: 0.8"/>
      </g>
     </g>
     <g id="text_20">
      <!-- $\mathdefault{10^{-6}}$ -->
      <g transform="translate(495.92154 271.604246) scale(0.2 -0.2)">
       <defs>
        <path id="TimesNewRomanPSMT-2212" d="M 3484 2000 
L 116 2000 
L 116 2256 
L 3484 2256 
L 3484 2000 
z
" transform="scale(0.015625)"/>
       </defs>
       <use xlink:href="#TimesNewRomanPSMT-31" transform="translate(0 0.582813)"/>
       <use xlink:href="#TimesNewRomanPSMT-30" transform="translate(50 0.582813)"/>
       <use xlink:href="#TimesNewRomanPSMT-2212" transform="translate(101.502813 60.695312) scale(0.7)"/>
       <use xlink:href="#TimesNewRomanPSMT-36" transform="translate(140.980352 60.695312) scale(0.7)"/>
      </g>
     </g>
    </g>
    <g id="ytick_3">
     <g id="line2d_33">
      <path d="M 539.12154 222.572548 
L 914.357603 222.572548 
" clip-path="url(#pbce52ab60a)" style="fill: none; stroke-dasharray: 2.96,1.28; stroke-dashoffset: 0; stroke: #b0b0b0; stroke-opacity: 0.6; stroke-width: 0.8"/>
     </g>
     <g id="line2d_34">
      <g>
       <use xlink:href="#m8594b86edb" x="539.12154" y="222.572548" style="stroke: #000000; stroke-width: 0.8"/>
      </g>
     </g>
     <g id="text_21">
      <!-- $\mathdefault{10^{-5}}$ -->
      <g transform="translate(495.92154 231.333485) scale(0.2 -0.2)">
       <use xlink:href="#TimesNewRomanPSMT-31" transform="translate(0 0.534375)"/>
       <use xlink:href="#TimesNewRomanPSMT-30" transform="translate(50 0.534375)"/>
       <use xlink:href="#TimesNewRomanPSMT-2212" transform="translate(101.502813 60.646875) scale(0.7)"/>
       <use xlink:href="#TimesNewRomanPSMT-35" transform="translate(140.980352 60.646875) scale(0.7)"/>
      </g>
     </g>
    </g>
    <g id="ytick_4">
     <g id="line2d_35">
      <path d="M 539.12154 182.401787 
L 914.357603 182.401787 
" clip-path="url(#pbce52ab60a)" style="fill: none; stroke-dasharray: 2.96,1.28; stroke-dashoffset: 0; stroke: #b0b0b0; stroke-opacity: 0.6; stroke-width: 0.8"/>
     </g>
     <g id="line2d_36">
      <g>
       <use xlink:href="#m8594b86edb" x="539.12154" y="182.401787" style="stroke: #000000; stroke-width: 0.8"/>
      </g>
     </g>
     <g id="text_22">
      <!-- $\mathdefault{10^{-4}}$ -->
      <g transform="translate(495.92154 191.262725) scale(0.2 -0.2)">
       <use xlink:href="#TimesNewRomanPSMT-31" transform="translate(0 0.582813)"/>
       <use xlink:href="#TimesNewRomanPSMT-30" transform="translate(50 0.582813)"/>
       <use xlink:href="#TimesNewRomanPSMT-2212" transform="translate(101.502813 60.695312) scale(0.7)"/>
       <use xlink:href="#TimesNewRomanPSMT-34" transform="translate(140.980352 60.695312) scale(0.7)"/>
      </g>
     </g>
    </g>
    <g id="ytick_5">
     <g id="line2d_37">
      <path d="M 539.12154 142.231027 
L 914.357603 142.231027 
" clip-path="url(#pbce52ab60a)" style="fill: none; stroke-dasharray: 2.96,1.28; stroke-dashoffset: 0; stroke: #b0b0b0; stroke-opacity: 0.6; stroke-width: 0.8"/>
     </g>
     <g id="line2d_38">
      <g>
       <use xlink:href="#m8594b86edb" x="539.12154" y="142.231027" style="stroke: #000000; stroke-width: 0.8"/>
      </g>
     </g>
     <g id="text_23">
      <!-- $\mathdefault{10^{-3}}$ -->
      <g transform="translate(495.92154 151.091964) scale(0.2 -0.2)">
       <defs>
        <path id="TimesNewRomanPSMT-33" d="M 325 3431 
Q 506 3859 782 4092 
Q 1059 4325 1472 4325 
Q 1981 4325 2253 3994 
Q 2459 3747 2459 3466 
Q 2459 3003 1878 2509 
Q 2269 2356 2469 2072 
Q 2669 1788 2669 1403 
Q 2669 853 2319 450 
Q 1863 -75 997 -75 
Q 569 -75 414 31 
Q 259 138 259 259 
Q 259 350 332 419 
Q 406 488 509 488 
Q 588 488 669 463 
Q 722 447 909 348 
Q 1097 250 1169 231 
Q 1284 197 1416 197 
Q 1734 197 1970 444 
Q 2206 691 2206 1028 
Q 2206 1275 2097 1509 
Q 2016 1684 1919 1775 
Q 1784 1900 1550 2001 
Q 1316 2103 1072 2103 
L 972 2103 
L 972 2197 
Q 1219 2228 1467 2375 
Q 1716 2522 1828 2728 
Q 1941 2934 1941 3181 
Q 1941 3503 1739 3701 
Q 1538 3900 1238 3900 
Q 753 3900 428 3381 
L 325 3431 
z
" transform="scale(0.015625)"/>
       </defs>
       <use xlink:href="#TimesNewRomanPSMT-31" transform="translate(0 0.582813)"/>
       <use xlink:href="#TimesNewRomanPSMT-30" transform="translate(50 0.582813)"/>
       <use xlink:href="#TimesNewRomanPSMT-2212" transform="translate(101.502813 60.695312) scale(0.7)"/>
       <use xlink:href="#TimesNewRomanPSMT-33" transform="translate(140.980352 60.695312) scale(0.7)"/>
      </g>
     </g>
    </g>
    <g id="ytick_6">
     <g id="line2d_39">
      <path d="M 539.12154 102.060266 
L 914.357603 102.060266 
" clip-path="url(#pbce52ab60a)" style="fill: none; stroke-dasharray: 2.96,1.28; stroke-dashoffset: 0; stroke: #b0b0b0; stroke-opacity: 0.6; stroke-width: 0.8"/>
     </g>
     <g id="line2d_40">
      <g>
       <use xlink:href="#m8594b86edb" x="539.12154" y="102.060266" style="stroke: #000000; stroke-width: 0.8"/>
      </g>
     </g>
     <g id="text_24">
      <!-- $\mathdefault{10^{-2}}$ -->
      <g transform="translate(495.92154 110.921204) scale(0.2 -0.2)">
       <use xlink:href="#TimesNewRomanPSMT-31" transform="translate(0 0.582813)"/>
       <use xlink:href="#TimesNewRomanPSMT-30" transform="translate(50 0.582813)"/>
       <use xlink:href="#TimesNewRomanPSMT-2212" transform="translate(101.502813 60.695312) scale(0.7)"/>
       <use xlink:href="#TimesNewRomanPSMT-32" transform="translate(140.980352 60.695312) scale(0.7)"/>
      </g>
     </g>
    </g>
    <g id="ytick_7">
     <g id="line2d_41">
      <path d="M 539.12154 61.889506 
L 914.357603 61.889506 
" clip-path="url(#pbce52ab60a)" style="fill: none; stroke-dasharray: 2.96,1.28; stroke-dashoffset: 0; stroke: #b0b0b0; stroke-opacity: 0.6; stroke-width: 0.8"/>
     </g>
     <g id="line2d_42">
      <g>
       <use xlink:href="#m8594b86edb" x="539.12154" y="61.889506" style="stroke: #000000; stroke-width: 0.8"/>
      </g>
     </g>
     <g id="text_25">
      <!-- $\mathdefault{10^{-1}}$ -->
      <g transform="translate(495.92154 70.750443) scale(0.2 -0.2)">
       <use xlink:href="#TimesNewRomanPSMT-31" transform="translate(0 0.582813)"/>
       <use xlink:href="#TimesNewRomanPSMT-30" transform="translate(50 0.582813)"/>
       <use xlink:href="#TimesNewRomanPSMT-2212" transform="translate(101.502813 60.695312) scale(0.7)"/>
       <use xlink:href="#TimesNewRomanPSMT-31" transform="translate(140.980352 60.695312) scale(0.7)"/>
      </g>
     </g>
    </g>
    <g id="text_26">
     <!-- Effective Loss Magnitude (SymLog Scale) -->
     <g transform="translate(487.605915 338.146875) rotate(-90) scale(0.2 -0.2)">
      <defs>
       <path id="TimesNewRomanPSMT-66" d="M 1319 2638 
L 1319 756 
Q 1319 356 1406 250 
Q 1522 113 1716 113 
L 1975 113 
L 1975 0 
L 266 0 
L 266 113 
L 394 113 
Q 519 113 622 175 
Q 725 238 764 344 
Q 803 450 803 756 
L 803 2638 
L 247 2638 
L 247 2863 
L 803 2863 
L 803 3050 
Q 803 3478 940 3775 
Q 1078 4072 1361 4255 
Q 1644 4438 1997 4438 
Q 2325 4438 2600 4225 
Q 2781 4084 2781 3909 
Q 2781 3816 2700 3733 
Q 2619 3650 2525 3650 
Q 2453 3650 2373 3701 
Q 2294 3753 2178 3923 
Q 2063 4094 1966 4153 
Q 1869 4213 1750 4213 
Q 1606 4213 1506 4136 
Q 1406 4059 1362 3898 
Q 1319 3738 1319 3069 
L 1319 2863 
L 2056 2863 
L 2056 2638 
L 1319 2638 
z
" transform="scale(0.015625)"/>
       <path id="TimesNewRomanPSMT-4d" d="M 2619 0 
L 981 3566 
L 981 734 
Q 981 344 1066 247 
Q 1181 116 1431 116 
L 1581 116 
L 1581 0 
L 106 0 
L 106 116 
L 256 116 
Q 525 116 638 278 
Q 706 378 706 734 
L 706 3503 
Q 706 3784 644 3909 
Q 600 4000 483 4061 
Q 366 4122 106 4122 
L 106 4238 
L 1306 4238 
L 2844 922 
L 4356 4238 
L 5556 4238 
L 5556 4122 
L 5409 4122 
Q 5138 4122 5025 3959 
Q 4956 3859 4956 3503 
L 4956 734 
Q 4956 344 5044 247 
Q 5159 116 5409 116 
L 5556 116 
L 5556 0 
L 3756 0 
L 3756 116 
L 3906 116 
Q 4178 116 4288 278 
Q 4356 378 4356 734 
L 4356 3566 
L 2722 0 
L 2619 0 
z
" transform="scale(0.015625)"/>
      </defs>
      <use xlink:href="#TimesNewRomanPSMT-45"/>
      <use xlink:href="#TimesNewRomanPSMT-66" transform="translate(61.083984 0)"/>
      <use xlink:href="#TimesNewRomanPSMT-66" transform="translate(92.634766 0)"/>
      <use xlink:href="#TimesNewRomanPSMT-65" transform="translate(125.935547 0)"/>
      <use xlink:href="#TimesNewRomanPSMT-63" transform="translate(170.320312 0)"/>
      <use xlink:href="#TimesNewRomanPSMT-74" transform="translate(214.705078 0)"/>
      <use xlink:href="#TimesNewRomanPSMT-69" transform="translate(242.488281 0)"/>
      <use xlink:href="#TimesNewRomanPSMT-76" transform="translate(270.271484 0)"/>
      <use xlink:href="#TimesNewRomanPSMT-65" transform="translate(320.271484 0)"/>
      <use xlink:href="#TimesNewRomanPSMT-20" transform="translate(364.65625 0)"/>
      <use xlink:href="#TimesNewRomanPSMT-4c" transform="translate(389.65625 0)"/>
      <use xlink:href="#TimesNewRomanPSMT-6f" transform="translate(450.740234 0)"/>
      <use xlink:href="#TimesNewRomanPSMT-73" transform="translate(500.740234 0)"/>
      <use xlink:href="#TimesNewRomanPSMT-73" transform="translate(539.65625 0)"/>
      <use xlink:href="#TimesNewRomanPSMT-20" transform="translate(578.572266 0)"/>
      <use xlink:href="#TimesNewRomanPSMT-4d" transform="translate(603.572266 0)"/>
      <use xlink:href="#TimesNewRomanPSMT-61" transform="translate(692.488281 0)"/>
      <use xlink:href="#TimesNewRomanPSMT-67" transform="translate(736.873047 0)"/>
      <use xlink:href="#TimesNewRomanPSMT-6e" transform="translate(786.873047 0)"/>
      <use xlink:href="#TimesNewRomanPSMT-69" transform="translate(836.873047 0)"/>
      <use xlink:href="#TimesNewRomanPSMT-74" transform="translate(864.65625 0)"/>
      <use xlink:href="#TimesNewRomanPSMT-75" transform="translate(892.439453 0)"/>
      <use xlink:href="#TimesNewRomanPSMT-64" transform="translate(942.439453 0)"/>
      <use xlink:href="#TimesNewRomanPSMT-65" transform="translate(992.439453 0)"/>
      <use xlink:href="#TimesNewRomanPSMT-20" transform="translate(1036.824219 0)"/>
      <use xlink:href="#TimesNewRomanPSMT-28" transform="translate(1061.824219 0)"/>
      <use xlink:href="#TimesNewRomanPSMT-53" transform="translate(1095.125 0)"/>
      <use xlink:href="#TimesNewRomanPSMT-79" transform="translate(1150.740234 0)"/>
      <use xlink:href="#TimesNewRomanPSMT-6d" transform="translate(1200.740234 0)"/>
      <use xlink:href="#TimesNewRomanPSMT-4c" transform="translate(1278.523438 0)"/>
      <use xlink:href="#TimesNewRomanPSMT-6f" transform="translate(1339.607422 0)"/>
      <use xlink:href="#TimesNewRomanPSMT-67" transform="translate(1389.607422 0)"/>
      <use xlink:href="#TimesNewRomanPSMT-20" transform="translate(1439.607422 0)"/>
      <use xlink:href="#TimesNewRomanPSMT-53" transform="translate(1464.607422 0)"/>
      <use xlink:href="#TimesNewRomanPSMT-63" transform="translate(1520.222656 0)"/>
      <use xlink:href="#TimesNewRomanPSMT-61" transform="translate(1564.607422 0)"/>
      <use xlink:href="#TimesNewRomanPSMT-6c" transform="translate(1608.992188 0)"/>
      <use xlink:href="#TimesNewRomanPSMT-65" transform="translate(1636.775391 0)"/>
      <use xlink:href="#TimesNewRomanPSMT-29" transform="translate(1681.160156 0)"/>
     </g>
    </g>
   </g>
   <g id="line2d_43">
    <path d="M 556.177725 53.336364 
L 557.891914 71.850583 
L 559.606104 75.754203 
L 561.320293 79.079981 
L 563.034483 81.845936 
L 564.748672 85.467388 
L 566.462861 89.829401 
L 568.177051 96.959304 
L 569.89124 108.214947 
L 571.60543 121.061481 
L 573.319619 126.790107 
L 575.033809 128.47975 
L 576.747998 129.36423 
L 578.462187 129.511681 
L 580.176377 129.981851 
L 581.890566 130.288458 
L 583.604756 129.951775 
L 585.318945 131.521518 
L 588.747324 131.22058 
L 592.175703 131.978725 
L 593.889892 131.704312 
L 595.604082 131.248795 
L 597.318271 132.216411 
L 599.03246 132.224155 
L 600.74665 132.383143 
L 602.460839 132.722981 
L 604.175029 132.925877 
L 605.889218 132.83112 
L 607.603407 132.410067 
L 609.317597 133.132166 
L 611.031786 132.701136 
L 612.745976 132.9718 
L 614.460165 132.907 
L 616.174355 133.833313 
L 617.888544 133.639087 
L 619.602733 133.578663 
L 621.316923 134.142507 
L 623.031112 134.064691 
L 624.745302 134.137707 
L 626.459491 135.497444 
L 628.17368 135.424446 
L 629.88787 135.045828 
L 631.602059 135.810108 
L 633.316249 136.01071 
L 635.030438 136.690426 
L 636.744627 136.849511 
L 638.458817 138.014964 
L 640.173006 138.375545 
L 641.887196 138.613534 
L 643.601385 139.212621 
L 645.315575 139.940343 
L 647.029764 139.711199 
L 648.743953 141.022283 
L 650.458143 141.133272 
L 652.172332 142.122588 
L 655.600711 143.45371 
L 662.457469 145.335941 
L 664.171658 144.745585 
L 665.885848 146.021616 
L 669.314226 146.426009 
L 674.456795 148.154263 
L 676.170984 148.157138 
L 677.885173 149.000066 
L 679.599363 148.793541 
L 681.313552 148.741117 
L 683.027742 149.264105 
L 684.741931 150.103055 
L 686.456121 150.137781 
L 689.884499 150.815658 
L 691.598689 150.804212 
L 693.312878 150.49975 
L 695.027068 150.375215 
L 696.741257 149.627338 
L 698.455446 150.441158 
L 700.169636 150.44996 
L 701.883825 151.480798 
L 703.598015 150.885072 
L 705.312204 150.060226 
L 707.026394 151.405084 
L 708.740583 151.716331 
L 710.454772 150.892927 
L 712.168962 151.402049 
L 713.883151 151.78009 
L 715.597341 152.325391 
L 717.31153 152.433443 
L 719.025719 152.668279 
L 722.454098 152.810982 
L 724.168288 151.612377 
L 725.882477 152.535842 
L 729.310856 152.707132 
L 731.025045 152.453768 
L 732.739235 153.324032 
L 734.453424 153.140838 
L 737.881803 152.113889 
L 739.595992 153.399994 
L 741.310182 153.204644 
L 743.024371 152.819406 
L 744.738561 153.485227 
L 746.45275 153.269304 
L 748.166939 153.453251 
L 749.881129 153.481819 
L 751.595318 153.369872 
L 753.309508 152.960718 
L 755.023697 153.294415 
L 756.737887 152.937573 
L 758.452076 153.814661 
L 760.166265 153.930645 
L 761.880455 153.811994 
L 763.594644 153.452785 
L 765.308834 153.502013 
L 767.023023 153.238212 
L 768.737212 153.987892 
L 770.451402 153.719186 
L 773.879781 153.833891 
L 775.59397 153.002728 
L 777.30816 152.730934 
L 779.022349 153.46417 
L 780.736538 153.929919 
L 782.450728 153.525601 
L 784.164917 153.980303 
L 785.879107 154.082292 
L 787.593296 153.900657 
L 789.307485 154.514562 
L 791.021675 154.327628 
L 792.735864 153.837633 
L 796.164243 154.501722 
L 797.878433 154.312971 
L 799.592622 154.736691 
L 801.306811 153.986362 
L 803.021001 153.392235 
L 804.73519 153.264012 
L 806.44938 153.005737 
L 808.163569 154.485746 
L 809.877758 154.55875 
L 811.591948 155.050627 
L 813.306137 154.987748 
L 815.020327 154.678066 
L 816.734516 154.207086 
L 818.448706 152.41779 
L 820.162895 154.508735 
L 821.877084 155.175367 
L 823.591274 154.852087 
L 827.019653 155.037655 
L 833.87641 154.831383 
L 835.5906 155.17435 
L 837.304789 155.366404 
L 839.018979 154.403103 
L 842.447357 155.235253 
L 845.875736 155.469158 
L 847.589926 154.712133 
L 849.304115 155.733411 
L 851.018304 155.780696 
L 852.732494 155.491164 
L 856.160873 155.717011 
L 859.589251 155.501598 
L 861.303441 154.671396 
L 863.01763 154.916196 
L 864.73182 155.882621 
L 866.446009 155.913994 
L 868.160199 155.580135 
L 871.588577 155.557583 
L 873.302767 155.93871 
L 875.016956 155.663009 
L 876.731146 154.876776 
L 878.445335 153.933959 
L 880.159524 155.187551 
L 881.873714 155.748532 
L 883.587903 155.853148 
L 885.302093 155.473739 
L 887.016282 155.444514 
L 888.730472 155.992622 
L 890.444661 156.060551 
L 892.15885 155.462251 
L 893.87304 155.592183 
L 895.587229 154.757189 
L 897.301419 153.615255 
L 897.301419 153.615255 
" clip-path="url(#pbce52ab60a)" style="fill: none; stroke: #1f77b4; stroke-opacity: 0.85; stroke-width: 1.5; stroke-linecap: square"/>
   </g>
   <g id="line2d_44">
    <path d="M 556.177725 194.174558 
L 557.891914 173.941504 
L 559.606104 181.374066 
L 561.320293 187.433994 
L 563.034483 188.754779 
L 566.462861 201.362051 
L 568.177051 211.834482 
L 569.89124 227.208596 
L 571.60543 221.2899 
L 573.319619 211.584371 
L 575.033809 209.713082 
L 576.747998 211.84355 
L 578.462187 211.806775 
L 580.176377 212.541041 
L 581.890566 211.224119 
L 583.604756 211.788752 
L 585.318945 212.830396 
L 587.033134 212.720673 
L 588.747324 212.488284 
L 590.461513 212.589579 
L 592.175703 212.432871 
L 593.889892 212.392517 
L 595.604082 212.819942 
L 597.318271 213.415224 
L 599.03246 213.797081 
L 600.74665 213.079214 
L 602.460839 213.69244 
L 604.175029 213.846864 
L 605.889218 213.805376 
L 607.603407 214.521051 
L 611.031786 215.148724 
L 612.745976 214.996354 
L 614.460165 215.315535 
L 616.174355 216.16454 
L 617.888544 215.816133 
L 619.602733 216.508003 
L 621.316923 217.380742 
L 623.031112 216.764183 
L 624.745302 218.086627 
L 626.459491 218.949033 
L 628.17368 218.125263 
L 629.88787 219.270814 
L 631.602059 221.037559 
L 633.316249 221.579442 
L 635.030438 221.342633 
L 636.744627 223.273247 
L 638.458817 222.65488 
L 640.173006 224.272558 
L 641.887196 224.01702 
L 643.601385 226.192799 
L 645.315575 226.626926 
L 647.029764 227.21003 
L 648.743953 228.655033 
L 650.458143 229.048152 
L 652.172332 231.596994 
L 653.886522 231.347581 
L 655.600711 232.119008 
L 657.3149 233.692346 
L 659.02909 233.643618 
L 660.743279 236.075042 
L 662.457469 235.784328 
L 664.171658 236.313619 
L 665.885848 238.604503 
L 667.600037 238.746645 
L 669.314226 239.645631 
L 671.028416 240.258492 
L 674.456795 242.952753 
L 676.170984 242.548757 
L 677.885173 244.543074 
L 679.599363 244.477402 
L 681.313552 245.569279 
L 683.027742 245.774051 
L 684.741931 246.659732 
L 686.456121 247.834115 
L 688.17031 249.406604 
L 689.884499 249.10064 
L 691.598689 249.955884 
L 693.312878 249.219332 
L 695.027068 252.058235 
L 696.741257 251.567458 
L 698.455446 251.287351 
L 701.883825 252.61387 
L 703.598015 253.063442 
L 705.312204 253.079154 
L 707.026394 253.246137 
L 708.740583 255.036623 
L 710.454772 255.734176 
L 712.168962 256.29477 
L 713.883151 254.165901 
L 715.597341 255.966964 
L 717.31153 256.879349 
L 719.025719 257.114612 
L 720.739909 257.656078 
L 722.454098 258.02319 
L 724.168288 257.822785 
L 725.882477 257.972671 
L 729.310856 259.694761 
L 731.025045 260.443735 
L 732.739235 260.381663 
L 734.453424 262.716398 
L 736.167614 260.930215 
L 737.881803 261.330741 
L 739.595992 262.45438 
L 741.310182 261.937618 
L 743.024371 260.869618 
L 744.738561 261.545894 
L 746.45275 261.514358 
L 748.166939 263.54862 
L 749.881129 262.779609 
L 751.595318 263.86223 
L 753.309508 262.629018 
L 755.023697 261.912347 
L 756.737887 262.180357 
L 758.452076 263.701349 
L 760.166265 262.810536 
L 761.880455 263.503395 
L 763.594644 262.577359 
L 765.308834 265.763835 
L 767.023023 263.355169 
L 768.737212 264.512397 
L 770.451402 266.024849 
L 772.165591 265.065736 
L 773.879781 264.258519 
L 775.59397 266.649973 
L 777.30816 265.331134 
L 779.022349 268.950552 
L 780.736538 269.261078 
L 782.450728 270.926488 
L 784.164917 269.150756 
L 785.879107 268.02485 
L 787.593296 268.235237 
L 789.307485 271.000483 
L 791.021675 269.778778 
L 792.735864 269.000021 
L 794.450054 269.87974 
L 796.164243 268.722929 
L 797.878433 270.40127 
L 799.592622 272.412969 
L 801.306811 270.543973 
L 804.73519 270.083702 
L 806.44938 272.188781 
L 808.163569 272.93488 
L 809.877758 273.380637 
L 811.591948 274.945334 
L 813.306137 274.715227 
L 815.020327 275.680572 
L 816.734516 275.209414 
L 818.448706 270.345869 
L 820.162895 271.992112 
L 821.877084 274.783712 
L 823.591274 278.357923 
L 825.305463 274.696765 
L 827.019653 275.6301 
L 828.733842 276.253296 
L 830.448031 276.457537 
L 832.162221 276.228512 
L 833.87641 275.712768 
L 835.5906 276.262395 
L 837.304789 275.453337 
L 839.018979 278.549979 
L 840.733168 275.761771 
L 842.447357 278.637196 
L 845.875736 277.269893 
L 847.589926 276.820652 
L 849.304115 278.571791 
L 851.018304 277.598903 
L 852.732494 277.505628 
L 854.446683 277.685393 
L 856.160873 276.575065 
L 857.875062 276.900504 
L 859.589251 276.986712 
L 861.303441 276.311398 
L 863.01763 279.929931 
L 864.73182 277.314312 
L 866.446009 277.879194 
L 868.160199 276.914842 
L 869.874388 277.594703 
L 871.588577 276.9953 
L 873.302767 275.751141 
L 876.731146 279.879156 
L 878.445335 276.182444 
L 880.159524 277.769211 
L 881.873714 277.632586 
L 883.587903 277.236772 
L 885.302093 276.667732 
L 887.016282 276.416683 
L 888.730472 278.554856 
L 890.444661 276.274622 
L 892.15885 280.063636 
L 893.87304 277.605994 
L 895.587229 275.914013 
L 897.301419 274.527243 
L 897.301419 274.527243 
" clip-path="url(#pbce52ab60a)" style="fill: none; stroke: #ff7f0e; stroke-opacity: 0.85; stroke-width: 1.5; stroke-linecap: square"/>
   </g>
   <g id="line2d_45">
    <path d="M 556.177725 176.350487 
L 557.891914 184.029581 
L 559.606104 187.066797 
L 561.320293 193.046817 
L 563.034483 195.233426 
L 566.462861 209.909048 
L 568.177051 219.042734 
L 569.89124 229.824466 
L 571.60543 235.753891 
L 573.319619 242.571548 
L 575.033809 245.76821 
L 576.747998 247.337664 
L 578.462187 249.724194 
L 580.176377 249.201298 
L 581.890566 249.102964 
L 583.604756 248.834397 
L 585.318945 248.845477 
L 587.033134 248.216329 
L 590.461513 247.753985 
L 592.175703 246.455699 
L 593.889892 246.541387 
L 595.604082 246.175778 
L 597.318271 246.034486 
L 600.74665 245.24173 
L 602.460839 245.205395 
L 604.175029 244.559479 
L 605.889218 244.777632 
L 607.603407 244.491273 
L 611.031786 244.197591 
L 614.460165 243.709372 
L 616.174355 244.061945 
L 617.888544 243.569055 
L 619.602733 244.104144 
L 621.316923 244.360297 
L 623.031112 243.771678 
L 624.745302 243.406677 
L 626.459491 243.798298 
L 628.17368 244.346722 
L 629.88787 244.264297 
L 631.602059 244.369696 
L 633.316249 244.273604 
L 635.030438 244.358531 
L 636.744627 243.778693 
L 638.458817 244.454395 
L 640.173006 243.926565 
L 643.601385 244.451423 
L 645.315575 243.555362 
L 647.029764 244.539874 
L 648.743953 244.502648 
L 650.458143 244.116281 
L 652.172332 243.946803 
L 653.886522 244.475506 
L 655.600711 243.872393 
L 657.3149 244.409149 
L 659.02909 244.168239 
L 660.743279 243.650833 
L 662.457469 243.502655 
L 664.171658 243.65058 
L 665.885848 243.676076 
L 667.600037 243.088456 
L 669.314226 243.674687 
L 671.028416 243.121188 
L 672.742605 242.373322 
L 674.456795 242.638843 
L 676.170984 242.020109 
L 677.885173 242.641688 
L 679.599363 241.543592 
L 681.313552 242.601615 
L 683.027742 242.009033 
L 684.741931 241.964587 
L 686.456121 241.452847 
L 688.17031 242.397044 
L 689.884499 241.758612 
L 691.598689 242.683024 
L 693.312878 241.436262 
L 695.027068 242.538891 
L 696.741257 241.334728 
L 698.455446 241.375167 
L 700.169636 241.304443 
L 701.883825 242.168588 
L 703.598015 241.878982 
L 705.312204 241.205927 
L 707.026394 241.342593 
L 708.740583 243.081981 
L 710.454772 241.656979 
L 712.168962 242.796422 
L 713.883151 241.55879 
L 715.597341 241.391546 
L 719.025719 241.791944 
L 720.739909 242.188475 
L 722.454098 242.299135 
L 724.168288 242.62511 
L 725.882477 242.633974 
L 727.596667 241.994644 
L 729.310856 241.707846 
L 731.025045 242.63923 
L 736.167614 243.057497 
L 737.881803 242.622471 
L 739.595992 242.634661 
L 741.310182 243.818636 
L 743.024371 243.428115 
L 744.738561 243.402159 
L 746.45275 242.957593 
L 748.166939 242.912138 
L 749.881129 243.630362 
L 753.309508 243.472902 
L 755.023697 243.881161 
L 756.737887 243.778967 
L 758.452076 243.895018 
L 760.166265 244.236382 
L 761.880455 244.700166 
L 765.308834 244.325985 
L 767.023023 244.911108 
L 768.737212 245.16107 
L 770.451402 243.860111 
L 772.165591 244.818957 
L 773.879781 244.494928 
L 775.59397 244.652219 
L 777.30816 244.506634 
L 779.022349 245.171833 
L 782.450728 244.728587 
L 784.164917 246.332508 
L 785.879107 245.271391 
L 787.593296 245.293974 
L 789.307485 245.919958 
L 791.021675 245.232286 
L 796.164243 246.335134 
L 797.878433 245.06264 
L 799.592622 245.828469 
L 801.306811 246.221387 
L 803.021001 246.030064 
L 804.73519 246.31739 
L 806.44938 244.942156 
L 808.163569 246.343731 
L 811.591948 246.432654 
L 813.306137 246.401222 
L 815.020327 247.357144 
L 816.734516 246.610145 
L 818.448706 246.601262 
L 820.162895 246.391715 
L 821.877084 246.437741 
L 823.591274 247.272234 
L 825.305463 246.918495 
L 827.019653 246.893952 
L 830.448031 247.266007 
L 833.87641 247.055752 
L 835.5906 246.911465 
L 837.304789 247.484741 
L 839.018979 247.064788 
L 840.733168 247.355452 
L 842.447357 247.485422 
L 844.161547 247.194169 
L 845.875736 248.034479 
L 847.589926 247.569109 
L 849.304115 249.131077 
L 851.018304 248.931785 
L 852.732494 248.993746 
L 854.446683 249.585347 
L 856.160873 248.915154 
L 857.875062 247.82292 
L 859.589251 248.097575 
L 861.303441 248.645675 
L 863.01763 248.163042 
L 864.73182 248.754587 
L 866.446009 248.39358 
L 868.160199 248.58485 
L 869.874388 248.555007 
L 871.588577 248.853011 
L 873.302767 248.729908 
L 875.016956 248.947346 
L 876.731146 249.277301 
L 878.445335 248.247387 
L 881.873714 249.559607 
L 883.587903 250.00725 
L 885.302093 248.932929 
L 887.016282 248.437236 
L 888.730472 248.730972 
L 890.444661 248.867538 
L 892.15885 249.161167 
L 893.87304 249.616124 
L 895.587229 249.256872 
L 897.301419 249.453299 
L 897.301419 249.453299 
" clip-path="url(#pbce52ab60a)" style="fill: none; stroke: #2ca02c; stroke-opacity: 0.85; stroke-width: 1.5; stroke-linecap: square"/>
   </g>
   <g id="line2d_46">
    <path d="M 556.177725 150.147894 
L 557.891914 143.452634 
L 559.606104 164.595494 
L 561.320293 179.332448 
L 563.034483 184.139185 
L 564.748672 190.276561 
L 566.462861 200.421596 
L 568.177051 201.05099 
L 569.89124 197.32657 
L 571.60543 194.191599 
L 573.319619 194.262463 
L 575.033809 196.349039 
L 576.747998 202.077222 
L 578.462187 201.966838 
L 580.176377 204.153597 
L 581.890566 204.572563 
L 583.604756 202.8409 
L 585.318945 203.976522 
L 587.033134 209.641081 
L 588.747324 210.808211 
L 590.461513 206.780963 
L 592.175703 207.907013 
L 593.889892 210.306452 
L 595.604082 210.958131 
L 597.318271 206.987046 
L 599.03246 210.153623 
L 600.74665 208.464414 
L 602.460839 206.401237 
L 604.175029 205.428932 
L 605.889218 209.153042 
L 607.603407 211.723137 
L 609.317597 211.622539 
L 611.031786 208.054169 
L 612.745976 205.901721 
L 614.460165 208.228888 
L 616.174355 204.090253 
L 617.888544 203.750479 
L 619.602733 207.489982 
L 621.316923 207.466035 
L 623.031112 206.137914 
L 624.745302 206.041643 
L 626.459491 202.68478 
L 628.17368 210.101343 
L 629.88787 214.787143 
L 631.602059 214.123442 
L 633.316249 210.490312 
L 635.030438 212.026372 
L 636.744627 209.414565 
L 638.458817 212.983726 
L 640.173006 211.777226 
L 641.887196 214.173206 
L 645.315575 213.064649 
L 647.029764 219.329355 
L 648.743953 213.924601 
L 650.458143 215.42749 
L 652.172332 216.43694 
L 653.886522 218.485759 
L 655.600711 214.630464 
L 657.3149 217.894288 
L 659.02909 218.044029 
L 660.743279 217.649959 
L 662.457469 218.883453 
L 664.171658 219.685902 
L 665.885848 219.638882 
L 667.600037 221.271628 
L 669.314226 222.606435 
L 671.028416 224.574138 
L 672.742605 223.937865 
L 674.456795 222.873275 
L 676.170984 222.051621 
L 677.885173 224.176309 
L 679.599363 224.7478 
L 681.313552 226.452094 
L 683.027742 225.948314 
L 684.741931 226.120483 
L 686.456121 225.664685 
L 688.17031 226.224082 
L 689.884499 225.370723 
L 691.598689 227.373522 
L 693.312878 229.031244 
L 695.027068 227.886877 
L 696.741257 227.389082 
L 698.455446 228.689872 
L 700.169636 228.795074 
L 701.883825 227.969949 
L 703.598015 229.272673 
L 705.312204 228.548462 
L 707.026394 229.995891 
L 708.740583 228.182561 
L 710.454772 228.43044 
L 713.883151 232.12171 
L 715.597341 229.083319 
L 717.31153 229.325231 
L 719.025719 228.750501 
L 720.739909 228.517486 
L 722.454098 228.859769 
L 724.168288 228.515675 
L 725.882477 230.283957 
L 727.596667 229.198258 
L 729.310856 226.76315 
L 731.025045 224.573299 
L 732.739235 223.323622 
L 734.453424 226.829308 
L 736.167614 227.440998 
L 737.881803 226.723582 
L 739.595992 224.454615 
L 743.024371 229.248934 
L 744.738561 226.692867 
L 746.45275 227.110769 
L 748.166939 223.9188 
L 749.881129 225.553441 
L 751.595318 225.641957 
L 753.309508 227.870926 
L 755.023697 228.474162 
L 756.737887 228.555488 
L 758.452076 228.183532 
L 760.166265 228.834968 
L 761.880455 229.976819 
L 763.594644 228.610809 
L 765.308834 228.742209 
L 767.023023 229.542079 
L 770.451402 229.385973 
L 772.165591 230.447004 
L 773.879781 231.243659 
L 775.59397 230.875796 
L 777.30816 227.998572 
L 779.022349 225.570892 
L 780.736538 225.841886 
L 782.450728 227.044545 
L 784.164917 229.120028 
L 785.879107 229.811991 
L 787.593296 228.568914 
L 789.307485 228.638565 
L 791.021675 227.778606 
L 792.735864 229.07203 
L 794.450054 230.113826 
L 796.164243 230.538984 
L 797.878433 228.298462 
L 799.592622 227.600973 
L 804.73519 230.151083 
L 806.44938 228.467292 
L 808.163569 229.537991 
L 809.877758 227.543337 
L 811.591948 227.231104 
L 813.306137 228.517807 
L 815.020327 226.485162 
L 816.734516 228.509748 
L 818.448706 227.599398 
L 820.162895 229.321158 
L 821.877084 228.018129 
L 823.591274 227.8573 
L 825.305463 227.970743 
L 827.019653 226.723482 
L 828.733842 227.139488 
L 830.448031 226.727503 
L 833.87641 227.141499 
L 835.5906 228.885319 
L 837.304789 227.951113 
L 839.018979 228.848234 
L 840.733168 229.016761 
L 842.447357 227.109696 
L 844.161547 226.422136 
L 845.875736 226.942384 
L 847.589926 225.536809 
L 849.304115 227.211291 
L 851.018304 227.812186 
L 852.732494 227.154999 
L 854.446683 227.329047 
L 856.160873 227.331093 
L 857.875062 225.364582 
L 859.589251 224.821116 
L 861.303441 226.373651 
L 863.01763 224.920788 
L 864.73182 227.377951 
L 866.446009 227.690082 
L 868.160199 227.073636 
L 869.874388 227.655136 
L 873.302767 229.092926 
L 875.016956 227.7846 
L 876.731146 225.646628 
L 878.445335 224.092387 
L 880.159524 224.978418 
L 881.873714 225.734737 
L 883.587903 226.364569 
L 885.302093 225.465337 
L 887.016282 227.452762 
L 888.730472 228.452951 
L 890.444661 227.642541 
L 893.87304 226.308035 
L 895.587229 225.87694 
L 897.301419 225.931648 
L 897.301419 225.931648 
" clip-path="url(#pbce52ab60a)" style="fill: none; stroke: #d62728; stroke-opacity: 0.85; stroke-width: 1.5; stroke-linecap: square"/>
   </g>
   <g id="patch_9">
    <path d="M 539.12154 291.4 
L 539.12154 42 
" style="fill: none; stroke: #000000; stroke-linejoin: miter; stroke-linecap: square"/>
   </g>
   <g id="patch_10">
    <path d="M 914.357603 291.4 
L 914.357603 42 
" style="fill: none; stroke: #000000; stroke-linejoin: miter; stroke-linecap: square"/>
   </g>
   <g id="patch_11">
    <path d="M 539.12154 291.4 
L 914.357603 291.4 
" style="fill: none; stroke: #000000; stroke-linejoin: miter; stroke-linecap: square"/>
   </g>
   <g id="patch_12">
    <path d="M 539.12154 42 
L 914.357603 42 
" style="fill: none; stroke: #000000; stroke-linejoin: miter; stroke-linecap: square"/>
   </g>
   <g id="text_27">
    <!-- Effective Loss Contributions (Weight $\times$ Loss) -->
    <g transform="translate(542.239572 36) scale(0.2 -0.2)">
     <defs>
      <path id="TimesNewRomanPSMT-43" d="M 3853 4334 
L 3950 2894 
L 3853 2894 
Q 3659 3541 3300 3825 
Q 2941 4109 2438 4109 
Q 2016 4109 1675 3895 
Q 1334 3681 1139 3212 
Q 944 2744 944 2047 
Q 944 1472 1128 1050 
Q 1313 628 1683 403 
Q 2053 178 2528 178 
Q 2941 178 3256 354 
Q 3572 531 3950 1056 
L 4047 994 
Q 3728 428 3303 165 
Q 2878 -97 2294 -97 
Q 1241 -97 663 684 
Q 231 1266 231 2053 
Q 231 2688 515 3219 
Q 800 3750 1298 4042 
Q 1797 4334 2388 4334 
Q 2847 4334 3294 4109 
Q 3425 4041 3481 4041 
Q 3566 4041 3628 4100 
Q 3709 4184 3744 4334 
L 3853 4334 
z
" transform="scale(0.015625)"/>
      <path id="TimesNewRomanPSMT-72" d="M 1038 2947 
L 1038 2303 
Q 1397 2947 1775 2947 
Q 1947 2947 2059 2842 
Q 2172 2738 2172 2600 
Q 2172 2478 2090 2393 
Q 2009 2309 1897 2309 
Q 1788 2309 1652 2417 
Q 1516 2525 1450 2525 
Q 1394 2525 1328 2463 
Q 1188 2334 1038 2041 
L 1038 669 
Q 1038 431 1097 309 
Q 1138 225 1241 169 
Q 1344 113 1538 113 
L 1538 0 
L 72 0 
L 72 113 
Q 291 113 397 181 
Q 475 231 506 341 
Q 522 394 522 644 
L 522 1753 
Q 522 2253 501 2348 
Q 481 2444 426 2487 
Q 372 2531 291 2531 
Q 194 2531 72 2484 
L 41 2597 
L 906 2947 
L 1038 2947 
z
" transform="scale(0.015625)"/>
      <path id="TimesNewRomanPSMT-62" d="M 984 2369 
Q 1400 2947 1881 2947 
Q 2322 2947 2650 2570 
Q 2978 2194 2978 1541 
Q 2978 778 2472 313 
Q 2038 -88 1503 -88 
Q 1253 -88 995 3 
Q 738 94 469 275 
L 469 3241 
Q 469 3728 445 3840 
Q 422 3953 372 3993 
Q 322 4034 247 4034 
Q 159 4034 28 3984 
L -16 4094 
L 844 4444 
L 984 4444 
L 984 2369 
z
M 984 2169 
L 984 456 
Q 1144 300 1314 220 
Q 1484 141 1663 141 
Q 1947 141 2192 453 
Q 2438 766 2438 1363 
Q 2438 1913 2192 2208 
Q 1947 2503 1634 2503 
Q 1469 2503 1303 2419 
Q 1178 2356 984 2169 
z
" transform="scale(0.015625)"/>
      <path id="STIXGeneral-Regular-d7" d="M 3821 141 
L 3526 -160 
L 2048 1312 
L 570 -160 
L 275 134 
L 1747 1613 
L 275 3091 
L 576 3386 
L 2048 1914 
L 3526 3386 
L 3821 3098 
L 2349 1613 
L 3821 141 
z
" transform="scale(0.015625)"/>
     </defs>
     <use xlink:href="#TimesNewRomanPSMT-45" transform="translate(0 0.5625)"/>
     <use xlink:href="#TimesNewRomanPSMT-66" transform="translate(61.083984 0.5625)"/>
     <use xlink:href="#TimesNewRomanPSMT-66" transform="translate(94.384766 0.5625)"/>
     <use xlink:href="#TimesNewRomanPSMT-65" transform="translate(127.685547 0.5625)"/>
     <use xlink:href="#TimesNewRomanPSMT-63" transform="translate(172.070312 0.5625)"/>
     <use xlink:href="#TimesNewRomanPSMT-74" transform="translate(216.455078 0.5625)"/>
     <use xlink:href="#TimesNewRomanPSMT-69" transform="translate(244.238281 0.5625)"/>
     <use xlink:href="#TimesNewRomanPSMT-76" transform="translate(272.021484 0.5625)"/>
     <use xlink:href="#TimesNewRomanPSMT-65" transform="translate(322.021484 0.5625)"/>
     <use xlink:href="#TimesNewRomanPSMT-20" transform="translate(366.40625 0.5625)"/>
     <use xlink:href="#TimesNewRomanPSMT-4c" transform="translate(391.40625 0.5625)"/>
     <use xlink:href="#TimesNewRomanPSMT-6f" transform="translate(452.490234 0.5625)"/>
     <use xlink:href="#TimesNewRomanPSMT-73" transform="translate(502.490234 0.5625)"/>
     <use xlink:href="#TimesNewRomanPSMT-73" transform="translate(541.40625 0.5625)"/>
     <use xlink:href="#TimesNewRomanPSMT-20" transform="translate(580.322266 0.5625)"/>
     <use xlink:href="#TimesNewRomanPSMT-43" transform="translate(605.322266 0.5625)"/>
     <use xlink:href="#TimesNewRomanPSMT-6f" transform="translate(672.021484 0.5625)"/>
     <use xlink:href="#TimesNewRomanPSMT-6e" transform="translate(722.021484 0.5625)"/>
     <use xlink:href="#TimesNewRomanPSMT-74" transform="translate(772.021484 0.5625)"/>
     <use xlink:href="#TimesNewRomanPSMT-72" transform="translate(799.804688 0.5625)"/>
     <use xlink:href="#TimesNewRomanPSMT-69" transform="translate(833.105469 0.5625)"/>
     <use xlink:href="#TimesNewRomanPSMT-62" transform="translate(860.888672 0.5625)"/>
     <use xlink:href="#TimesNewRomanPSMT-75" transform="translate(910.888672 0.5625)"/>
     <use xlink:href="#TimesNewRomanPSMT-74" transform="translate(960.888672 0.5625)"/>
     <use xlink:href="#TimesNewRomanPSMT-69" transform="translate(988.671875 0.5625)"/>
     <use xlink:href="#TimesNewRomanPSMT-6f" transform="translate(1016.455078 0.5625)"/>
     <use xlink:href="#TimesNewRomanPSMT-6e" transform="translate(1066.455078 0.5625)"/>
     <use xlink:href="#TimesNewRomanPSMT-73" transform="translate(1116.455078 0.5625)"/>
     <use xlink:href="#TimesNewRomanPSMT-20" transform="translate(1155.371094 0.5625)"/>
     <use xlink:href="#TimesNewRomanPSMT-28" transform="translate(1180.371094 0.5625)"/>
     <use xlink:href="#TimesNewRomanPSMT-57" transform="translate(1213.671875 0.5625)"/>
     <use xlink:href="#TimesNewRomanPSMT-65" transform="translate(1308.056641 0.5625)"/>
     <use xlink:href="#TimesNewRomanPSMT-69" transform="translate(1352.441406 0.5625)"/>
     <use xlink:href="#TimesNewRomanPSMT-67" transform="translate(1380.224609 0.5625)"/>
     <use xlink:href="#TimesNewRomanPSMT-68" transform="translate(1430.224609 0.5625)"/>
     <use xlink:href="#TimesNewRomanPSMT-74" transform="translate(1480.224609 0.5625)"/>
     <use xlink:href="#TimesNewRomanPSMT-20" transform="translate(1508.007812 0.5625)"/>
     <use xlink:href="#STIXGeneral-Regular-d7" transform="translate(1533.007812 0.5625)"/>
     <use xlink:href="#TimesNewRomanPSMT-20" transform="translate(1597.007797 0.5625)"/>
     <use xlink:href="#TimesNewRomanPSMT-4c" transform="translate(1622.007797 0.5625)"/>
     <use xlink:href="#TimesNewRomanPSMT-6f" transform="translate(1683.091782 0.5625)"/>
     <use xlink:href="#TimesNewRomanPSMT-73" transform="translate(1733.091782 0.5625)"/>
     <use xlink:href="#TimesNewRomanPSMT-73" transform="translate(1772.007797 0.5625)"/>
     <use xlink:href="#TimesNewRomanPSMT-29" transform="translate(1810.923813 0.5625)"/>
    </g>
   </g>
   <g id="legend_2">
    <g id="patch_13">
     <path d="M 804.467603 100.32 
L 908.057603 100.32 
Q 909.857603 100.32 909.857603 98.52 
L 909.857603 48.3 
Q 909.857603 46.5 908.057603 46.5 
L 804.467603 46.5 
Q 802.667603 46.5 802.667603 48.3 
L 802.667603 98.52 
Q 802.667603 100.32 804.467603 100.32 
z
" style="fill: #ffffff; opacity: 0.8; stroke: #cccccc; stroke-linejoin: miter"/>
    </g>
    <g id="line2d_47">
     <path d="M 806.267603 53.25 
L 815.267603 53.25 
L 824.267603 53.25 
" style="fill: none; stroke: #1f77b4; stroke-opacity: 0.85; stroke-width: 1.5; stroke-linecap: square"/>
    </g>
    <g id="text_28">
     <!-- w_mse $\times$ loss_mse -->
     <g transform="translate(831.467603 56.4) scale(0.09 -0.09)">
      <use xlink:href="#TimesNewRomanPSMT-77" transform="translate(0 0.5625)"/>
      <use xlink:href="#TimesNewRomanPSMT-5f" transform="translate(72.216797 0.5625)"/>
      <use xlink:href="#TimesNewRomanPSMT-6d" transform="translate(122.216797 0.5625)"/>
      <use xlink:href="#TimesNewRomanPSMT-73" transform="translate(200 0.5625)"/>
      <use xlink:href="#TimesNewRomanPSMT-65" transform="translate(238.916016 0.5625)"/>
      <use xlink:href="#TimesNewRomanPSMT-20" transform="translate(283.300781 0.5625)"/>
      <use xlink:href="#STIXGeneral-Regular-d7" transform="translate(308.300781 0.5625)"/>
      <use xlink:href="#TimesNewRomanPSMT-20" transform="translate(372.300766 0.5625)"/>
      <use xlink:href="#TimesNewRomanPSMT-6c" transform="translate(397.300766 0.5625)"/>
      <use xlink:href="#TimesNewRomanPSMT-6f" transform="translate(425.083969 0.5625)"/>
      <use xlink:href="#TimesNewRomanPSMT-73" transform="translate(475.083969 0.5625)"/>
      <use xlink:href="#TimesNewRomanPSMT-73" transform="translate(513.999985 0.5625)"/>
      <use xlink:href="#TimesNewRomanPSMT-5f" transform="translate(552.916 0.5625)"/>
      <use xlink:href="#TimesNewRomanPSMT-6d" transform="translate(602.916 0.5625)"/>
      <use xlink:href="#TimesNewRomanPSMT-73" transform="translate(680.699203 0.5625)"/>
      <use xlink:href="#TimesNewRomanPSMT-65" transform="translate(719.615219 0.5625)"/>
     </g>
    </g>
    <g id="line2d_48">
     <path d="M 806.267603 66.03 
L 815.267603 66.03 
L 824.267603 66.03 
" style="fill: none; stroke: #ff7f0e; stroke-opacity: 0.85; stroke-width: 1.5; stroke-linecap: square"/>
    </g>
    <g id="text_29">
     <!-- w_pde1 $\times$ loss_pde1 -->
     <g transform="translate(831.467603 69.18) scale(0.09 -0.09)">
      <use xlink:href="#TimesNewRomanPSMT-77" transform="translate(0 0.5625)"/>
      <use xlink:href="#TimesNewRomanPSMT-5f" transform="translate(72.216797 0.5625)"/>
      <use xlink:href="#TimesNewRomanPSMT-70" transform="translate(122.216797 0.5625)"/>
      <use xlink:href="#TimesNewRomanPSMT-64" transform="translate(172.216797 0.5625)"/>
      <use xlink:href="#TimesNewRomanPSMT-65" transform="translate(222.216797 0.5625)"/>
      <use xlink:href="#TimesNewRomanPSMT-31" transform="translate(266.601562 0.5625)"/>
      <use xlink:href="#TimesNewRomanPSMT-20" transform="translate(316.601562 0.5625)"/>
      <use xlink:href="#STIXGeneral-Regular-d7" transform="translate(341.601562 0.5625)"/>
      <use xlink:href="#TimesNewRomanPSMT-20" transform="translate(405.601547 0.5625)"/>
      <use xlink:href="#TimesNewRomanPSMT-6c" transform="translate(430.601547 0.5625)"/>
      <use xlink:href="#TimesNewRomanPSMT-6f" transform="translate(458.38475 0.5625)"/>
      <use xlink:href="#TimesNewRomanPSMT-73" transform="translate(508.38475 0.5625)"/>
      <use xlink:href="#TimesNewRomanPSMT-73" transform="translate(547.300766 0.5625)"/>
      <use xlink:href="#TimesNewRomanPSMT-5f" transform="translate(586.216782 0.5625)"/>
      <use xlink:href="#TimesNewRomanPSMT-70" transform="translate(636.216782 0.5625)"/>
      <use xlink:href="#TimesNewRomanPSMT-64" transform="translate(686.216782 0.5625)"/>
      <use xlink:href="#TimesNewRomanPSMT-65" transform="translate(736.216782 0.5625)"/>
      <use xlink:href="#TimesNewRomanPSMT-31" transform="translate(780.601547 0.5625)"/>
     </g>
    </g>
    <g id="line2d_49">
     <path d="M 806.267603 78.81 
L 815.267603 78.81 
L 824.267603 78.81 
" style="fill: none; stroke: #2ca02c; stroke-opacity: 0.85; stroke-width: 1.5; stroke-linecap: square"/>
    </g>
    <g id="text_30">
     <!-- w_pde2 $\times$ loss_pde2 -->
     <g transform="translate(831.467603 81.96) scale(0.09 -0.09)">
      <use xlink:href="#TimesNewRomanPSMT-77" transform="translate(0 0.5625)"/>
      <use xlink:href="#TimesNewRomanPSMT-5f" transform="translate(72.216797 0.5625)"/>
      <use xlink:href="#TimesNewRomanPSMT-70" transform="translate(122.216797 0.5625)"/>
      <use xlink:href="#TimesNewRomanPSMT-64" transform="translate(172.216797 0.5625)"/>
      <use xlink:href="#TimesNewRomanPSMT-65" transform="translate(222.216797 0.5625)"/>
      <use xlink:href="#TimesNewRomanPSMT-32" transform="translate(266.601562 0.5625)"/>
      <use xlink:href="#TimesNewRomanPSMT-20" transform="translate(316.601562 0.5625)"/>
      <use xlink:href="#STIXGeneral-Regular-d7" transform="translate(341.601562 0.5625)"/>
      <use xlink:href="#TimesNewRomanPSMT-20" transform="translate(405.601547 0.5625)"/>
      <use xlink:href="#TimesNewRomanPSMT-6c" transform="translate(430.601547 0.5625)"/>
      <use xlink:href="#TimesNewRomanPSMT-6f" transform="translate(458.38475 0.5625)"/>
      <use xlink:href="#TimesNewRomanPSMT-73" transform="translate(508.38475 0.5625)"/>
      <use xlink:href="#TimesNewRomanPSMT-73" transform="translate(547.300766 0.5625)"/>
      <use xlink:href="#TimesNewRomanPSMT-5f" transform="translate(586.216782 0.5625)"/>
      <use xlink:href="#TimesNewRomanPSMT-70" transform="translate(636.216782 0.5625)"/>
      <use xlink:href="#TimesNewRomanPSMT-64" transform="translate(686.216782 0.5625)"/>
      <use xlink:href="#TimesNewRomanPSMT-65" transform="translate(736.216782 0.5625)"/>
      <use xlink:href="#TimesNewRomanPSMT-32" transform="translate(780.601547 0.5625)"/>
     </g>
    </g>
    <g id="line2d_50">
     <path d="M 806.267603 91.59 
L 815.267603 91.59 
L 824.267603 91.59 
" style="fill: none; stroke: #d62728; stroke-opacity: 0.85; stroke-width: 1.5; stroke-linecap: square"/>
    </g>
    <g id="text_31">
     <!-- w_sym $\times$ loss_sym -->
     <g transform="translate(831.467603 94.74) scale(0.09 -0.09)">
      <use xlink:href="#TimesNewRomanPSMT-77" transform="translate(0 0.5625)"/>
      <use xlink:href="#TimesNewRomanPSMT-5f" transform="translate(72.216797 0.5625)"/>
      <use xlink:href="#TimesNewRomanPSMT-73" transform="translate(122.216797 0.5625)"/>
      <use xlink:href="#TimesNewRomanPSMT-79" transform="translate(161.132812 0.5625)"/>
      <use xlink:href="#TimesNewRomanPSMT-6d" transform="translate(211.132812 0.5625)"/>
      <use xlink:href="#TimesNewRomanPSMT-20" transform="translate(288.916016 0.5625)"/>
      <use xlink:href="#STIXGeneral-Regular-d7" transform="translate(313.916016 0.5625)"/>
      <use xlink:href="#TimesNewRomanPSMT-20" transform="translate(377.916 0.5625)"/>
      <use xlink:href="#TimesNewRomanPSMT-6c" transform="translate(402.916 0.5625)"/>
      <use xlink:href="#TimesNewRomanPSMT-6f" transform="translate(430.699203 0.5625)"/>
      <use xlink:href="#TimesNewRomanPSMT-73" transform="translate(480.699203 0.5625)"/>
      <use xlink:href="#TimesNewRomanPSMT-73" transform="translate(519.615219 0.5625)"/>
      <use xlink:href="#TimesNewRomanPSMT-5f" transform="translate(558.531235 0.5625)"/>
      <use xlink:href="#TimesNewRomanPSMT-73" transform="translate(608.531235 0.5625)"/>
      <use xlink:href="#TimesNewRomanPSMT-79" transform="translate(647.44725 0.5625)"/>
      <use xlink:href="#TimesNewRomanPSMT-6d" transform="translate(697.44725 0.5625)"/>
     </g>
    </g>
   </g>
  </g>
 </g>
 <defs>
  <clipPath id="pc1dfe5c525">
   <rect x="77.971813" y="42" width="375.236063" height="249.4"/>
  </clipPath>
  <clipPath id="pbce52ab60a">
   <rect x="539.12154" y="42" width="375.236063" height="249.4"/>
  </clipPath>
 </defs>
</svg>
